<?xml version="1.0" standalone="no"?>
<!DOCTYPE svg PUBLIC "-//W3C//DTD SVG 1.1//EN" "http://www.w3.org/Graphics/SVG/1.1/DTD/svg11.dtd" >
<svg>
<metadata>
Created by FontForge 20090622 at Tue Feb 16 09:17:40 2016
 By deploy user
Copyright (c) Gophmann A.L., 2008. All rights reserved.
</metadata>
<defs>
<font id="Artemon" horiz-adv-x="500" >
  <font-face 
    font-family="Artemon "
    font-weight="700"
    font-stretch="normal"
    units-per-em="1000"
    panose-1="2 0 5 6 4 0 0 2 0 4"
    ascent="800"
    descent="-200"
    x-height="561"
    cap-height="748"
    bbox="-150 -299 826.25 987"
    underline-thickness="80"
    underline-position="-26"
    unicode-range="U+0020-U+FB02"
  />
<missing-glyph horiz-adv-x="177" 
 />
    <glyph glyph-name=".notdef" horiz-adv-x="177" 
 />
    <glyph glyph-name="A" unicode="A" horiz-adv-x="455" 
d="M455 0q-24 -4 -50 -5t-54 -1q-58 0 -118 6q15 42 23 82.5t8 79.5q0 79 -39 79q-15 0 -25.5 -12t-10.5 -30q0 -17 8 -26.5t19 -9.5q15 0 21 16q1 -7 1.5 -12t0.5 -8q0 -26 -14 -42t-34 -16q-37 0 -52 46q-1 -8 -1 -15v-12q0 -65 37 -120q-20 -3 -42.5 -4t-45.5 -1
q-25 0 -46.5 1.5t-40.5 3.5q54 131 88.5 314.5t57.5 423.5q28 2 51 3t42 1q23 0 44.5 -1t42.5 -3q14 -234 45.5 -417t83.5 -321zM243 341l-17 107l-20 129q-12 -62 -22.5 -122.5l-21.5 -120.5q14 30 42 30q23 0 39 -23z" />
    <glyph glyph-name="AE" unicode="&#xc6;" horiz-adv-x="632" 
d="M602 322q2 -39 3 -78t1 -77q0 -42 -1.5 -83.5t-3.5 -83.5q-45 -2 -89.5 -3t-89.5 -1t-88 1t-88 3q29 85 29 154q0 87 -46 87q-14 0 -24.5 -11.5t-10.5 -30.5q0 -17 8 -26.5t19 -9.5q15 0 21 16q0 -4 0.5 -7t0.5 -6q0 -32 -13 -49t-34 -17q-40 0 -52 47q-1 -6 -1 -11.5
v-10.5q0 -72 37 -125q-24 -2 -48 -3t-47 -1q-24 0 -47.5 1t-47.5 3q69 169 123 352.5t94 384.5q48 1 96 1.5t96 0.5q49 0 97.5 -0.5t97.5 -1.5q1 -23 1 -47v-47q0 -48 -1 -95t-3 -95q-15 112 -47 168.5t-70 56.5t-60 -56t-23 -168q24 67 80 67q42 0 70 -39.5t28 -107.5
q0 -66 -23.5 -103t-58.5 -37q-26 0 -42 19.5t-16 54.5v3q4 -22 23 -22q11 0 19.5 11.5t8.5 31.5t-10 31.5t-24 11.5q-56 0 -56 -140q0 -73 24.5 -113t61.5 -40q47 0 79.5 60t46.5 180zM276 340q2 39 2 78.5v80.5v82.5t-2 84.5q-20 -85 -42 -167.5l-46 -164.5q16 30 45 30
q27 0 43 -24z" />
    <glyph glyph-name="Aacute" unicode="&#xc1;" horiz-adv-x="455" 
d="M455 0q-24 -4 -50 -5t-54 -1q-58 0 -118 6q15 42 23 82.5t8 79.5q0 79 -39 79q-15 0 -25.5 -12t-10.5 -30q0 -17 8 -26.5t19 -9.5q15 0 21 16q1 -7 1.5 -12t0.5 -8q0 -26 -14 -42t-34 -16q-37 0 -52 46q-1 -8 -1 -15v-12q0 -65 37 -120q-20 -3 -42.5 -4t-45.5 -1
q-25 0 -46.5 1.5t-40.5 3.5q54 131 88.5 314.5t57.5 423.5q28 2 51 3t42 1q23 0 44.5 -1t42.5 -3q14 -234 45.5 -417t83.5 -321zM243 341l-17 107l-20 129q-12 -62 -22.5 -122.5l-21.5 -120.5q14 30 42 30q23 0 39 -23zM146 785q73 34 97 93q9 21 16 40.5t15.5 34t20.5 23.5
t30 9q17 0 29 -12t12 -32t-14.5 -43t-42.5 -45t-69 -40t-94 -28z" />
    <glyph glyph-name="Acircumflex" unicode="&#xc2;" horiz-adv-x="455" 
d="M455 0q-24 -4 -50 -5t-54 -1q-58 0 -118 6q15 42 23 82.5t8 79.5q0 79 -39 79q-15 0 -25.5 -12t-10.5 -30q0 -17 8 -26.5t19 -9.5q15 0 21 16q1 -7 1.5 -12t0.5 -8q0 -26 -14 -42t-34 -16q-37 0 -52 46q-1 -8 -1 -15v-12q0 -65 37 -120q-20 -3 -42.5 -4t-45.5 -1
q-25 0 -46.5 1.5t-40.5 3.5q54 131 88.5 314.5t57.5 423.5q28 2 51 3t42 1q23 0 44.5 -1t42.5 -3q14 -234 45.5 -417t83.5 -321zM243 341l-17 107l-20 129q-12 -62 -22.5 -122.5l-21.5 -120.5q14 30 42 30q23 0 39 -23zM404 787q-51 5 -92 22t-71 46q-66 -60 -163 -68
q48 39 89 84t74 98q66 -105 163 -182z" />
    <glyph glyph-name="Adieresis" unicode="&#xc4;" horiz-adv-x="455" 
d="M455 0q-24 -4 -50 -5t-54 -1q-58 0 -118 6q15 42 23 82.5t8 79.5q0 79 -39 79q-15 0 -25.5 -12t-10.5 -30q0 -17 8 -26.5t19 -9.5q15 0 21 16q1 -7 1.5 -12t0.5 -8q0 -26 -14 -42t-34 -16q-37 0 -52 46q-1 -8 -1 -15v-12q0 -65 37 -120q-20 -3 -42.5 -4t-45.5 -1
q-25 0 -46.5 1.5t-40.5 3.5q54 131 88.5 314.5t57.5 423.5q28 2 51 3t42 1q23 0 44.5 -1t42.5 -3q14 -234 45.5 -417t83.5 -321zM243 341l-17 107l-20 129q-12 -62 -22.5 -122.5l-21.5 -120.5q14 30 42 30q23 0 39 -23zM426 866q0 -32 -22.5 -54.5t-55.5 -22.5
q-32 0 -54.5 22.5t-22.5 54.5q0 33 22.5 55.5t54.5 22.5q33 0 55.5 -22.5t22.5 -55.5zM216 866q0 -32 -22.5 -54.5t-54.5 -22.5q-33 0 -55.5 22.5t-22.5 54.5q0 33 22.5 55.5t55.5 22.5q16 0 30 -6t24.5 -16.5t16.5 -25t6 -30.5z" />
    <glyph glyph-name="Agrave" unicode="&#xc0;" horiz-adv-x="455" 
d="M455 0q-24 -4 -50 -5t-54 -1q-58 0 -118 6q15 42 23 82.5t8 79.5q0 79 -39 79q-15 0 -25.5 -12t-10.5 -30q0 -17 8 -26.5t19 -9.5q15 0 21 16q1 -7 1.5 -12t0.5 -8q0 -26 -14 -42t-34 -16q-37 0 -52 46q-1 -8 -1 -15v-12q0 -65 37 -120q-20 -3 -42.5 -4t-45.5 -1
q-25 0 -46.5 1.5t-40.5 3.5q54 131 88.5 314.5t57.5 423.5q28 2 51 3t42 1q23 0 44.5 -1t42.5 -3q14 -234 45.5 -417t83.5 -321zM243 341l-17 107l-20 129q-12 -62 -22.5 -122.5l-21.5 -120.5q14 30 42 30q23 0 39 -23zM332 788q-54 10 -95 28t-69 39.5t-42.5 45t-14.5 43.5
q0 18 12.5 30.5t29.5 12.5q29 0 44.5 -23t29.5 -64q15 -42 40.5 -69.5t64.5 -42.5z" />
    <glyph glyph-name="Aring" unicode="&#xc5;" horiz-adv-x="455" 
d="M455 0q-24 -4 -50 -4.5t-54 -0.5q-29 0 -58.5 1t-59.5 4q15 42 23 82.5t8 79.5q0 79 -39 79q-15 0 -25.5 -12t-10.5 -30q0 -17 8 -26.5t19 -9.5q15 0 21 16q1 -7 1.5 -12t0.5 -8q0 -26 -14 -42t-34 -16q-37 0 -52 46q-1 -8 -1 -15v-12q0 -65 37 -120q-20 -3 -42.5 -4
t-45.5 -1q-25 0 -46.5 1.5t-40.5 3.5q54 131 88.5 314.5t57.5 423.5q28 2 51 3t42 1q23 0 44.5 -1t42.5 -3q14 -234 45.5 -417t83.5 -321zM243 341l-17 107l-20 129q-12 -62 -22.5 -122.5l-21.5 -120.5q14 30 42 30q23 0 39 -23zM326 879q0 -41 -28 -69t-70 -28
q-41 0 -69 28t-28 69t28 69t69 28q42 0 70 -28t28 -69zM285 879q0 23 -16.5 39.5t-40.5 16.5q-23 0 -39.5 -16t-16.5 -40t16.5 -40.5t39.5 -16.5q24 0 40.5 16.5t16.5 40.5z" />
    <glyph glyph-name="Atilde" unicode="&#xc3;" horiz-adv-x="455" 
d="M455 0q-24 -4 -50 -5t-54 -1q-58 0 -118 6q15 42 23 82.5t8 79.5q0 79 -39 79q-15 0 -25.5 -12t-10.5 -30q0 -17 8 -26.5t19 -9.5q15 0 21 16q1 -7 1.5 -12t0.5 -8q0 -26 -14 -42t-34 -16q-37 0 -52 46q-1 -8 -1 -15v-12q0 -65 37 -120q-20 -3 -42.5 -4t-45.5 -1
q-25 0 -46.5 1.5t-40.5 3.5q54 131 88.5 314.5t57.5 423.5q28 2 51 3t42 1q23 0 44.5 -1t42.5 -3q14 -234 45.5 -417t83.5 -321zM243 341l-17 107l-20 129q-12 -62 -22.5 -122.5l-21.5 -120.5q14 30 42 30q23 0 39 -23zM372 953q-18 -156 -94 -156q-15 0 -27.5 4.5t-24 10
t-22.5 10t-23 4.5q-49 0 -73 -58q8 78 32.5 117.5t60.5 39.5q15 0 28 -5t25.5 -11t24.5 -11t26 -5q51 0 67 60z" />
    <glyph glyph-name="B" unicode="B" horiz-adv-x="462" 
d="M312 412q70 -17 110 -72t40 -134q0 -218 -284 -218q-38 0 -77 3.5t-81 10.5q32 64 44 160.5t12 229.5q0 94 -11.5 178t-37.5 162q57 7 104.5 10.5t86.5 3.5q216 0 216 -167q0 -59 -29.5 -99t-92.5 -68zM206 455q8 -2 13 -2h9q70 0 70 115q0 45 -14.5 69t-38.5 24
q-45 0 -45 -81q0 -22 6 -125zM243 153q9 6 9 18q0 10 -6.5 16.5t-15.5 6.5q-14 0 -24 -11.5t-10 -28.5q0 -21 15.5 -35.5t38.5 -14.5q36 0 57.5 33.5t21.5 97.5q0 55 -24.5 88t-59.5 33q-20 0 -37 -7v-63q16 12 34 12q24 0 40.5 -19t16.5 -51q0 -33 -15.5 -53.5t-40.5 -21.5
z" />
    <glyph glyph-name="C" unicode="C" horiz-adv-x="417" 
d="M405 327q1 -14 1.5 -27.5t0.5 -27.5q0 -141 -47 -214t-128 -73q-43 0 -81.5 26t-67.5 75t-46 120.5t-17 163.5q0 103 27 186t73 137q54 63 113 63q13 0 25 -3.5t24 -7.5l23 -7.5t22 -3.5q25 0 43 22q14 -40 20.5 -83t6.5 -91q0 -119 -31 -181t-75 -62q-41 0 -69.5 37
t-28.5 100q0 31 6.5 56.5t16.5 42.5t23 26.5t26 9.5q33 0 40 -38q-6 9 -15 9q-11 0 -18.5 -13.5t-7.5 -38.5q0 -24 10 -38t23 -14q39 0 39 98q0 57 -19.5 87t-51.5 30q-19 0 -38.5 -17t-35.5 -48.5t-26.5 -77t-10.5 -102.5q0 -62 10.5 -110t28.5 -81t43 -50.5t54 -17.5
q41 0 70.5 34.5t44.5 103.5z" />
    <glyph glyph-name="Ccedilla" unicode="&#xc7;" horiz-adv-x="417" 
d="M224 -55q13 7 25 7q35 0 60 -27.5t25 -69.5q0 -46 -29 -76t-76 -30q-77 0 -94 110q30 -54 74 -54q23 0 36.5 14t13.5 38q0 20 -12 33t-29 13q-15 0 -29 -10l4 98q-83 30 -128 126t-45 253q0 103 27 186t73 137q54 63 113 63q13 0 25 -3.5t24 -7.5l23 -7.5t22 -3.5
q25 0 43 22q14 -40 20.5 -83t6.5 -91q0 -119 -31 -181t-75 -62q-41 0 -69.5 37t-28.5 100q0 31 6.5 56.5t16.5 42.5t23 26.5t26 9.5q33 0 40 -38q-6 9 -15 9q-11 0 -18.5 -13.5t-7.5 -38.5q0 -24 10 -38t23 -14q39 0 39 98q0 57 -19.5 87t-51.5 30q-19 0 -38.5 -17
t-35.5 -48.5t-26.5 -77t-10.5 -102.5q0 -62 10.5 -110t28.5 -81t43 -50.5t54 -17.5q41 0 70.5 34.5t44.5 103.5q1 -15 1.5 -28.5t0.5 -27.5q0 -277 -175 -286l-6 1l-2 -41v0z" />
    <glyph glyph-name="D" unicode="D" horiz-adv-x="510" 
d="M29 729q47 8 88.5 12t79.5 4q77 0 132.5 -21t91 -66t52.5 -114.5t17 -165.5q0 -105 -18 -179t-56.5 -121t-98.5 -68.5t-145 -21.5q-71 0 -152 12q55 138 55 371q0 98 -10 186.5t-36 171.5zM276 192q7 13 7 25q0 15 -8.5 24.5t-20.5 9.5q-18 0 -30 -19t-12 -53
q0 -71 50 -71q89 0 89 267q0 134 -26.5 203.5t-67.5 69.5q-32 0 -43.5 -55.5t-11.5 -170.5v-44.5t1 -48.5q12 16 25.5 23.5t31.5 7.5q25 0 41.5 -22t16.5 -57q0 -28 -9.5 -49t-32.5 -40z" />
    <glyph glyph-name="E" unicode="E" horiz-adv-x="445" 
d="M412 322q3 -99 3 -163q0 -42 -1 -81.5t-3 -77.5q-43 -2 -92 -3.5t-104 -1.5q-53 0 -101 1t-94 4q58 145 58 389q0 222 -47 349q51 2 97 3.5t88 1.5q43 0 90 -1.5t98 -3.5q1 -28 1 -51v-42q0 -35 -1 -83t-3 -109q-17 113 -47.5 169t-69.5 56q-38 0 -60 -56t-24 -168
q25 67 80 67q43 0 71 -39.5t28 -106.5q0 -66 -23.5 -103.5t-58.5 -37.5q-26 0 -42.5 19.5t-16.5 52.5v5q6 -22 24 -22q11 0 19 11.5t8 31.5t-9.5 31.5t-24.5 11.5q-55 0 -55 -132q0 -78 23.5 -119.5t61.5 -41.5q97 0 127 240z" />
    <glyph glyph-name="Eacute" unicode="&#xc9;" horiz-adv-x="445" 
d="M412 322q3 -99 3 -163q0 -42 -1 -81.5t-3 -77.5q-43 -2 -92 -3.5t-104 -1.5q-53 0 -101 1t-94 4q58 145 58 389q0 222 -47 349q51 2 97 3.5t88 1.5q43 0 90 -1.5t98 -3.5q1 -28 1 -51v-42q0 -35 -1 -83t-3 -109q-17 113 -47.5 169t-69.5 56q-38 0 -60 -56t-24 -168
q25 67 80 67q43 0 71 -39.5t28 -106.5q0 -66 -23.5 -103.5t-58.5 -37.5q-26 0 -42.5 19.5t-16.5 52.5v5q6 -22 24 -22q11 0 19 11.5t8 31.5t-9.5 31.5t-24.5 11.5q-55 0 -55 -132q0 -78 23.5 -119.5t61.5 -41.5q97 0 127 240zM141 785q73 34 97 93q9 21 16 40.5t15.5 34
t20.5 23.5t30 9q17 0 29 -12t12 -32t-14.5 -43t-42.5 -45t-69 -40t-94 -28z" />
    <glyph glyph-name="Ecircumflex" unicode="&#xca;" horiz-adv-x="445" 
d="M412 322q3 -99 3 -163q0 -42 -1 -81.5t-3 -77.5q-43 -2 -92 -3.5t-104 -1.5q-53 0 -101 1t-94 4q58 145 58 389q0 222 -47 349q51 2 97 3.5t88 1.5q43 0 90 -1.5t98 -3.5q1 -28 1 -51v-42q0 -35 -1 -83t-3 -109q-17 113 -47.5 169t-69.5 56q-38 0 -60 -56t-24 -168
q25 67 80 67q43 0 71 -39.5t28 -106.5q0 -66 -23.5 -103.5t-58.5 -37.5q-26 0 -42.5 19.5t-16.5 52.5v5q6 -22 24 -22q11 0 19 11.5t8 31.5t-9.5 31.5t-24.5 11.5q-55 0 -55 -132q0 -78 23.5 -119.5t61.5 -41.5q97 0 127 240zM399 787q-51 5 -92 22t-71 46q-66 -60 -163 -68
q48 39 89 84t74 98q66 -105 163 -182z" />
    <glyph glyph-name="Edieresis" unicode="&#xcb;" horiz-adv-x="445" 
d="M412 322q3 -99 3 -163q0 -42 -1 -81.5t-3 -77.5q-43 -2 -92 -3.5t-104 -1.5q-53 0 -101 1t-94 4q58 145 58 389q0 222 -47 349q51 2 97 3.5t88 1.5q43 0 90 -1.5t98 -3.5q1 -28 1 -51v-42q0 -35 -1 -83t-3 -109q-17 113 -47.5 169t-69.5 56q-38 0 -60 -56t-24 -168
q25 67 80 67q43 0 71 -39.5t28 -106.5q0 -66 -23.5 -103.5t-58.5 -37.5q-26 0 -42.5 19.5t-16.5 52.5v5q6 -22 24 -22q11 0 19 11.5t8 31.5t-9.5 31.5t-24.5 11.5q-55 0 -55 -132q0 -78 23.5 -119.5t61.5 -41.5q97 0 127 240zM421 866q0 -32 -22.5 -54.5t-55.5 -22.5
q-32 0 -54.5 22.5t-22.5 54.5q0 33 22.5 55.5t54.5 22.5q33 0 55.5 -22.5t22.5 -55.5zM211 866q0 -32 -22.5 -54.5t-54.5 -22.5q-33 0 -55.5 22.5t-22.5 54.5q0 33 22.5 55.5t55.5 22.5q16 0 30 -6t24.5 -16.5t16.5 -25t6 -30.5z" />
    <glyph glyph-name="Egrave" unicode="&#xc8;" horiz-adv-x="445" 
d="M412 322q3 -99 3 -163q0 -42 -1 -81.5t-3 -77.5q-43 -2 -92 -3.5t-104 -1.5q-53 0 -101 1t-94 4q58 145 58 389q0 222 -47 349q51 2 97 3.5t88 1.5q43 0 90 -1.5t98 -3.5q1 -28 1 -51v-42q0 -35 -1 -83t-3 -109q-17 113 -47.5 169t-69.5 56q-38 0 -60 -56t-24 -168
q25 67 80 67q43 0 71 -39.5t28 -106.5q0 -66 -23.5 -103.5t-58.5 -37.5q-26 0 -42.5 19.5t-16.5 52.5v5q6 -22 24 -22q11 0 19 11.5t8 31.5t-9.5 31.5t-24.5 11.5q-55 0 -55 -132q0 -78 23.5 -119.5t61.5 -41.5q97 0 127 240zM327 788q-54 10 -95 28t-69 39.5t-42.5 45
t-14.5 43.5q0 18 12.5 30.5t29.5 12.5q29 0 44.5 -23t29.5 -64q15 -42 40.5 -69.5t64.5 -42.5z" />
    <glyph glyph-name="Eth" unicode="&#xd0;" horiz-adv-x="545" 
d="M62 729q50 8 93 12t80 4q149 0 219.5 -86t70.5 -268q0 -206 -77 -304.5t-238 -98.5q-57 0 -157 12q33 72 48.5 165t15.5 209v42q-48 0 -97 -3q1 8 1.5 16t0.5 16t-0.5 16t-1.5 16q23 -2 46.5 -2.5t47.5 -1.5q-2 67 -15 130.5t-37 125.5zM309 187q6 15 6 27q0 14 -8 23
t-20 9q-17 0 -29.5 -19t-12.5 -52q0 -77 53 -77q86 0 86 293q0 126 -28 191.5t-66 65.5q-29 0 -40 -37t-11 -113v-25q17 0 42 1t57 3q-1 -8 -1 -16v-16v-16t1 -16q-25 1 -50 1.5t-50 0.5q-1 -23 -1 -45.5v-45.5q20 32 51 32q28 0 45 -21t17 -59q0 -29 -9.5 -50.5
t-31.5 -38.5z" />
    <glyph glyph-name="F" unicode="F" horiz-adv-x="434" 
d="M416 563v-67.5t-2 -98.5q-18 141 -51 211t-78 70q-85 0 -87 -216q30 58 80 58q22 0 41.5 -10.5t33.5 -29t22.5 -45t8.5 -58.5q0 -62 -24.5 -98t-59.5 -36q-53 0 -62 66q0 2 0.5 5t1.5 8q3 -24 22 -24q11 0 19.5 12t8.5 30q0 20 -11 32t-26 12q-54 0 -54 -119
q0 -78 15 -142.5t56 -122.5q-28 -2 -58 -3t-63 -1q-35 0 -67.5 1t-61.5 3q65 156 65 382q0 215 -56 356q52 2 99 3.5t92 1.5t93 -1.5t101 -3.5q2 -60 2 -103.5v-71.5z" />
    <glyph glyph-name="G" unicode="G" horiz-adv-x="471" 
d="M476 417q-19 -20 -30 -59.5t-11 -96.5q0 -71 1 -137t3 -129q-16 42 -54 42q-14 0 -29.5 -8l-34.5 -17.5t-41.5 -17.5t-50.5 -8q-100 0 -154.5 96t-54.5 284q0 89 17.5 160.5t47.5 122t70.5 77.5t87.5 27q22 0 40.5 -6t34 -13l28.5 -13t24 -6q29 0 38 32v-115.5t-2 -167.5
q-29 188 -130 188q-57 0 -86.5 -67.5t-29.5 -201.5q0 -131 21 -195t72 -64q72 0 72 131q0 88 -34 88q-12 0 -20 -10t-8 -27q0 -15 6 -23t15 -8q14 0 20 20q1 -6 1 -10v-6q0 -29 -13.5 -45.5t-32.5 -16.5q-23 0 -39.5 24t-16.5 63q0 66 36.5 103.5t101.5 37.5q32 0 65 -7
t70 -21z" />
    <glyph glyph-name="H" unicode="H" horiz-adv-x="509" 
d="M489 0q-50 -6 -99 -6t-97 6q31 93 31 186v20q-19 -20 -41 -20q-28 0 -45.5 23t-17.5 63t32 69q-7 -13 -7 -28q0 -16 7 -26.5t16 -10.5q10 0 16.5 11.5t6.5 31.5q0 23 -9.5 36.5t-22.5 13.5q-31 0 -48.5 -38.5t-17.5 -113.5q0 -124 38 -217q-51 -6 -100 -6q-41 0 -107 6
q49 192 49 391q0 109 -12 195t-41 152q61 6 115 6q49 0 111 -6q-54 -90 -54 -232q0 -25 3 -49q18 54 67 54q41 0 63 -44q1 14 1 22v11q0 125 -40 238q25 3 49.5 4t49.5 1q24 0 49.5 -1.5t54.5 -3.5q-25 -97 -37.5 -192.5t-12.5 -192.5q0 -93 12 -180t38 -173z" />
    <glyph glyph-name="I" unicode="I" horiz-adv-x="264" 
d="M244 0q-25 -2 -53 -3.5t-60 -1.5q-30 0 -57.5 1t-53.5 4q28 94 41 189t13 197q0 95 -12 182t-38 170q30 2 56.5 3.5t50.5 1.5q27 0 53.5 -1.5t52.5 -3.5q-43 -166 -43 -347q0 -118 12 -215.5t38 -175.5z" />
    <glyph glyph-name="Iacute" unicode="&#xcd;" horiz-adv-x="264" 
d="M244 0q-25 -2 -53 -3.5t-60 -1.5q-30 0 -57.5 1t-53.5 4q28 94 41 189t13 197q0 95 -12 182t-38 170q30 2 56.5 3.5t50.5 1.5q27 0 53.5 -1.5t52.5 -3.5q-43 -166 -43 -347q0 -118 12 -215.5t38 -175.5zM50 785q73 34 97 93q9 21 16 40.5t15.5 34t20.5 23.5t30 9
q17 0 29 -12t12 -32t-14.5 -43t-42.5 -45t-69 -40t-94 -28z" />
    <glyph glyph-name="Icircumflex" unicode="&#xce;" horiz-adv-x="264" 
d="M244 0q-25 -2 -53 -3.5t-60 -1.5q-30 0 -57.5 1t-53.5 4q28 94 41 189t13 197q0 95 -12 182t-38 170q30 2 56.5 3.5t50.5 1.5q27 0 53.5 -1.5t52.5 -3.5q-43 -166 -43 -347q0 -118 12 -215.5t38 -175.5zM308 787q-51 5 -92 22t-71 46q-66 -60 -163 -68q48 39 89 84t74 98
q66 -105 163 -182z" />
    <glyph glyph-name="Idieresis" unicode="&#xcf;" horiz-adv-x="264" 
d="M244 0q-25 -2 -53 -3.5t-60 -1.5q-30 0 -57.5 1t-53.5 4q28 94 41 189t13 197q0 95 -12 182t-38 170q30 2 56.5 3.5t50.5 1.5q27 0 53.5 -1.5t52.5 -3.5q-43 -166 -43 -347q0 -118 12 -215.5t38 -175.5zM330 866q0 -32 -22.5 -54.5t-55.5 -22.5q-32 0 -54.5 22.5
t-22.5 54.5q0 33 22.5 55.5t54.5 22.5q33 0 55.5 -22.5t22.5 -55.5zM120 866q0 -32 -22.5 -54.5t-54.5 -22.5q-33 0 -55.5 22.5t-22.5 54.5q0 33 22.5 55.5t55.5 22.5q16 0 30 -6t24.5 -16.5t16.5 -25t6 -30.5z" />
    <glyph glyph-name="Igrave" unicode="&#xcc;" horiz-adv-x="264" 
d="M244 0q-25 -2 -53 -3.5t-60 -1.5q-30 0 -57.5 1t-53.5 4q28 94 41 189t13 197q0 95 -12 182t-38 170q30 2 56.5 3.5t50.5 1.5q27 0 53.5 -1.5t52.5 -3.5q-43 -166 -43 -347q0 -118 12 -215.5t38 -175.5zM236 788q-54 10 -95 28t-69 39.5t-42.5 45t-14.5 43.5
q0 18 12.5 30.5t29.5 12.5q29 0 44.5 -23t29.5 -64q15 -42 40.5 -69.5t64.5 -42.5z" />
    <glyph glyph-name="J" unicode="J" horiz-adv-x="386" 
d="M386 737q-27 -37 -37 -98t-10 -149q0 -48 3 -99t3 -106q0 -154 -44.5 -229.5t-139.5 -75.5q-81 0 -126 53.5t-45 151.5q0 41 9 74.5t24.5 57t36.5 36t44 12.5q42 0 68.5 -32.5t26.5 -92.5q0 -47 -16 -77.5t-39 -36.5q6 10 6 24q0 19 -8 29.5t-19 10.5q-13 0 -21 -13
t-8 -38q0 -27 15 -44.5t35 -17.5q81 0 81 232q0 328 -85 428q29 2 58.5 3t60.5 1q20 0 51 -1t76 -3z" />
    <glyph glyph-name="K" unicode="K" horiz-adv-x="496" 
d="M478 308q23 -67 23 -134q0 -91 -32.5 -140t-88.5 -49q-48 0 -77.5 42t-29.5 116q0 30 7.5 58.5t16.5 56.5t16.5 56t7.5 56q0 50 -34 50q-15 0 -29 -13t-25 -37t-17.5 -59.5t-6.5 -80.5q0 -70 11.5 -126t46.5 -104q-60 -6 -121 -6q-63 0 -126 6q35 93 52 185.5t17 191.5
q0 87 -13.5 176t-39.5 185q58 6 112 6q46 0 103 -6q-22 -56 -33.5 -118t-11.5 -129v-14q23 136 67 205t99 69q42 0 68.5 -31t26.5 -84q0 -38 -13 -68t-42 -58q4 12 4 26q0 31 -17 49t-44 18q-38 0 -67 -37.5t-42 -112.5q39 58 91 58q86 0 86 -143q0 -14 -1 -30t-1 -34
q0 -58 29 -58q28 0 28 52v10v0z" />
    <glyph glyph-name="L" unicode="L" horiz-adv-x="430" 
d="M345 205q0 -19 -11 -29.5t-30 -10.5q-34 0 -52.5 27.5t-18.5 80.5t27.5 85t69.5 32q45 0 72.5 -47t27.5 -134q0 -45 -5 -96.5t-14 -112.5q-105 -3 -204 -3q-91 0 -187 3q59 140 59 361q0 115 -14.5 208.5t-42.5 168.5q33 2 63 3.5t59 1.5t61 -1.5t67 -3.5
q-43 -87 -56.5 -187t-13.5 -218q0 -119 20.5 -177t70.5 -58q32 0 51 26.5t19 78.5q0 29 -8 44t-19 15q-12 0 -20 -9t-8 -23t6.5 -22.5t15.5 -8.5q11 0 15 11v-5v0z" />
    <glyph glyph-name="Lslash" unicode="&#x141;" horiz-adv-x="486" 
d="M402 211q-4 -44 -43 -44q-31 0 -50.5 27t-19.5 76q0 55 27.5 87t69.5 32q45 0 72.5 -46t27.5 -133q0 -42 -5 -94t-14 -116q-99 -3 -195 -3t-187 3q29 70 43.5 162t15.5 209l-64.5 -31l-59.5 -29q1 10 1.5 19t0.5 18t-0.5 18t-1.5 17q33 12 63.5 24.5l59.5 25.5
q-4 81 -17.5 156t-38.5 147q63 3 125 3q63 0 126 -3q-29 -59 -45 -119.5t-19 -125.5l82 38.5l71 35.5q-1 -8 -1 -17v-18v-18t1 -19l-82 -33t-76 -33q-3 -36 -3 -73q0 -134 17.5 -194.5t65.5 -60.5q70 0 70 105q0 29 -8 44t-19 15t-18.5 -9t-7.5 -23q0 -31 20 -31q10 0 16 11
z" />
    <glyph glyph-name="M" unicode="M" horiz-adv-x="634" 
d="M614 0q-26 -2 -54.5 -3.5t-60.5 -1.5q-33 0 -63.5 1t-59.5 4q31 69 47.5 157.5t16.5 196.5q0 40 -3 80.5t-10 82.5l-66 -268t-58 -260q-71 270 -150 543q-3 -60 -3 -120q0 -305 74 -412q-32 -2 -59.5 -3.5t-50.5 -1.5q-27 0 -51.5 1t-47.5 4q29 63 49.5 171.5t20.5 255.5
q0 100 -13 176.5t-41 133.5q28 2 56.5 3t57.5 1q27 0 52.5 -1t51.5 -3q16 -91 35 -179t42 -176l43.5 172l43.5 183q23 2 47.5 3t49.5 1q23 0 46 -1t45 -3q-47 -102 -47 -330q0 -256 60 -407z" />
    <glyph glyph-name="N" unicode="N" horiz-adv-x="502" 
d="M487 737q-58 -79 -58 -357q0 -196 24 -380q-29 -3 -61 -3q-42 0 -78 3l-86.5 243.5t-97.5 248.5q-3 -60 -3 -121q0 -118 13.5 -210t47.5 -161q-18 -2 -37.5 -3t-39.5 -1q-15 0 -39 1t-57 3q28 69 43 169t15 233q0 110 -11.5 193.5t-36.5 142.5q40 3 82 3q44 0 86 -3
l17 -55t12 -38q1 49 41 77t112 28q22 0 49.5 -3.5t62.5 -9.5zM369 274q9 115 9 254q0 115 -53 115q-17 0 -28.5 -12t-11.5 -30q0 -17 9.5 -27t22.5 -10q19 0 22 23q10 -13 10 -30q0 -24 -13 -37.5t-36 -13.5q-14 0 -30 11q43 -125 99 -243z" />
    <glyph glyph-name="Ntilde" unicode="&#xd1;" horiz-adv-x="502" 
d="M487 737q-58 -79 -58 -357q0 -196 24 -380q-29 -3 -61 -3q-42 0 -78 3l-86.5 243.5t-97.5 248.5q-3 -60 -3 -121q0 -118 13.5 -210t47.5 -161q-18 -2 -37.5 -3t-39.5 -1q-15 0 -39 1t-57 3q28 69 43 169t15 233q0 110 -11.5 193.5t-36.5 142.5q40 3 82 3q44 0 86 -3
l17 -55t12 -38q1 49 41 77t112 28q22 0 49.5 -3.5t62.5 -9.5zM369 274q9 115 9 254q0 115 -53 115q-17 0 -28.5 -12t-11.5 -30q0 -17 9.5 -27t22.5 -10q19 0 22 23q10 -13 10 -30q0 -24 -13 -37.5t-36 -13.5q-14 0 -30 11q43 -125 99 -243zM391 953q-18 -156 -94 -156
q-15 0 -27.5 4.5t-24 10t-22.5 10t-23 4.5q-49 0 -73 -58q8 78 32.5 117.5t60.5 39.5q15 0 28 -5t25.5 -11t24.5 -11t26 -5q51 0 67 60z" />
    <glyph glyph-name="O" unicode="O" horiz-adv-x="463" 
d="M286 480q-6 -41 -40 -41q-26 0 -42.5 27t-16.5 78q0 36 9.5 65.5t25.5 51t37 33.5t44 12q63 0 101.5 -85t38.5 -249q0 -91 -16 -162.5t-44 -121t-66.5 -76t-83.5 -26.5q-48 0 -87.5 25t-67.5 73t-43 118.5t-15 160.5q0 91 16.5 164.5t44.5 125t66 79t80 27.5q40 0 65 -32
q-17 7 -31 7q-108 0 -108 -297q0 -151 17.5 -225.5t65.5 -74.5q40 0 58 56t18 170q0 88 -9 132t-33 44q-12 0 -20 -9t-8 -22q0 -30 24 -30q13 0 17 16q3 -11 3 -14z" />
    <glyph glyph-name="OE" unicode="&#x152;" horiz-adv-x="680" 
d="M650 322q3 -69 3 -138q0 -46 -1.5 -92t-3.5 -92q-49 -2 -98.5 -3t-100.5 -1q-83 0 -168 3q-26 -10 -50 -10q-46 0 -84.5 25t-66.5 73.5t-44 118.5t-16 160q0 92 16.5 165.5t45 124.5t66 78t79.5 27q40 0 62 -31q-15 7 -31 7q-32 0 -52.5 -21.5t-32.5 -65.5t-17 -111
t-5 -157q0 -122 21.5 -183t60.5 -61q40 0 57.5 56.5t17.5 171.5q0 90 -8 133t-33 43q-12 0 -19.5 -8.5t-7.5 -22.5q0 -30 23 -30q12 0 17 15q1 -3 1 -6.5v-6.5q0 -41 -38 -41q-26 0 -42 27t-16 78q0 36 9.5 65.5t25 51t36.5 33.5t44 12h11l-5.5 15t-5.5 13q43 4 85.5 5.5
t85.5 1.5t85.5 -1.5t84.5 -5.5q1 -26 1.5 -52.5t0.5 -53.5q0 -45 -1.5 -89t-3.5 -89q-14 112 -46 168.5t-70 56.5t-60 -56t-24 -168q24 67 80 67q42 0 70.5 -39.5t28.5 -107.5q0 -66 -24 -103t-59 -37q-26 0 -41 19.5t-17 57.5q4 -22 24 -22q11 0 19 11.5t8 31.5t-10 31.5
t-24 11.5q-56 0 -56 -140q0 -73 24.5 -113t61.5 -40q47 0 79.5 59.5t47.5 180.5z" />
    <glyph glyph-name="Oacute" unicode="&#xd3;" horiz-adv-x="463" 
d="M286 480q-6 -41 -40 -41q-26 0 -42.5 27t-16.5 78q0 36 9.5 65.5t25.5 51t37 33.5t44 12q63 0 101.5 -85t38.5 -249q0 -91 -16 -162.5t-44 -121t-66.5 -76t-83.5 -26.5q-48 0 -87.5 25t-67.5 73t-43 118.5t-15 160.5q0 91 16.5 164.5t44.5 125t66 79t80 27.5q40 0 65 -32
q-17 7 -31 7q-108 0 -108 -297q0 -151 17.5 -225.5t65.5 -74.5q40 0 58 56t18 170q0 88 -9 132t-33 44q-12 0 -20 -9t-8 -22q0 -30 24 -30q13 0 17 16q3 -11 3 -14zM150 785q73 34 97 93q9 21 16 40.5t15.5 34t20.5 23.5t30 9q17 0 29 -12t12 -32t-14.5 -43t-42.5 -45
t-69 -40t-94 -28z" />
    <glyph glyph-name="Ocircumflex" unicode="&#xd4;" horiz-adv-x="463" 
d="M286 480q-6 -41 -40 -41q-26 0 -42.5 27t-16.5 78q0 36 9.5 65.5t25.5 51t37 33.5t44 12q63 0 101.5 -85t38.5 -249q0 -91 -16 -162.5t-44 -121t-66.5 -76t-83.5 -26.5q-48 0 -87.5 25t-67.5 73t-43 118.5t-15 160.5q0 91 16.5 164.5t44.5 125t66 79t80 27.5q40 0 65 -32
q-17 7 -31 7q-108 0 -108 -297q0 -151 17.5 -225.5t65.5 -74.5q40 0 58 56t18 170q0 88 -9 132t-33 44q-12 0 -20 -9t-8 -22q0 -30 24 -30q13 0 17 16q3 -11 3 -14zM408 787q-51 5 -92 22t-71 46q-66 -60 -163 -68q48 39 89 84t74 98q66 -105 163 -182z" />
    <glyph glyph-name="Odieresis" unicode="&#xd6;" horiz-adv-x="463" 
d="M286 480q-6 -41 -40 -41q-26 0 -42.5 27t-16.5 78q0 36 9.5 65.5t25.5 51t37 33.5t44 12q63 0 101.5 -85t38.5 -249q0 -91 -16 -162.5t-44 -121t-66.5 -76t-83.5 -26.5q-48 0 -87.5 25t-67.5 73t-43 118.5t-15 160.5q0 91 16.5 164.5t44.5 125t66 79t80 27.5q40 0 65 -32
q-17 7 -31 7q-108 0 -108 -297q0 -151 17.5 -225.5t65.5 -74.5q40 0 58 56t18 170q0 88 -9 132t-33 44q-12 0 -20 -9t-8 -22q0 -30 24 -30q13 0 17 16q3 -11 3 -14zM430 866q0 -32 -22.5 -54.5t-55.5 -22.5q-32 0 -54.5 22.5t-22.5 54.5q0 33 22.5 55.5t54.5 22.5
q33 0 55.5 -22.5t22.5 -55.5zM220 866q0 -32 -22.5 -54.5t-54.5 -22.5q-33 0 -55.5 22.5t-22.5 54.5q0 33 22.5 55.5t55.5 22.5q16 0 30 -6t24.5 -16.5t16.5 -25t6 -30.5z" />
    <glyph glyph-name="Ograve" unicode="&#xd2;" horiz-adv-x="463" 
d="M286 480q-6 -41 -40 -41q-26 0 -42.5 27t-16.5 78q0 36 9.5 65.5t25.5 51t37 33.5t44 12q63 0 101.5 -85t38.5 -249q0 -91 -16 -162.5t-44 -121t-66.5 -76t-83.5 -26.5q-48 0 -87.5 25t-67.5 73t-43 118.5t-15 160.5q0 91 16.5 164.5t44.5 125t66 79t80 27.5q40 0 65 -32
q-17 7 -31 7q-108 0 -108 -297q0 -151 17.5 -225.5t65.5 -74.5q40 0 58 56t18 170q0 88 -9 132t-33 44q-12 0 -20 -9t-8 -22q0 -30 24 -30q13 0 17 16q3 -11 3 -14zM336 788q-54 10 -95 28t-69 39.5t-42.5 45t-14.5 43.5q0 18 12.5 30.5t29.5 12.5q29 0 44.5 -23t29.5 -64
q15 -42 40.5 -69.5t64.5 -42.5z" />
    <glyph glyph-name="Oslash" unicode="&#xd8;" horiz-adv-x="502" 
d="M482 747q-13 -41 -30 -80t-38 -78q14 -51 20 -102t6 -105q0 -94 -17 -167t-45.5 -123t-66.5 -76t-80 -26q-65 0 -119 54q-7 -17 -11.5 -34t-8.5 -35q-8 1 -15.5 1h-15.5h-14.5t-14.5 -1q8 29 20 58.5t26 58.5q-32 63 -45 130t-13 144q0 92 16.5 165.5t45 124.5t66 78.5
t79.5 27.5q39 0 62 -32q-15 7 -31 7q-32 0 -52.5 -21.5t-32.5 -65.5t-17 -110.5t-5 -156.5q0 -38 2.5 -72.5t7.5 -66.5l71.5 115.5l70.5 115.5q-2 67 -36 67q-11 0 -19 -8.5t-8 -22.5q0 -30 23 -30q13 0 17 16q1 -3 1 -6.5v-6.5q0 -42 -38 -42q-26 0 -42 27t-16 78
q0 36 9.5 66t25 51.5t36.5 33.5t44 12q56 0 92 -67q24 49 37 104q8 0 14.5 -0.5t12.5 -0.5q7 0 13.5 0.5t12.5 0.5zM177 188q21 -50 56 -50q40 0 57.5 56.5t17.5 171.5v18t-1 25l-67.5 -109.5t-62.5 -111.5z" />
    <glyph glyph-name="Otilde" unicode="&#xd5;" horiz-adv-x="463" 
d="M286 480q-6 -41 -40 -41q-26 0 -42.5 27t-16.5 78q0 36 9.5 65.5t25.5 51t37 33.5t44 12q63 0 101.5 -85t38.5 -249q0 -91 -16 -162.5t-44 -121t-66.5 -76t-83.5 -26.5q-48 0 -87.5 25t-67.5 73t-43 118.5t-15 160.5q0 91 16.5 164.5t44.5 125t66 79t80 27.5q40 0 65 -32
q-17 7 -31 7q-108 0 -108 -297q0 -151 17.5 -225.5t65.5 -74.5q40 0 58 56t18 170q0 88 -9 132t-33 44q-12 0 -20 -9t-8 -22q0 -30 24 -30q13 0 17 16q3 -11 3 -14zM376 953q-18 -156 -94 -156q-15 0 -27.5 4.5t-24 10t-22.5 10t-23 4.5q-49 0 -73 -58q8 78 32.5 117.5
t60.5 39.5q15 0 28 -5t25.5 -11t24.5 -11t26 -5q51 0 67 60z" />
    <glyph glyph-name="P" unicode="P" horiz-adv-x="431" 
d="M21 729q48 6 89 9.5t75 3.5q129 0 190 -60t61 -190q0 -114 -39 -176t-103 -62q-68 0 -105 72v-14q0 -101 11.5 -178.5t39.5 -133.5q-24 -2 -50.5 -3.5t-57.5 -1.5q-30 0 -58 1t-54 4q55 157 55 395q0 112 -13 194.5t-41 139.5zM259 462q0 28 -22 28q-14 0 -23 -14.5
t-9 -40.5q0 -27 12.5 -43.5t31.5 -16.5q31 0 43 32t12 98q0 77 -18 116.5t-49 39.5q-23 0 -36.5 -23t-13.5 -68v-10t1 -13q16 27 42 27q19 0 33.5 -17t14.5 -45q0 -29 -19 -55v5v0z" />
    <glyph glyph-name="Q" unicode="Q" horiz-adv-x="474" 
d="M211 -14q-93 5 -142 104t-49 289q0 88 16.5 157.5t46.5 118t71 74.5t90 26q98 0 154 -97t56 -284q0 -155 -42 -253t-109 -127q6 -50 44 -50q18 0 28.5 11t10.5 28q0 11 -6 22q50 -22 50 -72q0 -43 -29.5 -72t-72.5 -29q-54 0 -85.5 39t-31.5 112v3v0zM285 122
q17 45 25.5 110.5t8.5 150.5q0 257 -79 257q-38 0 -61 -65t-23 -192q0 -75 6 -145q15 44 52 44q71 0 71 -140v-20v0zM213 100q6 36 6 54q0 49 -23 49q-9 0 -16 -9t-7 -25q0 -22 10.5 -40.5t29.5 -28.5z" />
    <glyph glyph-name="R" unicode="R" horiz-adv-x="482" 
d="M440 326q37 -73 37 -143q0 -97 -27.5 -147t-76.5 -50q-99 0 -99 164q0 23 2.5 48.5t2.5 52.5q0 66 -31 66q-22 0 -36.5 -29.5t-14.5 -87.5q0 -60 10 -109t34 -91q-57 -6 -121 -6q-52 0 -100 6q39 89 50.5 186.5t11.5 209.5t-14 195t-46 141q111 12 177 12
q128 0 191 -47.5t63 -147.5q0 -131 -113 -165q26 -15 32 -35.5t11 -46.5q4 -20 10.5 -30.5t21.5 -10.5q11 0 19 12.5t8 32.5q0 3 -0.5 8t-1.5 12zM275 482q0 22 -22 22q-14 0 -24 -13t-10 -36t13 -37t30 -14q26 0 41 30.5t15 90.5q0 65 -19.5 100t-51.5 35q-23 0 -37 -19
t-14 -54q0 -15 3 -30q19 25 45 25q20 0 34 -15.5t14 -43.5q0 -23 -17 -46v5v0z" />
    <glyph glyph-name="S" unicode="S" horiz-adv-x="442" 
d="M394 464q-18 100 -55.5 151t-88.5 51q-35 0 -55 -18.5t-20 -49.5q0 -20 10 -37t28 -34.5t43 -36l55 -42.5q68 -54 102 -108.5t34 -125.5q0 -50 -17 -92t-47 -72t-72 -47t-91 -17q-48 0 -89.5 16.5t-71.5 46t-47 69t-17 85.5q0 78 40.5 123t125.5 65q-57 48 -85 92.5
t-28 97.5q0 37 13 69t36 54.5t53.5 35.5t66.5 13q24 0 43.5 -5.5t36 -12.5l29.5 -12.5t24 -5.5q27 0 42 29v-114t2 -168zM217 208q4 9 4 16q0 15 -10 25t-27 10q-20 0 -33.5 -15.5t-13.5 -41.5q0 -33 23 -55t61 -22q39 0 65 26.5t26 66.5q0 36 -20.5 65.5t-59.5 64.5
q12 -14 17 -29.5t5 -34.5q0 -45 -37 -76z" />
    <glyph glyph-name="Scaron" unicode="&#x160;" horiz-adv-x="442" 
d="M394 464q-18 100 -55.5 151t-88.5 51q-35 0 -55 -18.5t-20 -49.5q0 -20 10 -37t28 -34.5t43 -36l55 -42.5q68 -54 102 -108.5t34 -125.5q0 -50 -17 -92t-47 -72t-72 -47t-91 -17q-48 0 -89.5 16.5t-71.5 46t-47 69t-17 85.5q0 78 40.5 123t125.5 65q-57 48 -85 92.5
t-28 97.5q0 37 13 69t36 54.5t53.5 35.5t66.5 13q24 0 43.5 -5.5t36 -12.5l29.5 -12.5t24 -5.5q27 0 42 29v-114t2 -168zM217 208q4 9 4 16q0 15 -10 25t-27 10q-20 0 -33.5 -15.5t-13.5 -41.5q0 -33 23 -55t61 -22q39 0 65 26.5t26 66.5q0 36 -20.5 65.5t-59.5 64.5
q12 -14 17 -29.5t5 -34.5q0 -45 -37 -76zM417 928q-66 -57 -119 -123q-11 2 -22 2h-22h-21.5t-21.5 -2q-27 33 -56.5 63.5t-62.5 59.5q100 -12 163 -69q68 61 162 69z" />
    <glyph glyph-name="T" unicode="T" horiz-adv-x="458" 
d="M429 738q9 -68 14 -121t5 -92q0 -85 -22.5 -129t-61.5 -44q-28 0 -48 22.5t-20 60.5q0 34 12.5 52t32.5 18q24 0 27 -29l-8 6q-10 -4 -13.5 -8.5t-3.5 -14.5q0 -9 5.5 -15t13.5 -6q11 0 17.5 17.5t6.5 52.5q0 60 -13 92t-34 32q-30 0 -42 -50t-12 -150q0 -62 2.5 -119.5
t10.5 -111t21.5 -103.5t36.5 -98q-65 -6 -130 -6q-63 0 -124 6q41 87 56 191.5t15 232.5q0 104 -14 156t-40 52q-21 0 -34.5 -32t-13.5 -92q0 -70 24 -70q19 0 19 23q0 14 -16 21l-8 -6q3 29 26 29q21 0 33 -18t12 -52q0 -37 -20 -60t-48 -23q-39 0 -61 44t-22 129
q0 39 5 92t14 121q53 2 102.5 3.5t96.5 1.5t97 -1.5t104 -3.5z" />
    <glyph glyph-name="Thorn" unicode="&#xde;" horiz-adv-x="422" 
d="M169 601q27 24 67 24q36 0 67.5 -16t54.5 -45.5t36 -71.5t13 -94q0 -115 -38 -176t-99 -61q-73 0 -105 65q1 -61 13 -117t38 -109q-27 -2 -54.5 -3.5t-55.5 -1.5t-55 1.5t-55 3.5q26 79 40.5 174.5t14.5 207.5q0 233 -56 354q28 3 55 4t54 1t53 -1t52 -4
q-35 -63 -40 -135zM234 356q0 24 -21 24q-14 0 -23.5 -14t-9.5 -40q0 -27 12.5 -42.5t31.5 -15.5q27 0 43.5 37t16.5 109q0 66 -20.5 103t-45.5 37q-24 0 -40 -24.5t-16 -71.5q0 -5 0.5 -9t0.5 -9q16 27 43 27q20 0 34 -16.5t14 -45.5t-20 -55v6z" />
    <glyph glyph-name="U" unicode="U" horiz-adv-x="472" 
d="M482 737q-38 -45 -52.5 -113t-14.5 -164q0 -34 1.5 -73.5t1.5 -85.5q0 -157 -46 -236t-136 -79q-93 0 -134.5 73.5t-41.5 225.5q0 49 3 97.5t3 98.5q0 88 -12 151t-44 106q31 2 59.5 3.5t54.5 1.5q27 0 56.5 -1.5t62.5 -3.5q-38 -46 -49.5 -135t-11.5 -225
q0 -125 15.5 -186.5t61.5 -61.5q28 0 44.5 21.5t25.5 65.5t12 111t3 157q0 63 -7.5 94t-30.5 31q-12 0 -20.5 -9t-8.5 -23t6.5 -22t16.5 -8q15 0 18 16q3 -8 3 -14q0 -19 -12 -30.5t-30 -11.5q-27 0 -43.5 22.5t-16.5 62.5q0 69 44 111.5t121 42.5q18 0 42 -2.5t56 -7.5z
" />
    <glyph glyph-name="Uacute" unicode="&#xda;" horiz-adv-x="472" 
d="M482 737q-38 -45 -52.5 -113t-14.5 -164q0 -34 1.5 -73.5t1.5 -85.5q0 -157 -46 -236t-136 -79q-93 0 -134.5 73.5t-41.5 225.5q0 49 3 97.5t3 98.5q0 88 -12 151t-44 106q31 2 59.5 3.5t54.5 1.5q27 0 56.5 -1.5t62.5 -3.5q-38 -46 -49.5 -135t-11.5 -225
q0 -125 15.5 -186.5t61.5 -61.5q28 0 44.5 21.5t25.5 65.5t12 111t3 157q0 63 -7.5 94t-30.5 31q-12 0 -20.5 -9t-8.5 -23t6.5 -22t16.5 -8q15 0 18 16q3 -8 3 -14q0 -19 -12 -30.5t-30 -11.5q-27 0 -43.5 22.5t-16.5 62.5q0 69 44 111.5t121 42.5q18 0 42 -2.5t56 -7.5z
M154 785q73 34 97 93q9 21 16 40.5t15.5 34t20.5 23.5t30 9q17 0 29 -12t12 -32t-14.5 -43t-42.5 -45t-69 -40t-94 -28z" />
    <glyph glyph-name="Ucircumflex" unicode="&#xdb;" horiz-adv-x="472" 
d="M482 737q-38 -45 -52.5 -113t-14.5 -164q0 -34 1.5 -73.5t1.5 -85.5q0 -157 -46 -236t-136 -79q-93 0 -134.5 73.5t-41.5 225.5q0 49 3 97.5t3 98.5q0 88 -12 151t-44 106q31 2 59.5 3.5t54.5 1.5q27 0 56.5 -1.5t62.5 -3.5q-38 -46 -49.5 -135t-11.5 -225
q0 -125 15.5 -186.5t61.5 -61.5q28 0 44.5 21.5t25.5 65.5t12 111t3 157q0 63 -7.5 94t-30.5 31q-12 0 -20.5 -9t-8.5 -23t6.5 -22t16.5 -8q15 0 18 16q3 -8 3 -14q0 -19 -12 -30.5t-30 -11.5q-27 0 -43.5 22.5t-16.5 62.5q0 69 44 111.5t121 42.5q18 0 42 -2.5t56 -7.5z
M412 787q-51 5 -92 22t-71 46q-66 -60 -163 -68q48 39 89 84t74 98q66 -105 163 -182z" />
    <glyph glyph-name="Udieresis" unicode="&#xdc;" horiz-adv-x="472" 
d="M482 737q-38 -45 -52.5 -113t-14.5 -164q0 -34 1.5 -73.5t1.5 -85.5q0 -157 -46 -236t-136 -79q-93 0 -134.5 73.5t-41.5 225.5q0 49 3 97.5t3 98.5q0 88 -12 151t-44 106q31 2 59.5 3.5t54.5 1.5q27 0 56.5 -1.5t62.5 -3.5q-38 -46 -49.5 -135t-11.5 -225
q0 -125 15.5 -186.5t61.5 -61.5q28 0 44.5 21.5t25.5 65.5t12 111t3 157q0 63 -7.5 94t-30.5 31q-12 0 -20.5 -9t-8.5 -23t6.5 -22t16.5 -8q15 0 18 16q3 -8 3 -14q0 -19 -12 -30.5t-30 -11.5q-27 0 -43.5 22.5t-16.5 62.5q0 69 44 111.5t121 42.5q18 0 42 -2.5t56 -7.5z
M434 866q0 -32 -22.5 -54.5t-55.5 -22.5q-32 0 -54.5 22.5t-22.5 54.5q0 33 22.5 55.5t54.5 22.5q33 0 55.5 -22.5t22.5 -55.5zM224 866q0 -32 -22.5 -54.5t-54.5 -22.5q-33 0 -55.5 22.5t-22.5 54.5q0 33 22.5 55.5t55.5 22.5q16 0 30 -6t24.5 -16.5t16.5 -25t6 -30.5z" />
    <glyph glyph-name="Ugrave" unicode="&#xd9;" horiz-adv-x="472" 
d="M482 737q-38 -45 -52.5 -113t-14.5 -164q0 -34 1.5 -73.5t1.5 -85.5q0 -157 -46 -236t-136 -79q-93 0 -134.5 73.5t-41.5 225.5q0 49 3 97.5t3 98.5q0 88 -12 151t-44 106q31 2 59.5 3.5t54.5 1.5q27 0 56.5 -1.5t62.5 -3.5q-38 -46 -49.5 -135t-11.5 -225
q0 -125 15.5 -186.5t61.5 -61.5q28 0 44.5 21.5t25.5 65.5t12 111t3 157q0 63 -7.5 94t-30.5 31q-12 0 -20.5 -9t-8.5 -23t6.5 -22t16.5 -8q15 0 18 16q3 -8 3 -14q0 -19 -12 -30.5t-30 -11.5q-27 0 -43.5 22.5t-16.5 62.5q0 69 44 111.5t121 42.5q18 0 42 -2.5t56 -7.5z
M340 788q-54 10 -95 28t-69 39.5t-42.5 45t-14.5 43.5q0 18 12.5 30.5t29.5 12.5q29 0 44.5 -23t29.5 -64q15 -42 40.5 -69.5t64.5 -42.5z" />
    <glyph glyph-name="V" unicode="V" horiz-adv-x="479" 
d="M489 726q-61 -109 -108.5 -292t-67.5 -434q-18 -2 -38.5 -3.5t-43.5 -1.5q-25 0 -46.5 1.5t-41.5 3.5q-11 255 -51 440t-97 298q32 2 61 3.5t56 1.5q26 0 55.5 -1.5t61.5 -3.5q-17 -42 -23 -86.5t-6 -94.5q0 -98 13.5 -188t39.5 -171q34 112 51.5 194.5t17.5 139.5
q0 37 -7.5 55.5t-25.5 18.5q-28 0 -28 -32q0 -20 15 -34q-23 5 -37.5 25.5t-14.5 50.5q0 27 12 50.5t33.5 40.5t51.5 26.5t67 9.5q24 0 49.5 -4.5t51.5 -12.5z" />
    <glyph glyph-name="W" unicode="W" horiz-adv-x="689" 
d="M699 728q-104 -169 -158 -728q-23 -1 -41 -1.5t-32 -0.5t-33 0.5t-43 1.5q0 85 -12.5 173t-36.5 182q-53 -180 -55 -355q-24 -1 -41 -1.5t-28 -0.5t-29.5 0.5t-44.5 1.5q-20 266 -57 449.5t-93 288.5q38 2 68.5 3t55.5 1q29 0 56 -1t54 -3q-17 -38 -23.5 -78.5
t-6.5 -85.5q0 -66 12 -146t35 -176q27 81 41 158.5t14 154.5q0 57 -7.5 99.5t-24.5 73.5q26 2 51 3t51 1t50.5 -1t50.5 -3q-17 -39 -24 -80.5t-7 -87.5q0 -158 57 -318q32 110 47 189.5t15 129.5q0 58 -28 58q-10 0 -16.5 -7.5t-6.5 -19.5q0 -17 12 -28q-20 4 -31.5 20.5
t-11.5 42.5q0 46 37.5 75.5t99.5 29.5q20 0 40.5 -3.5t43.5 -10.5z" />
    <glyph glyph-name="X" unicode="X" horiz-adv-x="486" 
d="M491 0q-26 -2 -44.5 -3t-32.5 -1q-68 0 -117.5 1t-80.5 3q17 19 23.5 39.5t6.5 46.5q0 41 -13 91.5t-40 110.5q-47 -76 -47 -159q0 -36 8 -67.5t26 -61.5q-23 -3 -46.5 -3.5t-49.5 -0.5q-25 0 -47 1t-42 3q41 66 69.5 125t46.5 108t26.5 87t8.5 62q0 60 -33 149.5
t-103 206.5l62.5 4t63.5 2q31 0 61 -2l59 -4q-21 -57 -21 -111q0 -45 11.5 -83t33.5 -66q49 56 49 114q0 19 -7.5 29t-18.5 10t-18 -8t-7 -19q0 -17 14 -28q-23 9 -33 24t-10 39q0 46 37.5 75.5t99.5 29.5q23 0 45.5 -3.5t47.5 -10.5q-150 -228 -150 -364q0 -156 162 -366z
" />
    <glyph glyph-name="Y" unicode="Y" horiz-adv-x="456" 
d="M466 728q-53 -63 -95 -176q-42 -109 -59 -200.5t-17 -152.5q0 -124 42 -199q-23 -5 -48.5 -6.5t-54.5 -1.5q-31 0 -60 1.5t-55 6.5q20 48 29.5 97t9.5 102q0 131 -42 263.5t-126 275.5q72 6 130 6q29 0 58 -1t58 -5q-16 -25 -22.5 -51t-6.5 -56q0 -104 65 -239
q20 66 31 115.5t11 84.5q0 49 -26 49q-27 0 -27 -28q0 -14 12 -26q-23 10 -33 24.5t-10 37.5q0 46 36 73t97 27q49 0 103 -21z" />
    <glyph glyph-name="Yacute" unicode="&#xdd;" horiz-adv-x="456" 
d="M466 728q-53 -63 -95 -176q-42 -109 -59 -200.5t-17 -152.5q0 -124 42 -199q-23 -5 -48.5 -6.5t-54.5 -1.5q-31 0 -60 1.5t-55 6.5q20 48 29.5 97t9.5 102q0 131 -42 263.5t-126 275.5q72 6 130 6q29 0 58 -1t58 -5q-16 -25 -22.5 -51t-6.5 -56q0 -104 65 -239
q20 66 31 115.5t11 84.5q0 49 -26 49q-27 0 -27 -28q0 -14 12 -26q-23 10 -33 24.5t-10 37.5q0 46 36 73t97 27q49 0 103 -21zM146 785q73 34 97 93q9 21 16 40.5t15.5 34t20.5 23.5t30 9q17 0 29 -12t12 -32t-14.5 -43t-42.5 -45t-69 -40t-94 -28z" />
    <glyph glyph-name="Ydieresis" unicode="&#x178;" horiz-adv-x="456" 
d="M466 728q-53 -63 -95 -176q-42 -109 -59 -200.5t-17 -152.5q0 -124 42 -199q-23 -5 -48.5 -6.5t-54.5 -1.5q-31 0 -60 1.5t-55 6.5q20 48 29.5 97t9.5 102q0 131 -42 263.5t-126 275.5q72 6 130 6q29 0 58 -1t58 -5q-16 -25 -22.5 -51t-6.5 -56q0 -104 65 -239
q20 66 31 115.5t11 84.5q0 49 -26 49q-27 0 -27 -28q0 -14 12 -26q-23 10 -33 24.5t-10 37.5q0 46 36 73t97 27q49 0 103 -21zM426 866q0 -32 -22.5 -54.5t-55.5 -22.5q-32 0 -54.5 22.5t-22.5 54.5q0 33 22.5 55.5t54.5 22.5q33 0 55.5 -22.5t22.5 -55.5zM216 866
q0 -32 -22.5 -54.5t-54.5 -22.5q-33 0 -55.5 22.5t-22.5 54.5q0 33 22.5 55.5t55.5 22.5q16 0 30 -6t24.5 -16.5t16.5 -25t6 -30.5z" />
    <glyph glyph-name="Z" unicode="Z" horiz-adv-x="430" 
d="M381 312q49 -48 49 -146q0 -41 -10 -74.5t-27.5 -57t-41.5 -36t-52 -12.5q-45 0 -77 27t-59 82l-21 45t-17 34t-16.5 22t-19.5 8q-17 0 -29 -16.5t-12 -45.5q0 -27 10 -47v5q0 24 10 37.5t24 13.5q19 0 31 -19t12 -52q0 -44 -16.5 -69t-41.5 -25q-28 0 -47 36t-19 102
q0 91 32.5 161t101.5 128q35 29 77 56t86 59q55 41 76 102q-32 -50 -77 -50q-18 0 -34.5 5.5t-32 11.5l-30 11.5t-27.5 5.5q-22 0 -35.5 -14t-13.5 -38q0 -20 11.5 -33t26.5 -13q24 0 31 28v-4q0 -47 -23.5 -72.5t-65.5 -25.5q-23 0 -44 10.5t-36.5 29.5t-24.5 45.5t-9 57.5
q0 37 11 68t30.5 53.5t45 35t54.5 12.5q22 0 40 -6t34 -16.5t31 -24l32 -28.5q18 -17 34 -26t33 -9q23 0 36.5 20.5t13.5 61.5q0 4 -0.5 7.5t-0.5 7.5q17 -26 25 -53.5t8 -57.5q0 -41 -10.5 -71.5t-31.5 -55t-52 -44t-73 -37.5l-71.5 -32t-57.5 -34.5t-41 -47t-22 -67.5
q17 51 40 77t48 26q17 0 30 -9t27 -27l24 -30t22.5 -24.5t25.5 -16.5t32 -6q28 0 47 18.5t19 46.5q0 2 -0.5 6t-1.5 10z" />
    <glyph glyph-name="Zcaron" unicode="&#x17d;" horiz-adv-x="430" 
d="M381 312q49 -48 49 -146q0 -41 -10 -74.5t-27.5 -57t-41.5 -36t-52 -12.5q-45 0 -77 27t-59 82l-21 45t-17 34t-16.5 22t-19.5 8q-17 0 -29 -16.5t-12 -45.5q0 -27 10 -47v5q0 24 10 37.5t24 13.5q19 0 31 -19t12 -52q0 -44 -16.5 -69t-41.5 -25q-28 0 -47 36t-19 102
q0 91 32.5 161t101.5 128q35 29 77 56t86 59q55 41 76 102q-32 -50 -77 -50q-18 0 -34.5 5.5t-32 11.5l-30 11.5t-27.5 5.5q-22 0 -35.5 -14t-13.5 -38q0 -20 11.5 -33t26.5 -13q24 0 31 28v-4q0 -47 -23.5 -72.5t-65.5 -25.5q-23 0 -44 10.5t-36.5 29.5t-24.5 45.5t-9 57.5
q0 37 11 68t30.5 53.5t45 35t54.5 12.5q22 0 40 -6t34 -16.5t31 -24l32 -28.5q18 -17 34 -26t33 -9q23 0 36.5 20.5t13.5 61.5q0 4 -0.5 7.5t-0.5 7.5q17 -26 25 -53.5t8 -57.5q0 -41 -10.5 -71.5t-31.5 -55t-52 -44t-73 -37.5l-71.5 -32t-57.5 -34.5t-41 -47t-22 -67.5
q17 51 40 77t48 26q17 0 30 -9t27 -27l24 -30t22.5 -24.5t25.5 -16.5t32 -6q28 0 47 18.5t19 46.5q0 2 -0.5 6t-1.5 10zM392 928q-66 -57 -119 -123q-11 2 -22 2h-22h-21.5t-21.5 -2q-27 33 -56.5 63.5t-62.5 59.5q100 -12 163 -69q68 61 162 69z" />
    <glyph glyph-name="a" unicode="a" horiz-adv-x="371" 
d="M350 260q12 -27 16.5 -55.5t4.5 -60.5q0 -75 -25 -116t-65 -41q-33 0 -53 31t-24 92q-24 -123 -101 -123q-43 0 -73 41.5t-30 111.5q0 34 6.5 60t21 45t36.5 32.5t54 23.5q25 8 43.5 17.5t30.5 24.5t17.5 36.5t5.5 52.5q0 51 -19 79.5t-48 28.5q-22 0 -38 -18t-16 -47
q0 -16 7 -25t18 -9q9 0 15 9t6 26q0 16 -9 28q23 -6 38 -29t15 -53q0 -43 -20 -67t-52 -24q-33 0 -55 26t-22 68q0 30 10.5 55t29.5 44t43.5 29.5t53.5 10.5q72 0 115.5 -52t43.5 -142q0 -33 -5 -65t-5 -63q0 -26 16 -26q14 0 14 30v6.5t-1 7.5zM222 356q-8 -37 -23.5 -54.5
t-41.5 -32.5q-8 -5 -16.5 -8.5t-16 -8t-12 -11t-4.5 -17.5q0 -38 38 -38q76 0 76 160v10z" />
    <glyph glyph-name="aacute" unicode="&#xe1;" horiz-adv-x="371" 
d="M350 260q12 -27 16.5 -55.5t4.5 -60.5q0 -75 -25 -116t-65 -41q-33 0 -53 31t-24 92q-24 -123 -101 -123q-43 0 -73 41.5t-30 111.5q0 34 6.5 60t21 45t36.5 32.5t54 23.5q25 8 43.5 17.5t30.5 24.5t17.5 36.5t5.5 52.5q0 51 -19 79.5t-48 28.5q-22 0 -38 -18t-16 -47
q0 -16 7 -25t18 -9q9 0 15 9t6 26q0 16 -9 28q23 -6 38 -29t15 -53q0 -43 -20 -67t-52 -24q-33 0 -55 26t-22 68q0 30 10.5 55t29.5 44t43.5 29.5t53.5 10.5q72 0 115.5 -52t43.5 -142q0 -33 -5 -65t-5 -63q0 -26 16 -26q14 0 14 30v6.5t-1 7.5zM222 356q-8 -37 -23.5 -54.5
t-41.5 -32.5q-8 -5 -16.5 -8.5t-16 -8t-12 -11t-4.5 -17.5q0 -38 38 -38q76 0 76 160v10zM92 604q73 34 97 93q9 21 16 40.5t15.5 34t20.5 23.5t30 9q17 0 29 -12t12 -32t-14.5 -43t-42.5 -45t-69 -40t-94 -28z" />
    <glyph glyph-name="acircumflex" unicode="&#xe2;" horiz-adv-x="371" 
d="M350 260q12 -27 16.5 -55.5t4.5 -60.5q0 -75 -25 -116t-65 -41q-33 0 -53 31t-24 92q-24 -123 -101 -123q-43 0 -73 41.5t-30 111.5q0 34 6.5 60t21 45t36.5 32.5t54 23.5q25 8 43.5 17.5t30.5 24.5t17.5 36.5t5.5 52.5q0 51 -19 79.5t-48 28.5q-22 0 -38 -18t-16 -47
q0 -16 7 -25t18 -9q9 0 15 9t6 26q0 16 -9 28q23 -6 38 -29t15 -53q0 -43 -20 -67t-52 -24q-33 0 -55 26t-22 68q0 30 10.5 55t29.5 44t43.5 29.5t53.5 10.5q72 0 115.5 -52t43.5 -142q0 -33 -5 -65t-5 -63q0 -26 16 -26q14 0 14 30v6.5t-1 7.5zM222 356q-8 -37 -23.5 -54.5
t-41.5 -32.5q-8 -5 -16.5 -8.5t-16 -8t-12 -11t-4.5 -17.5q0 -38 38 -38q76 0 76 160v10zM350 606q-51 5 -92 22t-71 46q-66 -60 -163 -68q48 39 89 84t74 98q66 -105 163 -182z" />
    <glyph glyph-name="acute" unicode="&#xb4;" 
d="M164 604q73 34 97 93q9 21 16 40.5t15.5 34t20.5 23.5t30 9q17 0 29 -12t12 -32t-14.5 -43t-42.5 -45t-69 -40t-94 -28z" />
    <glyph glyph-name="adieresis" unicode="&#xe4;" horiz-adv-x="371" 
d="M350 260q12 -27 16.5 -55.5t4.5 -60.5q0 -75 -25 -116t-65 -41q-33 0 -53 31t-24 92q-24 -123 -101 -123q-43 0 -73 41.5t-30 111.5q0 34 6.5 60t21 45t36.5 32.5t54 23.5q25 8 43.5 17.5t30.5 24.5t17.5 36.5t5.5 52.5q0 51 -19 79.5t-48 28.5q-22 0 -38 -18t-16 -47
q0 -16 7 -25t18 -9q9 0 15 9t6 26q0 16 -9 28q23 -6 38 -29t15 -53q0 -43 -20 -67t-52 -24q-33 0 -55 26t-22 68q0 30 10.5 55t29.5 44t43.5 29.5t53.5 10.5q72 0 115.5 -52t43.5 -142q0 -33 -5 -65t-5 -63q0 -26 16 -26q14 0 14 30v6.5t-1 7.5zM222 356q-8 -37 -23.5 -54.5
t-41.5 -32.5q-8 -5 -16.5 -8.5t-16 -8t-12 -11t-4.5 -17.5q0 -38 38 -38q76 0 76 160v10zM372 685q0 -32 -22.5 -54.5t-55.5 -22.5q-32 0 -54.5 22.5t-22.5 54.5q0 33 22.5 55.5t54.5 22.5q33 0 55.5 -22.5t22.5 -55.5zM162 685q0 -32 -22.5 -54.5t-54.5 -22.5
q-33 0 -55.5 22.5t-22.5 54.5q0 33 22.5 55.5t55.5 22.5q16 0 30 -6t24.5 -16.5t16.5 -25t6 -30.5z" />
    <glyph glyph-name="ae" unicode="&#xe6;" horiz-adv-x="524" 
d="M515 309q4 -24 6 -47t2 -44q0 -51 -11 -91.5t-30 -68.5t-45.5 -43t-57.5 -15q-104 0 -131 151q-7 -73 -41.5 -112t-88.5 -39q-25 0 -46.5 11t-37.5 31t-25 48t-9 63q0 39 8.5 67.5t19.5 41.5q16 19 31 28.5t28.5 14t24.5 6t20 3.5q82 20 82 133q0 51 -18.5 78t-48.5 27
q-22 0 -38 -17.5t-16 -46.5q0 -15 7 -24t18 -9q9 0 15 9t6 26q0 15 -9 27q24 -7 38.5 -29.5t14.5 -55.5q0 -42 -20 -66.5t-52 -24.5q-31 0 -53.5 25.5t-22.5 65.5q0 32 10.5 59t28.5 46t43 29.5t54 10.5q68 0 119 -58q45 58 101 58q25 0 46.5 -11.5t37.5 -33t25 -52t9 -67.5
q0 -75 -24.5 -115.5t-62.5 -40.5q-67 0 -91 93q-3 -23 -3 -42q0 -59 24.5 -92t61.5 -33q36 0 62 31.5t39 94.5zM428 462q0 44 -11.5 67t-28.5 23q-19 0 -32.5 -23.5t-13.5 -65.5t12.5 -64.5t29.5 -22.5q20 0 32 22t12 64zM221 369q-21 -67 -63 -86q-9 -4 -18 -6.5t-16 -6
t-11.5 -10t-4.5 -18.5q0 -16 10 -26t26 -10q34 0 55.5 40t21.5 118v5v0z" />
    <glyph glyph-name="agrave" unicode="&#xe0;" horiz-adv-x="371" 
d="M350 260q12 -27 16.5 -55.5t4.5 -60.5q0 -75 -25 -116t-65 -41q-33 0 -53 31t-24 92q-24 -123 -101 -123q-43 0 -73 41.5t-30 111.5q0 34 6.5 60t21 45t36.5 32.5t54 23.5q25 8 43.5 17.5t30.5 24.5t17.5 36.5t5.5 52.5q0 51 -19 79.5t-48 28.5q-22 0 -38 -18t-16 -47
q0 -16 7 -25t18 -9q9 0 15 9t6 26q0 16 -9 28q23 -6 38 -29t15 -53q0 -43 -20 -67t-52 -24q-33 0 -55 26t-22 68q0 30 10.5 55t29.5 44t43.5 29.5t53.5 10.5q72 0 115.5 -52t43.5 -142q0 -33 -5 -65t-5 -63q0 -26 16 -26q14 0 14 30v6.5t-1 7.5zM222 356q-8 -37 -23.5 -54.5
t-41.5 -32.5q-8 -5 -16.5 -8.5t-16 -8t-12 -11t-4.5 -17.5q0 -38 38 -38q76 0 76 160v10zM278 607q-54 10 -95 28t-69 39.5t-42.5 45t-14.5 43.5q0 18 12.5 30.5t29.5 12.5q29 0 44.5 -23t29.5 -64q15 -42 40.5 -69.5t64.5 -42.5z" />
    <glyph glyph-name="ampersand" unicode="&#x26;" horiz-adv-x="542" 
d="M417 395q-27 3 -41.5 17t-14.5 37q0 32 25.5 54t66.5 22q50 0 82 -33t32 -85q0 -56 -32 -90t-83 -34q-27 0 -53 13q55 -55 55 -122q0 -41 -16 -76.5t-44.5 -61.5t-67.5 -41t-86 -15q-54 0 -98.5 17.5t-76 50.5t-48.5 79.5t-17 103.5q0 75 36.5 128.5t112.5 88.5
q-85 49 -85 145q0 37 13.5 68t38 53.5t58 35.5t74.5 13q38 0 69.5 -12t54.5 -33t35.5 -49.5t12.5 -61.5q0 -47 -27 -76.5t-64 -29.5q-34 0 -54 18.5t-20 45.5q0 36 36 49q-2 -8 -2 -12q0 -8 4.5 -13t10.5 -5q18 0 18 25q0 22 -17.5 38t-44.5 16q-33 0 -53.5 -23t-20.5 -61
q0 -44 21.5 -69t57.5 -25q7 0 21 3q-1 -14 -1 -26.5v-25.5v-25t1 -23q-21 3 -32 3q-21 0 -41 -10.5t-35.5 -29.5t-25 -45.5t-9.5 -57.5q0 -27 8.5 -49.5t23 -38.5t34.5 -25t44 -9q42 0 67.5 24t25.5 61q0 24 -12 38.5t-29 14.5q-13 0 -21 -8t-8 -22t12 -24q-67 18 -67 76
q0 38 27.5 62t75.5 24q11 0 22.5 -0.5t25.5 -0.5q45 0 66 10t21 33q0 11 -7 18.5t-18 7.5t-18 -7.5t-7 -18.5q0 -9 8 -19z" />
    <glyph glyph-name="aring" unicode="&#xe5;" horiz-adv-x="371" 
d="M350 260q12 -27 16.5 -55.5t4.5 -60.5q0 -75 -25 -116t-65 -41q-33 0 -53 31t-24 92q-24 -123 -101 -123q-43 0 -73 41.5t-30 111.5q0 34 6.5 60t21 45t36.5 32.5t54 23.5q25 8 43.5 17.5t30.5 24.5t17.5 36.5t5.5 52.5q0 51 -19 79.5t-48 28.5q-22 0 -38 -18t-16 -47
q0 -16 7 -25t18 -9q9 0 15 9t6 26q0 16 -9 28q23 -6 38 -29t15 -53q0 -43 -20 -67t-52 -24q-33 0 -55 26t-22 68q0 30 10.5 55t29.5 44t43.5 29.5t53.5 10.5q72 0 115.5 -52t43.5 -142q0 -33 -5 -65t-5 -63q0 -26 16 -26q14 0 14 30v6.5t-1 7.5zM222 356q-8 -37 -23.5 -54.5
t-41.5 -32.5q-8 -5 -16.5 -8.5t-16 -8t-12 -11t-4.5 -17.5q0 -38 38 -38q76 0 76 160v10zM281 704q0 -41 -28 -69t-69 -28q-42 0 -70 28t-28 69q0 42 28 70t70 28q41 0 69 -28t28 -70zM240 704q0 24 -16.5 40.5t-39.5 16.5q-24 0 -40.5 -16.5t-16.5 -40.5q0 -23 16.5 -39.5
t40.5 -16.5q23 0 39.5 16.5t16.5 39.5z" />
    <glyph glyph-name="asciicircum" unicode="^" horiz-adv-x="1000" 
d="M794 440h-88l-206 205l-207 -205h-88l249 272h91z" />
    <glyph glyph-name="asciitilde" unicode="~" horiz-adv-x="833" 
d="M747 300q-50 -35 -96 -52t-94 -17q-38 0 -72 11l-69 23t-69 22t-72 10q-45 0 -89.5 -19.5t-98.5 -57.5v76q103 70 189 70q39 0 73.5 -9t68.5 -21l71 -24.5t69 -11.5q47 0 92 19.5t97 56.5v-76v0z" />
    <glyph glyph-name="asterisk" unicode="*" horiz-adv-x="332" 
d="M332 519q-61 17 -119 20q21 -23 45.5 -43t51.5 -39q-32 -27 -53 -61q-15 30 -32 58t-37 54q2 -74 16 -138q-16 4 -38 4q-21 0 -38 -4q15 69 18 137q-42 -53 -70 -112q-25 37 -54 62q26 17 50 37t47 43q-30 -1 -60 -6t-59 -13q3 22 3 44t-3 43q57 -17 119 -20
q-22 23 -46.5 43.5t-50.5 37.5q15 14 28.5 29t24.5 33q28 -57 69 -112q-1 35 -4.5 69t-11.5 69q10 -2 19 -3t19 -1q9 0 18.5 1t18.5 3q-8 -35 -11.5 -69t-5.5 -68q20 27 38 55t32 57q23 -36 53 -62q-26 -17 -50 -37t-47 -43q63 2 120 19q-3 -21 -3 -43t3 -44z" />
    <glyph glyph-name="at" unicode="@" horiz-adv-x="675" 
d="M588 99q-84 -113 -232 -113q-68 0 -129 26.5t-108 75.5q-49 51 -74.5 118.5t-25.5 148.5q0 134 65 237q50 79 127.5 122.5t168.5 43.5q60 0 110.5 -21.5t87.5 -61t57.5 -94.5t20.5 -122q0 -69 -14.5 -123.5t-39.5 -92.5t-57 -58.5t-66 -20.5q-44 0 -67 27t-23 81
q-25 -54 -53.5 -81t-56.5 -27q-45 0 -71 35.5t-26 103.5q0 59 25.5 118t72.5 105q26 26 50.5 38t46.5 12q18 0 31 -7t24.5 -15l22.5 -15t25 -7q20 0 36.5 13.5t34.5 40.5q-78 -287 -78 -341q0 -29 22 -29q17 0 35 16t33 46t25 73t10 97q0 124 -57 193.5t-154 69.5
q-115 0 -194 -108q-36 -50 -56 -116t-20 -144q0 -72 17.5 -129.5t50 -97t77.5 -61t99 -21.5q118 0 203 94l24 -29v0zM406 484q0 45 -25 45q-13 0 -28 -16t-28.5 -44t-22.5 -64.5t-9 -76.5q0 -54 36 -54q22 0 41 40q7 15 13.5 35.5t11.5 43.5t8 46.5t3 44.5z" />
    <glyph glyph-name="atilde" unicode="&#xe3;" horiz-adv-x="371" 
d="M350 260q12 -27 16.5 -55.5t4.5 -60.5q0 -75 -25 -116t-65 -41q-33 0 -53 31t-24 92q-24 -123 -101 -123q-43 0 -73 41.5t-30 111.5q0 34 6.5 60t21 45t36.5 32.5t54 23.5q25 8 43.5 17.5t30.5 24.5t17.5 36.5t5.5 52.5q0 51 -19 79.5t-48 28.5q-22 0 -38 -18t-16 -47
q0 -16 7 -25t18 -9q9 0 15 9t6 26q0 16 -9 28q23 -6 38 -29t15 -53q0 -43 -20 -67t-52 -24q-33 0 -55 26t-22 68q0 30 10.5 55t29.5 44t43.5 29.5t53.5 10.5q72 0 115.5 -52t43.5 -142q0 -33 -5 -65t-5 -63q0 -26 16 -26q14 0 14 30v6.5t-1 7.5zM222 356q-8 -37 -23.5 -54.5
t-41.5 -32.5q-8 -5 -16.5 -8.5t-16 -8t-12 -11t-4.5 -17.5q0 -38 38 -38q76 0 76 160v10zM318 772q-18 -156 -94 -156q-15 0 -27.5 4.5t-24 10t-22.5 10t-23 4.5q-49 0 -73 -58q8 78 32.5 117.5t60.5 39.5q15 0 28 -5t25.5 -11t24.5 -11t26 -5q51 0 67 60z" />
    <glyph glyph-name="b" unicode="b" horiz-adv-x="349" 
d="M148 470q18 47 41 70t48 23q48 0 75 -67t27 -200q0 -152 -42 -230.5t-119 -78.5q-32 0 -58.5 15.5t-46 44.5t-30.5 70.5t-11 93.5q0 40 4.5 80t9.5 80t9.5 80t4.5 80q0 50 -12 83t-38 52q65 78 145 107q23 -17 23 -71q0 -53 -12.5 -110.5t-17.5 -121.5zM248 329
q0 78 -14 117.5t-35 39.5q-23 0 -41.5 -46.5t-18.5 -131.5q0 -148 55 -148q23 0 38.5 43t15.5 126z" />
    <glyph glyph-name="backslash" unicode="\" horiz-adv-x="307" 
d="M287 -22q-8 1 -17 1h-18h-17t-19 -1l-95.5 393l-100.5 379q8 0 15.5 -0.5t15.5 -0.5t16.5 0.5t16.5 0.5q45 -193 95.5 -385t107.5 -387z" />
    <glyph glyph-name="bar" unicode="|" horiz-adv-x="413" 
d="M304 430q58 -48 86 -100t28 -112q0 -51 -16.5 -94t-45.5 -73.5t-69.5 -47.5t-88.5 -17q-44 0 -81.5 15.5t-64.5 43.5t-42 66.5t-15 85.5q0 60 27 110.5t84 95.5q-36 41 -53.5 81.5t-17.5 85.5q0 37 13 70.5t37 58.5q53 55 126 55q71 0 120 -49q23 -23 36.5 -54.5
t13.5 -65.5q0 -47 -18.5 -83.5t-58.5 -71.5zM229 478q27 18 41.5 46t14.5 59q0 36 -20 59t-49 23q-26 0 -46 -22t-20 -55q0 -30 19.5 -56.5t59.5 -53.5zM193 324q-71 -52 -71 -119q0 -44 22 -69t57 -25q34 0 57 24.5t23 62.5q0 35 -21.5 65t-66.5 61z" />
    <glyph glyph-name="braceleft" unicode="{" horiz-adv-x="266" 
d="M257 -71q-97 0 -143 33t-46 103q0 26 6 53t13.5 54.5t13.5 55t6 56.5q0 44 -22 65t-70 25q49 4 70.5 24.5t21.5 65.5q0 28 -6 56t-13.5 55.5t-13.5 54t-6 53.5q0 70 46 103t143 33h9q-53 -9 -71 -36t-18 -83q0 -32 6 -60.5t12.5 -54.5l12.5 -49.5t6 -44.5q0 -86 -92 -117
q48 -17 70 -44.5t22 -72.5q0 -21 -6 -44.5l-12.5 -49.5t-12.5 -55t-6 -60q0 -56 19.5 -83.5t69.5 -35.5h-9z" />
    <glyph glyph-name="braceright" unicode="}" horiz-adv-x="267" 
d="M246 374q-49 -4 -70.5 -24.5t-21.5 -65.5q0 -29 6 -56.5t13.5 -55t13.5 -54.5t6 -53q0 -70 -46 -103t-143 -33h-9q49 8 69 35.5t20 83.5q0 31 -6 60t-12.5 55l-12.5 49.5t-6 44.5q0 45 22 72.5t70 44.5q-92 31 -92 117q0 21 6 44.5l12.5 49.5t12.5 54.5t6 60.5
q0 56 -18.5 83t-70.5 36h9q189 0 189 -136q0 -26 -6 -53t-13.5 -54.5t-13.5 -55.5t-6 -56q0 -45 21 -65.5t71 -24.5z" />
    <glyph glyph-name="bracketleft" unicode="[" horiz-adv-x="244" 
d="M254 -67q-31 2 -62.5 2h-63.5h-53t-55 -1q18 313 18 492q0 184 -18 378q27 -1 54 -1h53h63.5t63.5 2q0 -5 -0.5 -9.5t-0.5 -9.5t0.5 -10t0.5 -10h-78q-28 0 -31 -21q0 -2 -2.5 -76.5t-2.5 -223.5q0 -411 8 -443q5 -20 16 -25.5t37 -5.5h23.5t29.5 1q0 -5 -0.5 -9.5
t-0.5 -9.5t0.5 -10t0.5 -10z" />
    <glyph glyph-name="bracketright" unicode="]" horiz-adv-x="244" 
d="M224 -66q-28 1 -55.5 1h-53.5h-63.5t-61.5 -2q1 5 1 10v10v9.5t-1 9.5q17 -1 29.5 -1h23.5q26 0 37 5.5t16 25.5q8 32 8 448q0 146 -2.5 219.5t-2.5 75.5q-3 21 -31 21h-78q1 5 1 10v10v9.5t-1 9.5q34 -2 67 -2h65h51.5t50.5 1q-18 -192 -18 -377q0 -177 18 -493z" />
    <glyph glyph-name="breve" unicode="&#x2d8;" 
d="M412 752q-15 -70 -55.5 -107.5t-97.5 -37.5q-51 0 -90.5 36.5t-62.5 108.5q37 -35 76 -51.5t86 -16.5q46 0 79.5 15.5t64.5 52.5z" />
    <glyph glyph-name="brokenbar" unicode="&#xa6;" 
d="M287 329h-73v370h73v-370zM287 -171h-73v370h73v-370z" />
    <glyph glyph-name="bullet" unicode="&#x2022;" horiz-adv-x="391" 
d="M281 381q0 -35 -25 -60t-61 -25t-60.5 24.5t-24.5 60.5q0 35 25 60t60 25q36 0 61 -25t25 -60z" />
    <glyph glyph-name="c" unicode="c" horiz-adv-x="315" 
d="M302 300q3 -33 3 -56q0 -60 -10.5 -107.5t-28.5 -80.5t-42.5 -51t-52.5 -18q-69 0 -110 71.5t-41 205.5q0 69 13 124.5t36 94t54 59.5t67 21q48 0 79 -44t31 -119q0 -60 -21 -94.5t-51 -34.5q-32 0 -55 30.5t-23 81.5q0 42 13.5 71t36.5 41q-7 -11 -7 -26q0 -17 7 -26.5
t18 -9.5q9 0 16 12t7 33q0 27 -14 43t-33 16q-15 0 -29.5 -12t-26.5 -33.5t-19 -51t-7 -64.5q0 -81 27.5 -126.5t70.5 -45.5q66 0 92 96z" />
    <glyph glyph-name="caron" unicode="&#x2c7;" 
d="M423 747q-66 -57 -119 -123q-11 2 -22 2h-22h-21.5t-21.5 -2q-27 33 -56.5 63.5t-62.5 59.5q100 -12 163 -69q68 61 162 69z" />
    <glyph glyph-name="ccedilla" unicode="&#xe7;" horiz-adv-x="315" 
d="M160 -54q10 7 24 7q35 0 60 -27t25 -70q0 -46 -29 -76t-75 -30q-38 0 -62.5 28t-32.5 82q30 -54 75 -54q21 0 35 14.5t14 37.5q0 20 -12 33t-29 13q-16 0 -29 -10l4 101q-51 20 -79.5 89.5t-28.5 186.5q0 66 13.5 120t36.5 92t54 59t66 21q48 0 79 -44t31 -119
q0 -60 -21 -94.5t-51 -34.5q-32 0 -55 30.5t-23 81.5q0 42 13.5 71t36.5 41q-7 -11 -7 -26q0 -17 7 -26.5t18 -9.5q9 0 16 12t7 33q0 27 -14 43t-33 16q-15 0 -29.5 -12t-26.5 -33.5t-19 -51t-7 -64.5q0 -81 27.5 -126.5t70.5 -45.5q66 0 92 96q3 -33 3 -56
q0 -60 -10.5 -107.5t-28.5 -80.5t-42.5 -51t-52.5 -18h-10l-1 -41v0z" />
    <glyph glyph-name="cedilla" unicode="&#xb8;" 
d="M238 -60q10 6 24 6q35 0 60 -27t25 -70q0 -23 -7.5 -42t-21 -33t-31 -22t-38.5 -8q-86 0 -100 109q30 -54 74 -54q21 0 35 14.5t14 37.5q0 21 -12 33.5t-29 12.5q-16 0 -29 -10l5 116h33l-2 -63v0z" />
    <glyph glyph-name="cent" unicode="&#xa2;" horiz-adv-x="297" 
d="M285 409q1 -12 1 -23v-22q0 -193 -108 -232v-26q0 -17 0.5 -34.5t1.5 -34.5q-6 2 -12.5 2h-12.5h-12t-12 -2q3 67 3 95q-59 14 -91.5 78t-32.5 173q0 103 36.5 169t99.5 87v44t-2 52q6 -1 11.5 -1h11.5h12.5t12.5 1q-1 -19 -1.5 -36t-0.5 -34v-23q43 -8 68 -46t25 -98
q0 -54 -20.5 -84.5t-49.5 -30.5q-31 0 -54 27.5t-23 72.5q0 36 13 62t36 38q-7 -11 -7 -24q0 -14 7 -22.5t18 -8.5q9 0 15.5 10.5t6.5 28.5q0 24 -12.5 38.5t-32.5 14.5q-14 0 -28 -10.5t-25.5 -29.5t-19 -45.5t-7.5 -58.5q0 -72 26.5 -112.5t68.5 -40.5q64 0 90 86z" />
    <glyph glyph-name="circumflex" unicode="&#x2c6;" 
d="M422 606q-51 5 -92 22t-71 46q-66 -60 -163 -68q48 39 89 84t74 98q66 -105 163 -182z" />
    <glyph glyph-name="colon" unicode=":" horiz-adv-x="184" 
d="M173 404q0 -40 -21 -64.5t-51 -24.5q-29 0 -50.5 25t-21.5 64q0 38 21.5 62.5t50.5 24.5t50.5 -24.5t21.5 -62.5zM173 74q0 -40 -21 -64t-51 -24q-29 0 -50.5 25t-21.5 63t21.5 63t50.5 25t50.5 -25t21.5 -63z" />
    <glyph glyph-name="comma" unicode="," horiz-adv-x="190" 
d="M44 -147q24 22 36 44.5t12 49.5q0 34 -25 58q-11 10 -19.5 19t-14.5 19.5t-9.5 23t-3.5 29.5q0 35 20 56t53 21q32 0 54.5 -29.5t22.5 -80.5q0 -31 -8.5 -62t-25 -59t-40 -51t-52.5 -38z" />
    <glyph glyph-name="copyright" unicode="&#xa9;" horiz-adv-x="833" 
d="M416 713q75 0 140 -27t116 -78t77 -115t26 -139q0 -149 -103 -252q-53 -53 -118.5 -80t-137.5 -27q-146 0 -252 106t-106 253q0 73 27 137.5t80 117.5q104 104 251 104zM733 354q0 64 -23.5 121.5t-68.5 102.5q-92 92 -225 92q-130 0 -221 -91q-46 -46 -70 -103.5
t-24 -121.5q0 -63 23.5 -119.5t69.5 -102.5q93 -93 222 -93q65 0 122 23.5t104 70.5q91 91 91 221zM520 445q-27 80 -98 80q-60 0 -92.5 -43.5t-32.5 -128.5q0 -81 33.5 -124.5t91.5 -43.5q76 0 103 89h63q-34 -140 -173 -140q-86 0 -137 57.5t-51 160.5q0 52 14 93.5t39 70
t60.5 44t79.5 15.5q66 0 106 -32t57 -98h-63v0z" />
    <glyph glyph-name="currency" unicode="&#xa4;" horiz-adv-x="606" 
d="M179 595q55 42 124 42t125 -42l100 100l40 -39l-100 -101q40 -53 40 -123q0 -34 -9.5 -64.5t-30.5 -58.5l100 -100l-40 -40l-100 100q-26 -20 -56.5 -31t-67.5 -11q-70 0 -125 42l-100 -100l-40 40l101 100q-17 21 -29 52t-12 71q0 68 41 123l-101 101l40 39l100 -100v0z
M452 433q0 30 -11.5 57t-31.5 47.5t-47 32t-58 11.5t-58 -11.5t-47 -32t-31.5 -47.5t-11.5 -57q0 -31 11.5 -58t31.5 -47.5t47 -32t58 -11.5t58 11.5t47 32t31.5 47.5t11.5 58z" />
    <glyph glyph-name="d" unicode="d" horiz-adv-x="365" 
d="M375 38q-47 -38 -144 -49q-8 33 -12 68.5t-4 73.5v22q-24 -166 -101 -166q-41 0 -70 59t-29 169q0 82 13.5 146.5t34 109.5t45 68.5t46.5 23.5q40 0 62 -49q2 15 2 29v26q0 52 -14 79.5t-49 35.5q64 89 157 89q14 -37 20.5 -76.5t6.5 -84.5q0 -99 -11 -183.5t-11 -156.5
q0 -63 14 -120t44 -114zM218 375q0 148 -45 148q-21 0 -35 -39.5t-14 -116.5q0 -152 49 -152q20 0 32.5 40t12.5 120z" />
    <glyph glyph-name="dagger" unicode="&#x2020;" horiz-adv-x="296" 
d="M281 583q-26 3 -54 4t-57 1q3 -62 58 -81q-21 -4 -33 -31t-18.5 -77t-10 -123.5t-7.5 -171.5h-22q-4 94 -7.5 166.5t-10 122.5t-18.5 78.5t-32 35.5q53 21 57 81q-26 0 -53.5 -1.5t-57.5 -3.5q1 6 1 11.5v11.5v12.5t-1 12.5q29 -2 57 -3l54 -2q-3 84 -27 112q12 2 24 2
h25h24.5t24.5 -2q-24 -30 -27 -112q30 0 57.5 1.5t53.5 3.5q0 -5 -0.5 -11t-0.5 -12t0.5 -12t0.5 -13z" />
    <glyph glyph-name="daggerdbl" unicode="&#x2021;" horiz-adv-x="296" 
d="M281 313q0 -6 -0.5 -12.5t-0.5 -12.5t0.5 -11.5t0.5 -11.5q-52 4 -110 6q2 -52 8.5 -86.5t18.5 -51.5q-12 -1 -24 -1.5t-25 -0.5q-12 0 -24.5 0.5t-25.5 1.5q12 17 18.5 51t8.5 86q-26 0 -53.5 -1.5t-57.5 -3.5q1 7 1 13v12v12t-1 11q30 -2 57.5 -3l53.5 -2
q-3 136 -59 152q32 12 45.5 39.5t13.5 75.5q-35 -2 -63 -2.5t-48 -2.5q1 6 1 11.5v11.5v12.5t-1 12.5q55 -5 111 -6q-2 48 -8 78.5t-19 47.5q13 2 25 2h25h24.5t24.5 -2q-13 -17 -19 -48.5t-8 -77.5q56 0 110 6q0 -6 -0.5 -12t-0.5 -12t0.5 -12t0.5 -12q-26 2 -53.5 3.5
t-56.5 1.5v-5q0 -51 14.5 -77.5t46.5 -32.5q-32 -6 -46.5 -43t-14.5 -109q26 0 53.5 1t56.5 4z" />
    <glyph glyph-name="degree" unicode="&#xb0;" horiz-adv-x="264" 
d="M132 541q-23 0 -42.5 8.5t-33.5 23t-22.5 34t-8.5 42.5q0 22 8.5 41.5t22.5 34t33.5 23t42.5 8.5q22 0 41.5 -8.5t34 -23t23 -34t8.5 -41.5q0 -23 -8.5 -42.5t-22.5 -34t-34 -23t-42 -8.5zM132 695q-19 0 -32.5 -13.5t-13.5 -32.5q0 -20 13 -33.5t33 -13.5t33.5 13.5
t13.5 33.5q0 19 -13.5 32.5t-33.5 13.5z" />
    <glyph glyph-name="dieresis" unicode="&#xa8;" 
d="M444 685q0 -32 -22.5 -54.5t-55.5 -22.5q-32 0 -54.5 22.5t-22.5 54.5q0 33 22.5 55.5t54.5 22.5q33 0 55.5 -22.5t22.5 -55.5zM234 685q0 -32 -22.5 -54.5t-54.5 -22.5q-33 0 -55.5 22.5t-22.5 54.5q0 33 22.5 55.5t55.5 22.5q16 0 30 -6t24.5 -16.5t16.5 -25t6 -30.5z
" />
    <glyph glyph-name="divide" unicode="&#xf7;" horiz-adv-x="833" 
d="M417 540q25 0 43 -18t18 -44q0 -25 -17.5 -43t-43.5 -18t-43.5 17.5t-17.5 43.5t18 44t43 18zM709 264h-585v68h585v-68zM417 179q25 0 43 -17.5t18 -43.5q0 -25 -17.5 -43t-43.5 -18t-43.5 17.5t-17.5 43.5t18 43.5t43 17.5z" />
    <glyph glyph-name="dollar" unicode="$" horiz-adv-x="433" 
d="M382 445q-39 192 -136 192q-29 0 -48 -18t-19 -46q0 -36 28 -65t78 -67q35 -27 62.5 -51t46.5 -50.5t29 -56t10 -66.5q0 -40 -13 -75t-37 -62t-59 -44.5t-79 -23.5v-24q0 -37 3 -74q-8 1 -17 1.5t-17 0.5t-16 -0.5t-16 -1.5q3 39 3 74v24q-90 13 -137.5 62t-47.5 126
q0 138 159 167q-52 43 -77.5 87t-25.5 98q0 63 32.5 104t100.5 66q0 39 -3 90q8 -1 16 -1h16h16.5t16.5 1q-3 -51 -3 -90q35 -9 56.5 -19.5t35.5 -10.5q26 0 40 26q0 -49 0.5 -117t1.5 -156zM213 203q1 5 1.5 8.5t0.5 7.5q0 32 -34 32q-20 0 -31.5 -14.5t-11.5 -40.5
q0 -32 23 -54t59 -22q37 0 60.5 24.5t23.5 63.5q0 34 -18.5 61.5t-53.5 59.5q16 -25 16 -55q0 -43 -35 -71z" />
    <glyph glyph-name="dotaccent" unicode="&#x2d9;" 
d="M327 702q0 -44 -22 -71.5t-52 -27.5q-26 0 -44 22.5t-18 58.5q0 19 7 36.5t18 30.5t26 20.5t31 7.5q23 0 38.5 -21t15.5 -56z" />
    <glyph glyph-name="dotlessi" unicode="&#x131;" horiz-adv-x="214" 
d="M194 3q-42 -6 -83 -6q-45 0 -91 6q24 72 36.5 137.5t12.5 125.5q0 97 -35 180q64 81 157 121q-30 -152 -30 -300q0 -84 8.5 -150t24.5 -114z" />
    <glyph glyph-name="e" unicode="e" horiz-adv-x="317" 
d="M308 295q9 -45 9 -86q0 -50 -10.5 -91t-29.5 -70t-44 -45t-55 -16q-36 0 -66 18.5t-51.5 54t-33.5 86t-12 115.5q0 69 13.5 124.5t36.5 95.5t53.5 61.5t65.5 21.5q25 0 46.5 -12t37.5 -33.5t25 -52t9 -66.5q0 -75 -24 -115.5t-63 -40.5q-67 0 -91 92q-3 -23 -3 -44
q0 -60 23 -91t63 -31q77 0 101 125zM221 449q0 44 -10.5 66.5t-28.5 22.5q-20 0 -33.5 -23t-13.5 -65q0 -43 11.5 -65.5t31.5 -22.5q19 0 31 22.5t12 64.5z" />
    <glyph glyph-name="eacute" unicode="&#xe9;" horiz-adv-x="317" 
d="M308 295q9 -45 9 -86q0 -50 -10.5 -91t-29.5 -70t-44 -45t-55 -16q-36 0 -66 18.5t-51.5 54t-33.5 86t-12 115.5q0 69 13.5 124.5t36.5 95.5t53.5 61.5t65.5 21.5q25 0 46.5 -12t37.5 -33.5t25 -52t9 -66.5q0 -75 -24 -115.5t-63 -40.5q-67 0 -91 92q-3 -23 -3 -44
q0 -60 23 -91t63 -31q77 0 101 125zM221 449q0 44 -10.5 66.5t-28.5 22.5q-20 0 -33.5 -23t-13.5 -65q0 -43 11.5 -65.5t31.5 -22.5q19 0 31 22.5t12 64.5zM91 604q73 34 97 93q9 21 16 40.5t15.5 34t20.5 23.5t30 9q17 0 29 -12t12 -32t-14.5 -43t-42.5 -45t-69 -40
t-94 -28z" />
    <glyph glyph-name="ecircumflex" unicode="&#xea;" horiz-adv-x="317" 
d="M308 295q9 -45 9 -86q0 -50 -10.5 -91t-29.5 -70t-44 -45t-55 -16q-36 0 -66 18.5t-51.5 54t-33.5 86t-12 115.5q0 69 13.5 124.5t36.5 95.5t53.5 61.5t65.5 21.5q25 0 46.5 -12t37.5 -33.5t25 -52t9 -66.5q0 -75 -24 -115.5t-63 -40.5q-67 0 -91 92q-3 -23 -3 -44
q0 -60 23 -91t63 -31q77 0 101 125zM221 449q0 44 -10.5 66.5t-28.5 22.5q-20 0 -33.5 -23t-13.5 -65q0 -43 11.5 -65.5t31.5 -22.5q19 0 31 22.5t12 64.5zM349 606q-51 5 -92 22t-71 46q-66 -60 -163 -68q48 39 89 84t74 98q66 -105 163 -182z" />
    <glyph glyph-name="edieresis" unicode="&#xeb;" horiz-adv-x="317" 
d="M308 295q9 -45 9 -86q0 -50 -10.5 -91t-29.5 -70t-44 -45t-55 -16q-36 0 -66 18.5t-51.5 54t-33.5 86t-12 115.5q0 69 13.5 124.5t36.5 95.5t53.5 61.5t65.5 21.5q25 0 46.5 -12t37.5 -33.5t25 -52t9 -66.5q0 -75 -24 -115.5t-63 -40.5q-67 0 -91 92q-3 -23 -3 -44
q0 -60 23 -91t63 -31q77 0 101 125zM221 449q0 44 -10.5 66.5t-28.5 22.5q-20 0 -33.5 -23t-13.5 -65q0 -43 11.5 -65.5t31.5 -22.5q19 0 31 22.5t12 64.5zM371 685q0 -32 -22.5 -54.5t-55.5 -22.5q-32 0 -54.5 22.5t-22.5 54.5q0 33 22.5 55.5t54.5 22.5q33 0 55.5 -22.5
t22.5 -55.5zM161 685q0 -32 -22.5 -54.5t-54.5 -22.5q-33 0 -55.5 22.5t-22.5 54.5q0 33 22.5 55.5t55.5 22.5q16 0 30 -6t24.5 -16.5t16.5 -25t6 -30.5z" />
    <glyph glyph-name="egrave" unicode="&#xe8;" horiz-adv-x="317" 
d="M308 295q9 -45 9 -86q0 -50 -10.5 -91t-29.5 -70t-44 -45t-55 -16q-36 0 -66 18.5t-51.5 54t-33.5 86t-12 115.5q0 69 13.5 124.5t36.5 95.5t53.5 61.5t65.5 21.5q25 0 46.5 -12t37.5 -33.5t25 -52t9 -66.5q0 -75 -24 -115.5t-63 -40.5q-67 0 -91 92q-3 -23 -3 -44
q0 -60 23 -91t63 -31q77 0 101 125zM221 449q0 44 -10.5 66.5t-28.5 22.5q-20 0 -33.5 -23t-13.5 -65q0 -43 11.5 -65.5t31.5 -22.5q19 0 31 22.5t12 64.5zM277 607q-54 10 -95 28t-69 39.5t-42.5 45t-14.5 43.5q0 18 12.5 30.5t29.5 12.5q29 0 44.5 -23t29.5 -64
q15 -42 40.5 -69.5t64.5 -42.5z" />
    <glyph glyph-name="eight" unicode="8" horiz-adv-x="419" 
d="M297 441q66 -50 96.5 -104t30.5 -123q0 -52 -15.5 -94t-44 -72t-68 -46t-87.5 -16q-47 0 -86 16t-67.5 45.5t-44.5 70.5t-16 91q0 68 32.5 114.5t101.5 81.5q-85 72 -85 166q0 39 14 72.5t38 57.5t57 38t71 14q37 0 68 -12.5t53.5 -34t35 -51.5t12.5 -64q0 -49 -23.5 -85
t-72.5 -65zM249 477q57 46 57 103q0 38 -21.5 62t-50.5 24q-32 0 -50.5 -19t-18.5 -52t21 -60t63 -58zM207 208q3 7 3 16q0 15 -10 25t-25 10q-19 0 -32 -15.5t-13 -41.5q0 -33 22.5 -55t57.5 -22q37 0 61.5 26t24.5 67q0 35 -18 64t-53 61q17 -26 17 -59q0 -45 -35 -76z
" />
    <glyph glyph-name="ellipsis" unicode="&#x2026;" horiz-adv-x="563" 
d="M543 80q0 -43 -22.5 -69t-54.5 -26t-55 26.5t-23 68.5t23 68.5t55 26.5q31 0 54 -26.5t23 -68.5zM359 80q0 -43 -22.5 -69t-54.5 -26t-55 26.5t-23 68.5t23 68.5t55 26.5q31 0 54 -26.5t23 -68.5zM175 80q0 -43 -22.5 -69t-54.5 -26t-55 26.5t-23 68.5t23 68.5t55 26.5
q31 0 54 -26.5t23 -68.5z" />
    <glyph glyph-name="emdash" unicode="&#x2014;" horiz-adv-x="721" 
d="M701 316q-87 2 -172.5 3.5t-170.5 1.5q-86 0 -169.5 -1.5t-168.5 -3.5q2 10 2 19.5v20.5v20t-2 20q88 -2 173 -3.5t171 -1.5q85 0 169 1.5t168 3.5q-1 -10 -1 -20v-20v-19.5t1 -20.5z" />
    <glyph glyph-name="endash" unicode="&#x2013;" horiz-adv-x="425" 
d="M405 304q-49 2 -97 3.5t-97 1.5q-48 0 -95.5 -1.5t-95.5 -3.5q2 12 2 23.5v22.5v23.5t-2 22.5q49 -2 97 -3.5t96 -1.5q49 0 96.5 1.5t95.5 3.5q-1 -11 -1.5 -23t-0.5 -23q0 -12 0.5 -23.5t1.5 -22.5z" />
    <glyph glyph-name="equal" unicode="=" horiz-adv-x="833" 
d="M709 361h-585v68h585v-68zM709 167h-585v68h585v-68z" />
    <glyph glyph-name="eth" unicode="&#xf0;" horiz-adv-x="364" 
d="M379 37q-68 -36 -141 -45q-23 65 -23 138v18q-20 -161 -101 -161q-42 0 -70.5 59.5t-28.5 168.5q0 82 13.5 147t34 110t45 68.5t46.5 23.5q38 0 59 -48v7q0 24 -2 48t-14 50l-41 -27t-39 -27q-7 11 -13 19.5t-13 16.5q21 11 41.5 23.5t40.5 26.5q-36 36 -75 36
q-14 0 -27 -4q45 45 79.5 66.5t57.5 21.5q35 0 72 -46q27 17 59 41q9 -17 24 -36l-24 -14.5l-41 -25.5q10 -26 15.5 -66.5t5.5 -96.5q0 -79 -0.5 -126t-0.5 -62q0 -99 12.5 -173.5t48.5 -130.5zM218 378q0 71 -13 108t-32 37q-21 0 -35 -39.5t-14 -115.5q0 -70 14.5 -107
t34.5 -37q19 0 32 39.5t13 114.5z" />
    <glyph glyph-name="exclam" unicode="!" horiz-adv-x="258" 
d="M238 738q-35 -89 -50 -200.5t-15 -251.5v-46t1 -47q-21 3 -43 3q-23 0 -45 -3q1 23 1 45.5v45.5q0 137 -15.5 249t-51.5 205q29 2 56 3.5t55 1.5q27 0 54 -1.5t53 -3.5zM198 71q0 -37 -20.5 -60.5t-48.5 -23.5q-27 0 -47.5 23t-20.5 61t20.5 61t47.5 23q28 0 48.5 -23.5
t20.5 -60.5z" />
    <glyph glyph-name="exclamdown" unicode="&#xa1;" horiz-adv-x="258" 
d="M197 667q0 -37 -20.5 -60.5t-48.5 -23.5t-48 23t-20 61t20 61t48 23t48.5 -23.5t20.5 -60.5zM238 0q-28 -2 -55.5 -3t-55.5 -1q-27 0 -54 1t-53 3q35 91 50 206t15 258v40t-1 41q11 -2 22 -3t22 -1t22 1t22 3q-1 -25 -1.5 -49.5t-0.5 -47.5q0 -137 16 -247.5t52 -200.5z
" />
    <glyph glyph-name="f" unicode="f" horiz-adv-x="235" 
d="M69 539q-44 43 -44 97q0 28 12.5 53t34 43.5t51 29t64.5 10.5q57 0 90 -30t33 -81q0 -45 -20.5 -71t-52.5 -26q-30 0 -50 22.5t-20 58.5q0 32 14.5 51.5t48.5 29.5q-16 -12 -16 -30q0 -12 7 -20t17 -8q9 0 16 8.5t7 22.5q0 45 -45 45q-35 0 -59.5 -28.5t-24.5 -74.5
q0 -103 106 -103q4 0 8 0.5t9 0.5q1 -5 1.5 -11t0.5 -11q0 -6 -0.5 -11.5t-1.5 -11.5h-81q-9 -68 -9 -139q0 -226 69 -355q-25 -5 -51 -6.5t-54 -1.5q-29 0 -55.5 1.5t-52.5 6.5q49 136 49 363q0 33 -1.5 66t-6.5 65h-56q0 6 -0.5 11.5t-0.5 11.5q0 5 0.5 11t0.5 11h63v0z
" />
    <glyph glyph-name="fi" unicode="&#xfb01;" horiz-adv-x="443" 
d="M423 0q-22 -4 -45 -5.5t-47 -1.5q-22 0 -42.5 1.5t-39.5 5.5q24 72 36.5 137.5t12.5 125.5q0 94 -34 180q69 91 156 123q-30 -155 -30 -302q0 -84 8.5 -150t24.5 -114zM69 539q-23 23 -33.5 46.5t-10.5 54.5q0 29 13.5 53t38 41.5t59 27.5t77.5 10q38 0 69.5 -10t54 -28
t35 -42t12.5 -51q0 -45 -23.5 -71t-59.5 -26q-33 0 -55 23.5t-22 61.5q0 58 64 77q-14 -14 -14 -28t8.5 -23.5t20.5 -9.5q11 0 18.5 8.5t7.5 23.5q0 26 -23.5 42t-65.5 16q-47 0 -76.5 -29t-29.5 -74q0 -43 25.5 -68.5t72.5 -25.5q3 0 6.5 0.5t7.5 0.5q1 -5 1.5 -11t0.5 -11
q0 -6 -0.5 -11.5t-1.5 -11.5h-72q-9 -68 -9 -139q0 -226 69 -355q-26 -5 -52 -6t-55 -1q-28 0 -54 1t-51 6q47 136 47 371q0 33 -1.5 63.5t-5.5 59.5h-56q0 6 -0.5 11.5t-0.5 11.5q0 5 0.5 11t0.5 11h63v0z" />
    <glyph glyph-name="five" unicode="5" horiz-adv-x="401" 
d="M76 401q17 46 55.5 72t83.5 26q38 0 71 -17t57.5 -48.5t38.5 -76t14 -99.5q0 -62 -15.5 -112t-43 -85.5t-65 -55t-82.5 -19.5q-40 0 -74 14t-58.5 38t-38.5 57t-14 72q0 32 10 58.5t28 46t42 30t52 10.5q42 0 67 -24t25 -62q0 -42 -42 -68q7 11 7 23q0 16 -8.5 25.5
t-21.5 9.5q-15 0 -25 -11t-10 -30q0 -25 16 -41t42 -16q35 0 60 39t25 105q0 136 -93 136q-59 0 -96 -62q-14 5 -28.5 8.5t-29.5 5.5q11 74 16.5 151.5t5.5 161.5v37.5t-1 37.5q12 1 23.5 1h22.5h21t20 -1q-27 -6 -27 -27q0 -22 24 -22q17 0 30.5 9.5l30.5 22.5t34 22.5
t43 9.5q53 0 80.5 -41t27.5 -122q0 -27 -11 -55q3 10 3 19q0 17 -12 28t-33 11q-18 0 -35.5 -9.5l-39.5 -21.5q-24 -14 -43.5 -22.5t-37.5 -8.5q-64 0 -73 81q-2 -108 -18 -211z" />
    <glyph glyph-name="fl" unicode="&#xfb02;" horiz-adv-x="460" 
d="M440 0q-38 -7 -88 -7q-25 0 -50 2t-50 5q24 88 35.5 175t11.5 178q0 62 -5.5 117.5t-19.5 108.5q-20 -15 -39 -15q-29 0 -49 22.5t-20 57.5q0 32 15 52t49 30q-15 -11 -15 -30q0 -13 7 -21t16 -8t15.5 8.5t6.5 22.5q0 48 -44 48q-36 0 -60 -30t-24 -80q0 -48 24.5 -73
t71.5 -25h9t9 1q1 -5 1.5 -11t0.5 -11q0 -6 -0.5 -11.5t-1.5 -11.5h-72q-5 -36 -7.5 -73.5t-2.5 -76.5q0 -221 66 -344q-25 -5 -51 -6t-55 -1q-28 0 -53.5 1t-50.5 6q24 74 36.5 168.5t12.5 209.5q0 32 -1.5 60.5t-5.5 55.5h-56q0 6 -0.5 11.5t-0.5 11.5q0 5 0.5 11t0.5 11
h63q-44 43 -44 97q0 28 12 53t34 43.5t51.5 29t64.5 10.5q42 0 69 -17.5t45 -58.5q34 29 64 48.5t59 27.5q-30 -191 -30 -377q0 -138 10.5 -236t35.5 -159z" />
    <glyph glyph-name="florin" unicode="&#x192;" horiz-adv-x="316" 
d="M123 539q13 79 36.5 139.5t53.5 101.5t65.5 61.5t74.5 20.5q51 0 82 -33.5t31 -89.5q0 -29 -7 -53t-19.5 -41t-29.5 -26.5t-36 -9.5q-34 0 -54 20t-20 55q0 63 75 90q-11 -13 -15 -24t-4 -21q0 -14 7.5 -22t20.5 -8q15 0 24.5 15t9.5 42q0 33 -16 51.5t-41 18.5
q-50 0 -82 -72t-35 -215h32h38t39 1v-18v-19t1 -15q-33 1 -61 1.5t-51 0.5q1 -25 1 -48.5v-46.5q0 -336 -71 -506.5t-196 -170.5q-57 0 -91.5 36.5t-34.5 96.5q0 27 9 50t24.5 40.5t35.5 27.5t43 10q40 0 64.5 -23.5t24.5 -61.5q0 -35 -22.5 -58t-62.5 -26q21 13 21 34
q0 15 -8.5 24t-21.5 9q-18 0 -29.5 -14.5t-11.5 -41.5q0 -29 18 -47.5t49 -18.5q97 0 114 193q6 64 7.5 130t2.5 134t2.5 137.5t6.5 140.5q-20 0 -43 -0.5t-50 -1.5q1 8 1.5 16t0.5 16v10t-1 10q28 -1 53 -1h46z" />
    <glyph glyph-name="four" unicode="4" horiz-adv-x="405" 
d="M323 187v-21q0 -88 31 -166q-23 -2 -47.5 -3t-52.5 -1q-26 0 -50.5 1t-46.5 3q43 86 43 187q-25 1 -49.5 1h-50.5h-49.5t-50.5 -1q1 17 1 32.5v32.5v33t-1 33q50 103 89 206.5t69 212.5q49 3 81 3t85 -3q-2 -154 -3 -240t-1 -106l1 -71q41 0 61 8t23 31
q-1 -22 -1.5 -44.5t-0.5 -45.5q0 -22 0.5 -42t1.5 -40h-82zM201 635q-42 -161 -111 -315h105q4 150 6 315z" />
    <glyph glyph-name="fraction" unicode="&#x2044;" horiz-adv-x="307" 
d="M287 750l-100.5 -379l-95.5 -393q-9 1 -18.5 1h-18.5h-17t-17 -1q57 195 107.5 386.5t95.5 385.5q8 0 16.5 -0.5t16.5 -0.5t15.5 0.5t15.5 0.5z" />
    <glyph glyph-name="fraction" unicode="&#x2215;" horiz-adv-x="307" 
d="M287 750l-100.5 -379l-95.5 -393q-9 1 -18.5 1h-18.5h-17t-17 -1q57 195 107.5 386.5t95.5 385.5q8 0 16.5 -0.5t16.5 -0.5t15.5 0.5t15.5 0.5z" />
    <glyph glyph-name="g" unicode="g" horiz-adv-x="394" 
d="M120 198q-27 -14 -27 -35q0 -16 12.5 -27t32.5 -11q19 0 33 8.5l30 18.5q17 11 34.5 18t41.5 7q55 0 88.5 -36t33.5 -99q0 -45 -17 -83t-47.5 -66t-72.5 -43.5t-93 -15.5q-70 0 -108 24.5t-38 64.5q0 51 59 70q-39 15 -58 39t-19 61q0 69 95 119q-35 36 -51 75t-16 87
q0 79 40 129.5t107 57.5q-10 19 -10 41q0 18 7 34t20 28t30 19t37 7q34 0 55 -22t21 -53q0 -26 -13.5 -42.5t-34.5 -16.5q-28 0 -46 32l6 -2q10 4 14 9t4 16t-8 19.5t-22 8.5t-24 -11.5t-10 -29.5q0 -19 11 -38q60 -16 93 -65.5t33 -121.5q0 -44 -11.5 -80t-32.5 -61.5
t-49.5 -39t-61.5 -13.5t-68 19zM240 408q0 61 -13.5 92t-37.5 31q-21 0 -35.5 -31.5t-14.5 -91.5q0 -57 14 -86t38 -29q22 0 35.5 29t13.5 86zM166 -75q-6 23 -25 23q-12 0 -20.5 -8.5t-8.5 -20.5q0 -18 16 -28.5t46 -10.5q50 0 81 24.5t31 58.5q0 26 -13.5 40t-36.5 14
q-26 0 -52.5 -11t-60.5 -14q47 -9 47 -48q0 -11 -4 -19z" />
    <glyph glyph-name="germandbls" unicode="&#xdf;" horiz-adv-x="492" 
d="M376 530q-12 3 -21 3q-25 0 -42.5 -19.5t-17.5 -49.5q0 -33 22.5 -56.5t62.5 -52.5q27 -20 49 -39.5t37 -41t23 -47t8 -56.5q0 -39 -12 -71.5t-33 -56t-50 -36t-63 -12.5q-32 0 -60 11.5t-48.5 31t-32.5 46.5t-12 59q0 48 27 78.5t65 30.5q24 0 39 -14.5t17 -43.5
q-6 6 -14 6t-15 -9t-7 -23q0 -17 11.5 -28.5t28.5 -11.5q16 0 27 12t11 30q0 20 -14.5 41.5t-43.5 47.5l-48.5 44t-39 42.5t-26.5 46t-10 55.5q0 43 17.5 71.5t42.5 58.5q30 37 30 79q0 32 -16.5 49.5t-46.5 17.5q-63 0 -63 -92v-236q0 -128 6 -225.5t30 -169.5
q-22 -3 -43.5 -4t-43.5 -1t-43.5 1t-43.5 4q22 78 33.5 169t11.5 197q0 25 -2 58t-5 74q-5 1 -11 1h-13h-13.5t-14.5 -1q0 6 -0.5 11.5t-0.5 10.5t0.5 10t0.5 10q9 0 17 -0.5t15 -0.5q8 0 14.5 0.5t11.5 0.5q-28 35 -28 79q0 34 12.5 62t35 48t54.5 31.5t71 11.5
q165 0 167 -242z" />
    <glyph glyph-name="grave" unicode="`" 
d="M350 607q-54 10 -95 28t-69 39.5t-42.5 45t-14.5 43.5q0 18 12.5 30.5t29.5 12.5q29 0 44.5 -23t29.5 -64q15 -42 40.5 -69.5t64.5 -42.5z" />
    <glyph glyph-name="greater" unicode="&#x3e;" horiz-adv-x="833" 
d="M704 267l-575 -236v75l474 192l-474 193v75l575 -236v-63z" />
    <glyph glyph-name="guillemotleft" unicode="&#xab;" horiz-adv-x="360" 
d="M340 110q-51 78 -96.5 131t-84.5 85q105 91 181 217q-11 -133 -70 -217q23 -33 40 -86.5t30 -129.5zM182 110q-88 140 -182 216q107 93 182 217q-10 -133 -70 -217q23 -33 39.5 -87t30.5 -129z" />
    <glyph glyph-name="guillemotright" unicode="&#xbb;" horiz-adv-x="360" 
d="M360 326q-39 -32 -84.5 -84.5t-96.5 -131.5q14 77 30.5 130.5t39.5 85.5q-29 42 -47 96.5t-23 120.5q75 -126 181 -217zM202 326q-94 -78 -182 -216q14 76 30.5 130t39.5 86q-29 42 -47 96.5t-23 120.5q39 -63 84 -117.5t98 -99.5z" />
    <glyph glyph-name="guilsinglleft" unicode="&#x2039;" horiz-adv-x="202" 
d="M182 110q-88 140 -182 216q107 93 182 217q-10 -133 -70 -217q23 -33 39.5 -87t30.5 -129z" />
    <glyph glyph-name="guilsinglright" unicode="&#x203a;" horiz-adv-x="202" 
d="M202 326q-94 -78 -182 -216q14 76 30.5 130t39.5 86q-29 42 -47 96.5t-23 120.5q39 -63 84 -117.5t98 -99.5z" />
    <glyph glyph-name="h" unicode="h" horiz-adv-x="397" 
d="M384 231q13 -38 13 -79q0 -38 -7.5 -68.5t-20.5 -52t-30 -33t-36 -11.5q-45 0 -73.5 41.5t-28.5 110.5q0 55 14.5 97t31.5 81q17 36 32 71.5t15 77.5q0 26 -9.5 40.5t-25.5 14.5q-19 0 -36 -18t-30 -53t-20.5 -86t-7.5 -117q0 -76 9.5 -137t29.5 -110q-20 -4 -42 -5
t-47 -1q-26 0 -50 1t-45 5q23 79 34.5 172t11.5 200q0 185 -45 278q35 54 75.5 84t90.5 39q-17 -86 -20.5 -168.5t-3.5 -163.5v-12q32 134 112 134q46 0 75 -42.5t29 -117.5q0 -23 -4.5 -45.5t-9.5 -44l-9.5 -42.5t-4.5 -40q0 -39 16 -39q17 0 17 31v8v0z" />
    <glyph glyph-name="hungarumlaut" unicode="&#x2dd;" 
d="M137 604q41 16 65.5 43t39.5 69t30.5 64.5t43.5 22.5q17 0 29 -12t12 -32t-14.5 -43t-42.5 -44.5t-69 -39.5t-94 -28zM273 604q41 16 65.5 43t39.5 69t30.5 64.5t43.5 22.5q17 0 29 -12t12 -32t-14.5 -43t-42.5 -44.5t-69 -39.5t-94 -28z" />
    <glyph glyph-name="hyphen" unicode="-" horiz-adv-x="242" 
d="M222 304q-48 3 -99 3t-103 -3q2 11 2 22.5v23.5v23t-2 23q27 -2 52.5 -3t51.5 -1q25 0 49.5 1t48.5 3q-3 -23 -3 -46q0 -24 3 -46z" />
    <glyph glyph-name="hyphen" unicode="&#xad;" horiz-adv-x="242" 
d="M222 304q-48 3 -99 3t-103 -3q2 11 2 22.5v23.5v23t-2 23q27 -2 52.5 -3t51.5 -1q25 0 49.5 1t48.5 3q-3 -23 -3 -46q0 -24 3 -46z" />
    <glyph glyph-name="i" unicode="i" horiz-adv-x="214" 
d="M184 686q0 -44 -22 -72t-52 -28q-26 0 -44 22.5t-18 59.5q0 19 7 36.5t18.5 30.5t26 20.5t30.5 7.5q23 0 38.5 -21t15.5 -56zM194 3q-42 -6 -83 -6q-45 0 -91 6q24 72 36.5 137.5t12.5 125.5q0 97 -35 180q64 81 157 121q-30 -152 -30 -300q0 -84 8.5 -150t24.5 -114z
" />
    <glyph glyph-name="iacute" unicode="&#xed;" horiz-adv-x="214" 
d="M194 3q-42 -6 -83 -6q-45 0 -91 6q24 72 36.5 137.5t12.5 125.5q0 97 -35 180q64 81 157 121q-30 -152 -30 -300q0 -84 8.5 -150t24.5 -114zM25 604q73 34 97 93q9 21 16 40.5t15.5 34t20.5 23.5t30 9q17 0 29 -12t12 -32t-14.5 -43t-42.5 -45t-69 -40t-94 -28z" />
    <glyph glyph-name="icircumflex" unicode="&#xee;" horiz-adv-x="214" 
d="M194 3q-42 -6 -83 -6q-45 0 -91 6q24 72 36.5 137.5t12.5 125.5q0 97 -35 180q64 81 157 121q-30 -152 -30 -300q0 -84 8.5 -150t24.5 -114zM283 606q-51 5 -92 22t-71 46q-66 -60 -163 -68q48 39 89 84t74 98q66 -105 163 -182z" />
    <glyph glyph-name="idieresis" unicode="&#xef;" horiz-adv-x="214" 
d="M194 3q-42 -6 -83 -6q-45 0 -91 6q24 72 36.5 137.5t12.5 125.5q0 97 -35 180q64 81 157 121q-30 -152 -30 -300q0 -84 8.5 -150t24.5 -114zM305 685q0 -32 -22.5 -54.5t-55.5 -22.5q-32 0 -54.5 22.5t-22.5 54.5q0 33 22.5 55.5t54.5 22.5q33 0 55.5 -22.5t22.5 -55.5z
M95 685q0 -32 -22.5 -54.5t-54.5 -22.5q-33 0 -55.5 22.5t-22.5 54.5q0 33 22.5 55.5t55.5 22.5q16 0 30 -6t24.5 -16.5t16.5 -25t6 -30.5z" />
    <glyph glyph-name="igrave" unicode="&#xec;" horiz-adv-x="214" 
d="M194 3q-42 -6 -83 -6q-45 0 -91 6q24 72 36.5 137.5t12.5 125.5q0 97 -35 180q64 81 157 121q-30 -152 -30 -300q0 -84 8.5 -150t24.5 -114zM211 607q-54 10 -95 28t-69 39.5t-42.5 45t-14.5 43.5q0 18 12.5 30.5t29.5 12.5q29 0 44.5 -23t29.5 -64q15 -42 40.5 -69.5
t64.5 -42.5z" />
    <glyph glyph-name="j" unicode="j" horiz-adv-x="206" 
d="M184 683q0 -44 -22 -72t-52 -28q-26 0 -44 22.5t-18 59.5q0 19 7 36.5t18 30.5t26 20.5t31 7.5q23 0 38.5 -21t15.5 -56zM186 563q-9 -114 -9 -225q0 -65 3.5 -133.5t3.5 -143.5q0 -77 -4.5 -130.5t-27.5 -88.5q-41 -61 -119 -61q-30 0 -54.5 9t-42 24.5t-27 37
t-9.5 47.5q0 36 22 60.5t52 24.5q40 0 49 -47q-6 7 -15 7t-15.5 -7t-6.5 -18q0 -14 10 -23.5t25 -9.5q19 0 29.5 11.5t15.5 35.5t6.5 59.5t1.5 83.5q0 72 -1.5 130t-8.5 103t-20 77t-36 52q66 77 178 125z" />
    <glyph glyph-name="k" unicode="k" horiz-adv-x="404" 
d="M167 376q11 94 44 141t83 47q45 0 72.5 -39.5t27.5 -110.5q0 -66 -27 -103.5t-72 -37.5q-43 0 -69 44l10 -3q42 10 42 48q0 47 -44 47q-27 0 -44.5 -25t-17.5 -68q0 -31 8.5 -57t23 -45t33.5 -29.5t40 -10.5q81 0 101 108q10 -36 10 -78q0 -105 -26 -161t-68 -56
q-48 0 -81.5 59t-48.5 177v-18q0 -105 33 -205q-19 -2 -40 -3.5t-44 -1.5q-25 0 -48 1t-45 4q26 78 40 170.5t14 200.5q0 189 -49 279q48 53 90.5 84t84.5 39q-21 -94 -27 -190.5t-6 -199.5v-7v0z" />
    <glyph glyph-name="l" unicode="l" horiz-adv-x="227" 
d="M212 0q-21 -4 -43.5 -5t-46.5 -1q-51 0 -102 6q25 92 37.5 182t12.5 183q0 189 -50 279q87 99 176 129q-30 -191 -30 -378q0 -138 10.5 -236t35.5 -159z" />
    <glyph glyph-name="less" unicode="&#x3c;" horiz-adv-x="833" 
d="M231 298l473 -192v-75l-575 236v63l575 236v-75z" />
    <glyph glyph-name="logicalnot" unicode="&#xac;" horiz-adv-x="833" 
d="M709 175h-67v177h-518v68h585v-245z" />
    <glyph glyph-name="lslash" unicode="&#x142;" horiz-adv-x="327" 
d="M327 473q-26 -8 -52.5 -18.5l-52.5 -21.5q-1 -20 -1 -38v-36q0 -110 10.5 -199t35.5 -160q-28 -2 -56 -3.5t-56 -1.5t-55.5 1.5t-56.5 3.5q53 180 57 378l-53 -25t-47 -24q1 10 1.5 19t0.5 18t-0.5 18t-1.5 17q43 14 100 39q-3 158 -57 298q28 3 55.5 4t56.5 1
q28 0 56 -1t56 -4q-34 -121 -41 -242q60 27 101 49q-1 -9 -1.5 -18t-0.5 -18t0.5 -18t1.5 -18z" />
    <glyph glyph-name="m" unicode="m" horiz-adv-x="596" 
d="M581 229q15 -41 15 -83q0 -36 -7.5 -65.5t-21 -50.5t-31 -32t-36.5 -11q-44 0 -74 42t-30 113q0 39 12 74t26 70t26.5 69.5t12.5 74.5q0 22 -9.5 34t-23.5 12q-33 0 -58 -63.5t-25 -179.5q0 -63 11 -120.5t36 -112.5q-22 -3 -44.5 -4t-47.5 -1q-26 0 -49 1.5t-43 3.5
q41 143 41 333q0 119 -37 119q-23 0 -41.5 -60.5t-18.5 -175.5q0 -137 36 -216q-20 -2 -42.5 -3.5t-48.5 -1.5q-23 0 -44.5 1t-41.5 4q19 66 28.5 129t9.5 126q0 119 -41 182q41 48 78 79t74 48q-3 -28 -3.5 -52.5t-0.5 -47.5v-59q20 79 48.5 119t60.5 40q38 0 60.5 -39
t24.5 -116q20 78 52.5 116.5t72.5 38.5q42 0 65.5 -37.5t23.5 -109.5q0 -26 -5 -50.5t-10.5 -47.5l-10.5 -44.5t-5 -41.5q0 -42 20 -42q17 0 17 26q0 8 -1 12z" />
    <glyph glyph-name="macron" unicode="&#xaf;" 
d="M404 645q-36 4 -72.5 5.5t-72.5 1.5t-71.5 -1.5t-71.5 -5.5q3 22 3 44q0 21 -3 44q36 -4 71.5 -6t71.5 -2t72.5 2t72.5 6q-2 -11 -3 -22t-1 -22q0 -24 4 -44z" />
    <glyph glyph-name="macron" unicode="&#x2c9;" 
d="M404 645q-36 4 -72.5 5.5t-72.5 1.5t-71.5 -1.5t-71.5 -5.5q3 22 3 44q0 21 -3 44q36 -4 71.5 -6t71.5 -2t72.5 2t72.5 6q-2 -11 -3 -22t-1 -22q0 -24 4 -44z" />
    <glyph glyph-name="minus" unicode="&#x2212;" horiz-adv-x="833" 
d="M709 264h-585v69h585v-69z" />
    <glyph glyph-name="mu" unicode="&#xb5;" horiz-adv-x="562" 
d="M125 230q-7 -31 -7 -65q0 -49 25.5 -75t72.5 -26q67 0 103.5 48t58.5 149l56 262h87l-76 -357q-5 -22 -8 -38t-3 -27q0 -18 8 -25.5t27 -7.5h7.5t8.5 1l-15 -70q-14 -3 -27 -4t-26 -1q-32 0 -48 14.5t-25 48.5q-43 -64 -132 -64q-40 0 -69.5 13.5t-55.5 43.5l-54 -259
h-88l155 732h88z" />
    <glyph glyph-name="mu" unicode="&#x3bc;" horiz-adv-x="562" 
d="M125 230q-7 -31 -7 -65q0 -49 25.5 -75t72.5 -26q67 0 103.5 48t58.5 149l56 262h87l-76 -357q-5 -22 -8 -38t-3 -27q0 -18 8 -25.5t27 -7.5h7.5t8.5 1l-15 -70q-14 -3 -27 -4t-26 -1q-32 0 -48 14.5t-25 48.5q-43 -64 -132 -64q-40 0 -69.5 13.5t-55.5 43.5l-54 -259
h-88l155 732h88z" />
    <glyph glyph-name="multiply" unicode="&#xd7;" horiz-adv-x="833" 
d="M649 575l48 -48l-229 -229l229 -229l-48 -47l-229 228l-229 -228l-48 47l229 229l-229 229l48 48l229 -229z" />
    <glyph glyph-name="n" unicode="n" horiz-adv-x="402" 
d="M388 228q14 -45 14 -86q0 -72 -27 -113.5t-69 -41.5q-48 0 -78.5 45.5t-30.5 125.5q0 48 15 84.5t33 71.5t33.5 70.5t15.5 80.5q0 27 -11 41t-28 14t-33.5 -19t-29.5 -54t-21.5 -84.5t-8.5 -111.5q0 -151 42 -251q-20 -2 -43 -3.5t-49 -1.5q-25 0 -47.5 1t-44.5 4
q45 135 45 250q0 102 -41 188q38 52 74.5 83t75.5 42q-13 -58 -13 -105v-15l1 -18q15 69 44.5 104t69.5 35q48 0 77 -43.5t29 -122.5q0 -22 -4.5 -44t-10 -44t-10 -44t-4.5 -44q0 -30 18 -30q17 0 17 31v5v0z" />
    <glyph glyph-name="nine" unicode="9" horiz-adv-x="397" 
d="M253 322q-21 -26 -44.5 -38.5t-53.5 -12.5q-70 0 -110.5 61.5t-40.5 171.5q0 121 47 185.5t133 64.5q96 0 147 -92t51 -274q0 -196 -58 -299t-158 -103q-34 0 -62 10.5t-48 29.5t-31 45.5t-11 57.5q0 27 8.5 49.5t23.5 39t35 26t42 9.5q34 0 54.5 -20t20.5 -51
q0 -32 -33 -49q6 9 6 18q0 14 -8 22.5t-20 8.5q-14 0 -23 -10t-9 -26q0 -20 13.5 -33.5t36.5 -13.5q42 0 66 55.5t26 167.5zM239 502q0 61 -14 92t-38 31t-39 -31.5t-15 -91.5q0 -63 15 -96t39 -33q23 0 37.5 33t14.5 96z" />
    <glyph glyph-name="ntilde" unicode="&#xf1;" horiz-adv-x="402" 
d="M388 228q14 -45 14 -86q0 -72 -27 -113.5t-69 -41.5q-48 0 -78.5 45.5t-30.5 125.5q0 48 15 84.5t33 71.5t33.5 70.5t15.5 80.5q0 27 -11 41t-28 14t-33.5 -19t-29.5 -54t-21.5 -84.5t-8.5 -111.5q0 -151 42 -251q-20 -2 -43 -3.5t-49 -1.5q-25 0 -47.5 1t-44.5 4
q45 135 45 250q0 102 -41 188q38 52 74.5 83t75.5 42q-13 -58 -13 -105v-15l1 -18q15 69 44.5 104t69.5 35q48 0 77 -43.5t29 -122.5q0 -22 -4.5 -44t-10 -44t-10 -44t-4.5 -44q0 -30 18 -30q17 0 17 31v5v0zM345 772q-18 -156 -94 -156q-15 0 -27.5 4.5t-24 10t-22.5 10
t-23 4.5q-49 0 -73 -58q8 78 32.5 117.5t60.5 39.5q15 0 28 -5t25.5 -11t24.5 -11t26 -5q51 0 67 60z" />
    <glyph glyph-name="numbersign" unicode="#" horiz-adv-x="382" 
d="M382 629q-9 -43 -15 -89q-26 2 -50 2.5t-46 1.5q-2 -14 -5.5 -31.5t-8.5 -37.5q23 0 48.5 0.5t51.5 1.5q-11 -44 -16 -88q-8 2 -16 2.5t-15 1.5q-8 1 -16 1h-25t-28 -1l-15 -81.5l-13 -70.5q-6 1 -12.5 1h-12.5h-12t-12 -1l17.5 76l16.5 76h-66q-8 -38 -14.5 -76
l-12.5 -76q-6 1 -12.5 1h-12.5h-13t-12 -1l17.5 75.5l16.5 75.5q-20 -1 -42.5 -1.5t-46.5 -1.5q10 46 15 88q24 -1 47 -1.5t44 -1.5q3 17 6.5 34.5t6.5 34.5q-31 0 -94 -3q5 22 9.5 44t6.5 45q25 -2 48 -2.5t46 -1.5q6 29 12 61.5t12 68.5q6 0 12 -0.5t11 -0.5q6 0 12 0.5
t11 0.5l-15 -67.5l-13 -62.5h70l13.5 65.5t11.5 64.5q6 0 12 -0.5t11 -0.5q6 0 12 0.5t11 0.5l-15 -66l-14 -63q43 1 93 3zM231 545h-28.5t-42.5 -1q-3 -17 -6.5 -34.5l-7.5 -36.5h37.5t32.5 1q4 17 7.5 35t7.5 36z" />
    <glyph glyph-name="o" unicode="o" horiz-adv-x="338" 
d="M201 417q-4 -1 -7 -1.5t-7 -0.5q-24 0 -39.5 16t-15.5 41q0 34 20.5 54.5t52.5 20.5q24 0 45 -19t37.5 -55t26 -87t9.5 -115q0 -140 -41.5 -212t-116.5 -72q-32 0 -59.5 18.5t-47.5 54t-31.5 86t-11.5 113.5q0 152 53 234.5t147 84.5q-120 -21 -120 -207q0 -77 22 -119
t53 -42q29 0 46 38t17 110q0 58 -9.5 88t-26.5 30q-10 0 -16.5 -7.5t-6.5 -20.5q0 -25 27 -31z" />
    <glyph glyph-name="oacute" unicode="&#xf3;" horiz-adv-x="338" 
d="M201 417q-4 -1 -7 -1.5t-7 -0.5q-24 0 -39.5 16t-15.5 41q0 34 20.5 54.5t52.5 20.5q24 0 45 -19t37.5 -55t26 -87t9.5 -115q0 -140 -41.5 -212t-116.5 -72q-32 0 -59.5 18.5t-47.5 54t-31.5 86t-11.5 113.5q0 152 53 234.5t147 84.5q-120 -21 -120 -207q0 -77 22 -119
t53 -42q29 0 46 38t17 110q0 58 -9.5 88t-26.5 30q-10 0 -16.5 -7.5t-6.5 -20.5q0 -25 27 -31zM87 604q73 34 97 93q9 21 16 40.5t15.5 34t20.5 23.5t30 9q17 0 29 -12t12 -32t-14.5 -43t-42.5 -45t-69 -40t-94 -28z" />
    <glyph glyph-name="ocircumflex" unicode="&#xf4;" horiz-adv-x="338" 
d="M201 417q-4 -1 -7 -1.5t-7 -0.5q-24 0 -39.5 16t-15.5 41q0 34 20.5 54.5t52.5 20.5q24 0 45 -19t37.5 -55t26 -87t9.5 -115q0 -140 -41.5 -212t-116.5 -72q-32 0 -59.5 18.5t-47.5 54t-31.5 86t-11.5 113.5q0 152 53 234.5t147 84.5q-120 -21 -120 -207q0 -77 22 -119
t53 -42q29 0 46 38t17 110q0 58 -9.5 88t-26.5 30q-10 0 -16.5 -7.5t-6.5 -20.5q0 -25 27 -31zM345 606q-51 5 -92 22t-71 46q-66 -60 -163 -68q48 39 89 84t74 98q66 -105 163 -182z" />
    <glyph glyph-name="odieresis" unicode="&#xf6;" horiz-adv-x="338" 
d="M201 417q-4 -1 -7 -1.5t-7 -0.5q-24 0 -39.5 16t-15.5 41q0 34 20.5 54.5t52.5 20.5q24 0 45 -19t37.5 -55t26 -87t9.5 -115q0 -140 -41.5 -212t-116.5 -72q-32 0 -59.5 18.5t-47.5 54t-31.5 86t-11.5 113.5q0 152 53 234.5t147 84.5q-120 -21 -120 -207q0 -77 22 -119
t53 -42q29 0 46 38t17 110q0 58 -9.5 88t-26.5 30q-10 0 -16.5 -7.5t-6.5 -20.5q0 -25 27 -31zM367 685q0 -32 -22.5 -54.5t-55.5 -22.5q-32 0 -54.5 22.5t-22.5 54.5q0 33 22.5 55.5t54.5 22.5q33 0 55.5 -22.5t22.5 -55.5zM157 685q0 -32 -22.5 -54.5t-54.5 -22.5
q-33 0 -55.5 22.5t-22.5 54.5q0 33 22.5 55.5t55.5 22.5q16 0 30 -6t24.5 -16.5t16.5 -25t6 -30.5z" />
    <glyph glyph-name="oe" unicode="&#x153;" horiz-adv-x="531" 
d="M521 309q5 -24 6.5 -47t1.5 -44q0 -51 -10.5 -91.5t-29.5 -68.5t-44 -43t-54 -15q-75 0 -113 101q-36 -101 -113 -101q-31 0 -58.5 18.5t-47.5 53t-32 85t-12 115.5q0 152 53 234t147 85q-62 -12 -91 -63.5t-29 -145.5q0 -77 22.5 -118t52.5 -41q29 0 46 39.5t17 116.5
q0 110 -34 110q-25 0 -25 -28q0 -27 27 -31h-10q-59 0 -59 56q0 33 20 53.5t53 20.5q45 0 77 -63q48 80 116 80q25 0 46.5 -11.5t37.5 -33t25 -52t9 -67.5q0 -75 -24.5 -115.5t-62.5 -40.5q-67 0 -91 93q-3 -23 -3 -42q0 -59 24.5 -92t61.5 -33q74 0 100 126zM434 462
q0 45 -11 67.5t-28 22.5q-19 0 -32.5 -23.5t-13.5 -65.5t12.5 -64.5t29.5 -22.5q20 0 31.5 22t11.5 64z" />
    <glyph glyph-name="ogonek" unicode="&#x2db;" 
d="M357 -105q-8 -49 -32 -74.5t-59 -25.5q-39 0 -63.5 24.5t-24.5 65.5q0 35 24.5 65.5t72.5 53.5h31q-71 -42 -71 -101q0 -26 15 -41.5t40 -15.5q40 0 67 49z" />
    <glyph glyph-name="ograve" unicode="&#xf2;" horiz-adv-x="338" 
d="M201 417q-4 -1 -7 -1.5t-7 -0.5q-24 0 -39.5 16t-15.5 41q0 34 20.5 54.5t52.5 20.5q24 0 45 -19t37.5 -55t26 -87t9.5 -115q0 -140 -41.5 -212t-116.5 -72q-32 0 -59.5 18.5t-47.5 54t-31.5 86t-11.5 113.5q0 152 53 234.5t147 84.5q-120 -21 -120 -207q0 -77 22 -119
t53 -42q29 0 46 38t17 110q0 58 -9.5 88t-26.5 30q-10 0 -16.5 -7.5t-6.5 -20.5q0 -25 27 -31zM273 607q-54 10 -95 28t-69 39.5t-42.5 45t-14.5 43.5q0 18 12.5 30.5t29.5 12.5q29 0 44.5 -23t29.5 -64q15 -42 40.5 -69.5t64.5 -42.5z" />
    <glyph glyph-name="one" unicode="1" horiz-adv-x="282" 
d="M262 0q-36 -2 -68 -3.5t-58 -1.5q-25 0 -54 1.5t-62 3.5q29 73 44.5 163.5t15.5 196.5q0 91 -14 159t-46 117q145 45 198 148q-21 -158 -21 -325q0 -174 18 -289t47 -170z" />
    <glyph glyph-name="onehalf" unicode="&#xbd;" horiz-adv-x="742" 
d="M165 327q-45 -3 -79 -3q-33 0 -73 3q37 83 37 202q0 51 -8.5 89t-28.5 65q91 26 124 83q-6 -45 -9.5 -89.5t-3.5 -92.5q0 -97 11 -161.5t30 -95.5zM465 750l-100.5 -379l-95.5 -393q-9 1 -18.5 1h-18.5h-17t-17 -1q57 195 107.5 386.5t95.5 385.5q8 0 16.5 -0.5
t16.5 -0.5t15.5 0.5t15.5 0.5zM712 171q28 -34 28 -74q0 -51 -22.5 -78t-62.5 -27q-20 0 -33 6.5t-27 17.5l-21.5 16.5t-17.5 6.5q-18 0 -18 -16q0 -18 26 -23q-11 -1 -18 -1h-12h-13.5t-21.5 1q-1 10 -1 19.5v20.5q0 53 16 88.5t55 68.5l27 22.5t23 23t16 27.5t6 35
q0 29 -13.5 44.5t-36.5 15.5q-18 0 -31 -12t-13 -29q0 -12 6.5 -19t17.5 -7q8 0 14.5 6t6.5 17q0 9 -7 16q18 -8 25 -18.5t7 -27.5q0 -23 -15.5 -38t-39.5 -15q-26 0 -44.5 20.5t-18.5 53.5q0 24 9 44t24.5 35t37 23t45.5 8q51 0 82 -29.5t31 -78.5q0 -45 -25 -73t-71 -58
q-30 -20 -49 -37t-22 -41q15 33 46 33q9 0 17.5 -4l17.5 -8.5t18 -8t19 -3.5q16 0 26.5 10.5t10.5 28.5q0 5 -1 9t-3 9z" />
    <glyph glyph-name="onequarter" unicode="&#xbc;" horiz-adv-x="740" 
d="M165 327q-45 -3 -79 -3q-33 0 -73 3q37 83 37 202q0 51 -8.5 89t-28.5 65q91 26 124 83q-6 -45 -9.5 -89.5t-3.5 -92.5q0 -97 11 -161.5t30 -95.5zM465 750l-100.5 -379l-95.5 -393q-9 1 -18.5 1h-18.5h-17t-17 -1q57 195 107.5 386.5t95.5 385.5q8 0 16.5 -0.5
t16.5 -0.5t15.5 0.5t15.5 0.5zM688 105v-12q0 -47 20 -93q-14 -2 -30 -2h-33h-32t-29 2q27 48 27 105h-126q1 9 1 18v18v18.5t-1 18.5q32 57 56 115.5t44 119.5q15 1 27.5 1h23.5h23t30 -1q-2 -87 -2 -135v-59v-40q26 0 38.5 4.5t14.5 17.5q0 -12 -0.5 -24.5t-0.5 -25.5
t0.5 -24t0.5 -22h-52zM612 356q-14 -45 -31 -89t-39 -88h66q2 42 2.5 86t1.5 91z" />
    <glyph glyph-name="onesuperior" unicode="&#xb9;" horiz-adv-x="186" 
d="M173 297q-48 -3 -83 -3q-34 0 -77 3q19 44 29.5 98t10.5 118q0 54 -9.5 95.5t-30.5 70.5q96 27 131 88q-7 -48 -10.5 -96t-3.5 -99q0 -104 11.5 -173t31.5 -102z" />
    <glyph glyph-name="ordfeminine" unicode="&#xaa;" horiz-adv-x="318" 
d="M282 515q9 -20 12.5 -41.5t3.5 -45.5q0 -57 -19 -87.5t-48 -30.5q-52 0 -58 93q-18 -93 -76 -93q-32 0 -54.5 31t-22.5 84q0 52 20 78.5t68 41.5q38 12 55.5 32.5t17.5 67.5q0 38 -13.5 59t-36.5 21q-17 0 -28.5 -13t-11.5 -36q0 -11 5 -18t13 -7q6 0 11 7t5 20
q0 12 -7 20q18 -5 29 -22.5t11 -43.5q0 -29 -15.5 -46.5t-38.5 -17.5t-40 19t-17 48q0 48 29 78t73 30q54 0 86.5 -39.5t32.5 -106.5q0 -28 -3.5 -51.5t-3.5 -43.5t12 -20q10 0 10 20q0 8 -1 13zM291 217q-66 3 -132 3q-65 0 -131 -3q1 8 1.5 14.5t0.5 13.5q0 8 -0.5 14.5
t-1.5 13.5q69 -3 134 -3q66 0 129 3q-1 -7 -1 -14v-14v-13.5t1 -14.5zM186 587q-5 -26 -17 -40t-32 -25q-14 -8 -25 -13.5t-11 -20.5q0 -28 29 -28q57 0 57 120z" />
    <glyph glyph-name="ordmasculine" unicode="&#xba;" horiz-adv-x="303" 
d="M167 631q-42 6 -42 43q0 25 15.5 40.5t39.5 15.5q18 0 34 -14.5t28 -41t19.5 -65t7.5 -86.5q0 -105 -31.5 -159t-87.5 -54q-24 0 -44.5 14t-35.5 40.5t-23.5 64t-8.5 85.5q0 115 39.5 176t110.5 63q-90 -17 -90 -154q0 -58 16.5 -89.5t39.5 -31.5q22 0 34.5 29.5
t12.5 86.5q0 83 -26 83q-7 0 -12.5 -6t-5.5 -15q0 -19 20 -23l-6 -1.5t-4 -0.5zM283 217q-66 3 -132 3q-65 0 -131 -3q1 8 1.5 14.5t0.5 13.5q0 8 -0.5 14.5t-1.5 13.5q67 -3 133 -3q67 0 130 3q-1 -7 -1 -14v-14v-13.5t1 -14.5z" />
    <glyph glyph-name="oslash" unicode="&#xf8;" horiz-adv-x="356" 
d="M346 577q-17 -61 -43 -115q32 -105 32 -191q0 -140 -42 -212.5t-116 -72.5q-56 0 -96 56q-10 -29 -15 -61q-8 1 -14.5 1h-14.5h-13.5t-13.5 -1q9 29 20 57t24 56q-27 81 -27 164q0 152 52.5 234t147.5 85q-120 -21 -120 -206q0 -42 7 -74.5t21 -56.5q60 90 107 182
q-9 53 -31 53q-25 0 -25 -28q0 -24 26 -30q-4 -1 -7 -1.5t-7 -0.5q-24 0 -39.5 16t-15.5 41q0 34 20.5 54.5t53.5 20.5q34 0 61 -37q13 31 19 67q7 0 13 -0.5t12 -0.5t12 0.5t12 0.5zM245 357l-44 -69.5l-43 -70.5q11 -7 23 -7q61 0 64 147z" />
    <glyph glyph-name="otilde" unicode="&#xf5;" horiz-adv-x="338" 
d="M201 417q-4 -1 -7 -1.5t-7 -0.5q-24 0 -39.5 16t-15.5 41q0 34 20.5 54.5t52.5 20.5q24 0 45 -19t37.5 -55t26 -87t9.5 -115q0 -140 -41.5 -212t-116.5 -72q-32 0 -59.5 18.5t-47.5 54t-31.5 86t-11.5 113.5q0 152 53 234.5t147 84.5q-120 -21 -120 -207q0 -77 22 -119
t53 -42q29 0 46 38t17 110q0 58 -9.5 88t-26.5 30q-10 0 -16.5 -7.5t-6.5 -20.5q0 -25 27 -31zM313 772q-18 -156 -94 -156q-15 0 -27.5 4.5t-24 10t-22.5 10t-23 4.5q-49 0 -73 -58q8 78 32.5 117.5t60.5 39.5q15 0 28 -5t25.5 -11t24.5 -11t26 -5q51 0 67 60z" />
    <glyph glyph-name="p" unicode="p" horiz-adv-x="392" 
d="M163 416q36 148 109 148q21 0 40.5 -18.5t33.5 -53.5t22.5 -86t8.5 -116q0 -151 -30.5 -227t-86.5 -76q-74 0 -100 149v-29q4 -118 21 -196.5t49 -118.5q-27 -2 -54.5 -3t-56.5 -1q-32 0 -63 1t-61 3q32 76 49 174t17 216q0 88 -11.5 151t-37.5 104q70 104 154 126
q-3 -74 -3 -147zM268 326q0 71 -13 108t-32 37q-21 0 -35 -39.5t-14 -116.5q0 -71 14.5 -108.5t34.5 -37.5q19 0 32 40t13 117z" />
    <glyph glyph-name="paragraph" unicode="&#xb6;" horiz-adv-x="445" 
d="M385 667q-1 -81 -1.5 -163t-0.5 -166t0.5 -168t1.5 -170q-11 2 -21 2h-20h-20.5t-20.5 -2q2 88 3 173t1 169t-1 165t-3 160h-56q-3 -159 -3 -326t3 -341q-10 1 -20 1.5t-21 0.5t-20.5 -0.5t-20.5 -1.5q3 85 3 173q0 87 -3 176q-68 8 -109 62t-41 138q0 96 48.5 148
t136.5 52q26 0 62 -1.5t81 -1.5q19 0 39.5 0.5t42.5 1.5q-1 -10 -1 -19.5v-20.5v-20t1 -21h-40z" />
    <glyph glyph-name="parenleft" unicode="(" horiz-adv-x="263" 
d="M288 -119q-128 66 -198 189.5t-70 286.5q0 164 70 287.5t198 188.5q-65 -75 -103 -191.5t-38 -284.5q0 -151 32 -267.5t109 -208.5z" />
    <glyph glyph-name="parenright" unicode=")" horiz-adv-x="262" 
d="M-25 833q63 -32 113 -80t84.5 -108.5t52.5 -133.5t18 -154t-18 -153.5t-52.5 -133t-84.5 -108.5t-113 -81q76 92 108.5 208.5t32.5 267.5q0 155 -34.5 272t-106.5 204z" />
    <glyph glyph-name="percent" unicode="%" horiz-adv-x="548" 
d="M137 647q-44 0 -44 45q0 23 15 38t37 15q37 0 64 -54t27 -153q0 -105 -31.5 -159.5t-86.5 -54.5q-23 0 -43.5 13.5t-36 40t-24.5 64.5t-9 86q0 115 39.5 176t110.5 64q-48 -10 -69 -49t-21 -113q0 -54 17 -84t39 -30q23 0 35.5 29.5t12.5 87.5q0 82 -26 82q-18 0 -18 -21
q0 -19 19 -23h-7zM406 758q-54 -190 -103 -382t-94 -390q-8 1 -17 1h-17h-16t-16 -1q57 196 107.5 388t95.5 384q8 0 15.5 -0.5t15.5 -0.5t15 0.5t14 0.5zM444 302q-45 0 -45 45q0 23 15.5 38t39.5 15q17 0 33 -14t28.5 -40.5t20 -65t7.5 -87.5q0 -105 -31.5 -159t-87.5 -54
q-47 0 -79.5 53t-32.5 150q0 115 39.5 176.5t110.5 63.5q-48 -10 -69 -49.5t-21 -112.5q0 -54 17 -84t39 -30t34.5 29.5t12.5 87.5q0 82 -25 82q-19 0 -19 -21q0 -19 20 -23h-7z" />
    <glyph glyph-name="period" unicode="." horiz-adv-x="195" 
d="M175 80q0 -43 -22.5 -69t-54.5 -26t-55 26.5t-23 68.5t23 68.5t55 26.5q31 0 54 -26.5t23 -68.5z" />
    <glyph glyph-name="periodcentered" unicode="&#xb7;" horiz-adv-x="270" 
d="M220 382q0 -43 -22.5 -69.5t-54.5 -26.5t-55 26.5t-23 69.5q0 42 23 68t55 26q31 0 54 -26t23 -68z" />
    <glyph glyph-name="periodcentered" unicode="&#x2219;" horiz-adv-x="270" 
d="M220 382q0 -43 -22.5 -69.5t-54.5 -26.5t-55 26.5t-23 69.5q0 42 23 68t55 26q31 0 54 -26t23 -68z" />
    <glyph glyph-name="perthousand" unicode="&#x2030;" horiz-adv-x="812" 
d="M708 302q-22 0 -33.5 11t-11.5 31q0 25 15 40.5t37 15.5q37 0 64.5 -54.5t27.5 -152.5q0 -105 -31.5 -159t-87.5 -54q-47 0 -79.5 53t-32.5 150q0 114 39.5 176t110.5 64q-48 -11 -69 -50t-21 -112q0 -54 17 -84t39 -30q47 0 47 117q0 82 -25 82q-19 0 -19 -21
q0 -19 20 -23h-7zM137 647q-44 0 -44 45q0 23 15 38t37 15q37 0 64 -54t27 -153q0 -105 -31.5 -159.5t-86.5 -54.5q-23 0 -43.5 13.5t-36 40t-24.5 64.5t-9 86q0 115 39.5 176t110.5 64q-48 -10 -69 -49t-21 -113q0 -54 17 -84t39 -30q23 0 35.5 29.5t12.5 87.5q0 82 -26 82
q-18 0 -18 -21q0 -19 19 -23h-7zM406 758q-54 -190 -103 -382t-94 -390q-8 1 -17 1h-17h-16t-16 -1q57 196 107.5 388t95.5 384q8 0 15.5 -0.5t15.5 -0.5t15 0.5t14 0.5zM444 302q-45 0 -45 45q0 23 15.5 38t39.5 15q17 0 33 -14t28.5 -40.5t20 -65t7.5 -87.5
q0 -105 -31.5 -159t-87.5 -54q-47 0 -79.5 53t-32.5 150q0 115 39.5 176.5t110.5 63.5q-48 -10 -69 -49.5t-21 -112.5q0 -54 17 -84t39 -30t34.5 29.5t12.5 87.5q0 82 -25 82q-19 0 -19 -21q0 -19 20 -23h-7z" />
    <glyph glyph-name="plus" unicode="+" horiz-adv-x="833" 
d="M451 332h258v-68h-258v-264h-69v264h-258v68h258v264h69v-264z" />
    <glyph glyph-name="plusminus" unicode="&#xb1;" horiz-adv-x="833" 
d="M451 416h258v-68h-258v-166h-69v166h-258v68h258v166h69v-166zM709 14h-585v69h585v-69z" />
    <glyph glyph-name="q" unicode="q" horiz-adv-x="374" 
d="M384 -162q-38 -25 -80.5 -36.5t-90.5 -11.5h-6q-3 30 -3 61q0 72 8 146.5t10 152.5q-11 -81 -37 -122t-61 -41q-48 0 -76 62.5t-28 184.5q0 75 13.5 136t34 104t45 66.5t47.5 23.5q57 0 75 -93q1 18 1.5 35.5t1.5 35.5q57 12 92 12q9 0 21 -1t27 -3q-30 -80 -44.5 -171.5
t-14.5 -197.5q0 -126 17.5 -212t47.5 -131zM222 373q0 145 -43 145q-20 0 -34.5 -39.5t-14.5 -115.5q0 -74 13 -111t36 -37q17 0 30 40t13 118z" />
    <glyph glyph-name="question" unicode="?" horiz-adv-x="424" 
d="M126 560q0 23 12 36t33 13q26 0 44 -22t18 -58q0 -23 -8 -43t-22.5 -35t-34 -23.5t-42.5 -8.5q-25 0 -46 10.5t-36.5 29t-24.5 45.5t-9 60q0 40 15 75t42 60.5t64.5 40t81.5 14.5t81 -14.5t63.5 -41t41.5 -63t15 -79.5q0 -51 -19.5 -90t-59.5 -71q-23 -19 -44.5 -32
t-38 -24.5t-26 -23t-9.5 -27.5q0 -25 22 -25q25 0 27 38q4 -16 4 -33q0 -38 -20 -60.5t-52 -22.5q-29 0 -50.5 24.5t-21.5 63.5q0 41 21.5 71t52.5 64q32 34 53 67t21 80q0 48 -26 77.5t-66 29.5q-38 0 -63 -26.5t-25 -69.5q0 -28 11 -44t26 -16q14 0 23.5 9.5t9.5 23.5
t-6 22t-15 8q-13 0 -17 -16v7zM263 71q0 -38 -20.5 -61.5t-48.5 -23.5t-48 23.5t-20 61.5q0 37 20 60.5t48 23.5t48.5 -23.5t20.5 -60.5z" />
    <glyph glyph-name="questiondown" unicode="&#xbf;" horiz-adv-x="424" 
d="M299 670q0 -37 -20.5 -60.5t-48.5 -23.5t-48.5 23.5t-20.5 60.5t20.5 60.5t48.5 23.5t48.5 -23.5t20.5 -60.5zM298 187q1 -4 1 -10q0 -20 -13 -32.5t-33 -12.5q-26 0 -44 22t-18 58q0 46 30.5 77.5t77.5 31.5q49 0 82 -39t33 -105q0 -38 -15 -73.5t-43 -62.5
q-27 -26 -63 -40.5t-77 -14.5q-46 0 -84 14.5t-65 41t-42 63t-15 80.5q0 98 78 161q23 18 44.5 31t38 24.5t26.5 23t10 27.5q0 26 -23 26t-26 -39q-4 16 -4 33q0 38 20 61t52 23q29 0 50 -25t21 -63q0 -21 -5.5 -38t-15.5 -33t-23 -31.5t-29 -32.5q-33 -35 -53.5 -68.5
t-20.5 -78.5q0 -49 26 -78t66 -29q38 0 63 26.5t25 66.5q0 29 -11 45.5t-26 16.5q-14 0 -23.5 -9.5t-9.5 -23.5t6 -22t15 -8q13 0 17 16z" />
    <glyph glyph-name="quotedbl" unicode="&#x22;" horiz-adv-x="300" 
d="M112 430h-68v271h68v-271zM256 430h-68v271h68v-271z" />
    <glyph glyph-name="quotedblbase" unicode="&#x201e;" horiz-adv-x="382" 
d="M237 -147q24 22 36 44.5t12 49.5q0 34 -25 58q-11 10 -19.5 19t-14.5 19.5t-9.5 23t-3.5 29.5q0 35 20 56t53 21q32 0 54 -29.5t22 -80.5q0 -32 -8.5 -62.5t-25 -58.5t-39.5 -51t-52 -38zM44 -147q24 22 36 44.5t12 49.5q0 34 -25 58q-11 10 -19.5 19t-14.5 19.5t-9.5 23
t-3.5 29.5q0 35 20 56t53 21q32 0 54.5 -29.5t22.5 -80.5q0 -31 -8.5 -62t-25 -59t-40 -51t-52.5 -38z" />
    <glyph glyph-name="quotedblleft" unicode="&#x201c;" horiz-adv-x="336" 
d="M306 755q-49 -39 -49 -85q0 -28 9 -41t20 -25l11.5 -13t9.5 -14t6.5 -18t2.5 -25q0 -34 -17.5 -53.5t-45.5 -19.5q-33 0 -53.5 25.5t-20.5 71.5q0 26 9 54t25.5 55t40 50t52.5 38zM146 755q-49 -39 -49 -85q0 -28 9.5 -40.5t20.5 -25.5q12 -14 21 -27.5t9 -42.5
q0 -34 -18 -53.5t-46 -19.5q-33 0 -53 25t-20 72q0 26 8.5 54.5t25 55t40 49.5t52.5 38z" />
    <glyph glyph-name="quotedblright" unicode="&#x201d;" horiz-adv-x="349" 
d="M213 456q44 40 44 87q0 26 -10.5 38l-22.5 25q-14 16 -23.5 31t-9.5 43q0 33 18.5 52.5t49.5 19.5q29 0 49.5 -27.5t20.5 -74.5q0 -59 -31 -112.5t-85 -81.5zM42 456q45 39 45 87q0 25 -11 37.5l-23 25.5q-15 15 -24 30t-9 44q0 33 18.5 52.5t49.5 19.5q29 0 50 -27
t21 -75q0 -58 -31.5 -111.5t-85.5 -82.5z" />
    <glyph glyph-name="quoteleft" unicode="&#x2018;" horiz-adv-x="177" 
d="M146 755q-49 -39 -49 -85q0 -28 9.5 -40.5t20.5 -25.5q12 -14 21 -27.5t9 -42.5q0 -34 -18 -53.5t-46 -19.5q-33 0 -53 25t-20 72q0 26 8.5 54.5t25 55t40 49.5t52.5 38z" />
    <glyph glyph-name="quoteright" unicode="&#x2019;" horiz-adv-x="179" 
d="M42 456q45 39 45 87q0 25 -11 37.5l-23 25.5q-15 15 -24 30t-9 44q0 33 18.5 52.5t49.5 19.5q29 0 50 -27t21 -75q0 -58 -31.5 -111.5t-85.5 -82.5z" />
    <glyph glyph-name="quotesinglbase" unicode="&#x201a;" horiz-adv-x="190" 
d="M44 -147q24 22 36 44.5t12 49.5q0 34 -25 58q-11 10 -19.5 19t-14.5 19.5t-9.5 23t-3.5 29.5q0 35 20 56t53 21q32 0 54.5 -29.5t22.5 -80.5q0 -31 -8.5 -62t-25 -59t-40 -51t-52.5 -38z" />
    <glyph glyph-name="quotesingle" unicode="'" horiz-adv-x="155" 
d="M112 430h-68v271h68v-271z" />
    <glyph glyph-name="r" unicode="r" horiz-adv-x="338" 
d="M161 438q17 63 42 94.5t55 31.5q37 0 63.5 -44.5t26.5 -124.5q0 -72 -24 -112t-59 -40q-33 0 -53.5 31t-20.5 88q0 51 18 84.5t49 42.5q-13 -12 -13 -27q0 -11 7 -19t17 -8q11 0 18 10t7 29q0 26 -11.5 41.5t-28.5 15.5q-38 0 -64.5 -65.5t-26.5 -188.5q0 -177 58 -277
q-24 -4 -49.5 -5.5t-52.5 -1.5q-52 0 -93 7q33 130 33 256q0 60 -9 105t-30 76q38 51 77 82.5t78 44.5q-7 -32 -10 -63t-4 -63z" />
    <glyph glyph-name="registered" unicode="&#xae;" horiz-adv-x="379" 
d="M189 753q33 0 61.5 -12t49 -32.5t32.5 -48.5t12 -61q0 -32 -12 -60t-33.5 -49t-50.5 -33t-62 -12q-31 0 -58.5 12t-48 33t-32.5 50t-12 62q0 30 12 57.5t33 48.5t49 33t60 12zM189 729q-27 0 -51 -10t-41.5 -27.5t-27.5 -41t-10 -51.5t10 -52t28 -42t41.5 -28t50.5 -10
q28 0 52 10t42 28t28 42t10 52t-10 51.5t-27.5 41t-42 27.5t-52.5 10zM188 682q71 0 71 -49q0 -30 -36 -44l37 -74h-40l-32 69h-24v-69h-35v167h59zM164 607h24q33 0 33 24t-35 24h-22v-48z" />
    <glyph glyph-name="ring" unicode="&#x2da;" 
d="M354 704q0 -41 -28 -69t-69 -28q-42 0 -69.5 27.5t-27.5 69.5t27.5 69.5t69.5 27.5q41 0 69 -28t28 -69zM313 704q0 23 -16.5 39.5t-39.5 16.5q-24 0 -40.5 -16.5t-16.5 -39.5q0 -24 16.5 -40.5t40.5 -16.5q23 0 39.5 16.5t16.5 40.5z" />
    <glyph glyph-name="s" unicode="s" horiz-adv-x="334" 
d="M206 493q-6 -8 -6 -17q0 -22 22 -22t22 28q0 16 -14 29t-34 13q-26 0 -44 -19.5t-18 -51.5q0 -35 23 -58t63 -51q28 -20 50 -38.5t37.5 -39.5t23.5 -45.5t8 -56.5q0 -39 -13 -71.5t-36.5 -56t-56 -36.5t-71.5 -13q-36 0 -67 11.5t-53 31t-34.5 46t-12.5 57.5
q0 48 28.5 78.5t70.5 30.5q52 0 61 -58q-8 6 -15 6q-9 0 -16.5 -9t-7.5 -23q0 -16 12.5 -28t30.5 -12q17 0 29 11.5t12 27.5q0 27 -20.5 46.5t-53.5 46.5q-44 35 -65 73.5t-21 89.5q0 33 11 61t31.5 48t48 31t60.5 11q53 0 86.5 -31.5t33.5 -77.5q0 -34 -20.5 -56.5
t-49.5 -22.5t-47.5 19t-18.5 50q0 30 31 48z" />
    <glyph glyph-name="scaron" unicode="&#x161;" horiz-adv-x="334" 
d="M206 493q-6 -8 -6 -17q0 -22 22 -22t22 28q0 16 -14 29t-34 13q-26 0 -44 -19.5t-18 -51.5q0 -35 23 -58t63 -51q28 -20 50 -38.5t37.5 -39.5t23.5 -45.5t8 -56.5q0 -39 -13 -71.5t-36.5 -56t-56 -36.5t-71.5 -13q-36 0 -67 11.5t-53 31t-34.5 46t-12.5 57.5
q0 48 28.5 78.5t70.5 30.5q52 0 61 -58q-8 6 -15 6q-9 0 -16.5 -9t-7.5 -23q0 -16 12.5 -28t30.5 -12q17 0 29 11.5t12 27.5q0 27 -20.5 46.5t-53.5 46.5q-44 35 -65 73.5t-21 89.5q0 33 11 61t31.5 48t48 31t60.5 11q53 0 86.5 -31.5t33.5 -77.5q0 -34 -20.5 -56.5
t-49.5 -22.5t-47.5 19t-18.5 50q0 30 31 48zM344 747q-66 -57 -119 -123q-11 2 -22 2h-22h-21.5t-21.5 -2q-27 33 -56.5 63.5t-62.5 59.5q100 -12 163 -69q68 61 162 69z" />
    <glyph glyph-name="section" unicode="&#xa7;" horiz-adv-x="459" 
d="M407 482q-20 93 -55.5 139t-85.5 46q-29 0 -45.5 -16.5t-16.5 -45.5q0 -34 27.5 -61t77.5 -62q36 -26 63.5 -49t47 -48.5t29.5 -54.5t10 -66q0 -60 -29.5 -104.5t-91.5 -79.5q54 -36 79.5 -78.5t25.5 -96.5q0 -44 -16.5 -81.5t-46.5 -64.5t-72 -42.5t-94 -15.5
q-46 0 -85.5 14.5t-68 40t-44.5 58.5t-16 71q0 65 36.5 107.5t105.5 54.5q-125 65 -125 181q0 145 163 175q-54 42 -79.5 85t-25.5 96q0 34 13 65t35.5 54t52.5 36.5t65 13.5q22 0 40.5 -5t34 -11l27.5 -11t22 -5q25 0 40 25l2 -264v0zM235 244q2 10 2 15q0 32 -35 32
q-19 0 -31.5 -14t-12.5 -37q0 -32 23.5 -54t60.5 -22q38 0 62 23.5t24 61.5q0 32 -19 58.5t-55 58.5q17 -23 17 -53q0 -42 -36 -69zM204 -101q0 41 -37 41q-18 0 -30.5 -15.5t-12.5 -41.5q0 -28 24.5 -49t62.5 -21q37 0 61 24.5t24 65.5q0 31 -21 58t-63 58q22 -25 22 -57
q0 -37 -30 -66v3z" />
    <glyph glyph-name="semicolon" unicode=";" horiz-adv-x="184" 
d="M164 404q0 -40 -21 -64.5t-51 -24.5q-29 0 -50.5 25t-21.5 64q0 38 21.5 62.5t50.5 24.5t50.5 -24.5t21.5 -62.5zM46 -136q44 40 44 87q0 25 -10.5 38t-22.5 26q-14 15 -23.5 29.5t-9.5 43.5q0 33 18.5 52.5t48.5 19.5t50.5 -27t20.5 -75q0 -59 -31 -112t-85 -82z" />
    <glyph glyph-name="semicolon" unicode="&#x37e;" horiz-adv-x="184" 
d="M164 404q0 -40 -21 -64.5t-51 -24.5q-29 0 -50.5 25t-21.5 64q0 38 21.5 62.5t50.5 24.5t50.5 -24.5t21.5 -62.5zM46 -136q44 40 44 87q0 25 -10.5 38t-22.5 26q-14 15 -23.5 29.5t-9.5 43.5q0 33 18.5 52.5t48.5 19.5t50.5 -27t20.5 -75q0 -59 -31 -112t-85 -82z" />
    <glyph glyph-name="seven" unicode="7" horiz-adv-x="364" 
d="M359 603q0 -37 -6 -68.5t-17 -60t-25.5 -55.5t-30.5 -54l-28.5 -47.5t-25.5 -49t-18 -55t-7 -64.5q0 -46 12.5 -82t41.5 -67q-23 -2 -47.5 -3.5t-51.5 -1.5q-22 0 -48 1.5t-56 3.5q-1 9 -1 17.5v17.5q0 81 18 146.5t62 127.5l55.5 75t50 72t38 73t20.5 79
q-35 -102 -114 -102q-20 0 -34.5 8.5t-31.5 20.5l-29 20t-28 9q-46 0 -48 -95q-2 34 -3.5 67.5t-1.5 68.5q0 28 1.5 55t3.5 54q42 36 94 36q37 0 65.5 -18.5t62.5 -44.5q18 -14 34 -14q14 0 23 8.5t9 22.5q0 13 -10.5 22.5t-30.5 11.5q18 1 31.5 1h21.5h20t29 -1v-135z" />
    <glyph glyph-name="six" unicode="6" horiz-adv-x="397" 
d="M144 415q21 32 46 46t59 14q31 0 58.5 -16t47 -45t31 -71.5t11.5 -94.5q0 -126 -48 -194t-134 -68q-99 0 -149.5 92t-50.5 275q0 95 16 169.5t45 126t69 78.5t88 27q34 0 62 -10.5t48 -29.5t31 -45t11 -57q0 -27 -8.5 -49.5t-23.5 -39t-34.5 -25.5t-41.5 -9q-35 0 -56 19
t-21 48q0 31 34 52q-6 -8 -6 -17q0 -28 29 -28q13 0 23 12t10 30q0 23 -15.5 38.5t-38.5 15.5q-42 0 -67.5 -49.5t-25.5 -142.5v-19l1 -33v0zM266 239q0 64 -14 96.5t-40 32.5q-52 0 -52 -129q0 -123 52 -123q54 0 54 123z" />
    <glyph glyph-name="slash" unicode="/" horiz-adv-x="307" 
d="M287 750l-100.5 -379l-95.5 -393q-9 1 -18.5 1h-18.5h-17t-17 -1q57 195 107.5 386.5t95.5 385.5q8 0 16.5 -0.5t16.5 -0.5t15.5 0.5t15.5 0.5z" />
    <glyph glyph-name="space" unicode=" " horiz-adv-x="177" 
 />
    <glyph glyph-name="space" unicode="&#xa0;" horiz-adv-x="177" 
 />
    <glyph glyph-name="sterling" unicode="&#xa3;" horiz-adv-x="477" 
d="M465 274q13 -36 13 -73q0 -100 -35 -155.5t-91 -55.5q-38 0 -66 21t-51 66q-28 -44 -55 -65.5t-59 -21.5q-43 0 -72.5 34t-29.5 86q0 34 11.5 63t32.5 50t49 32.5t61 11.5q38 0 73 -19l1 6v2q0 21 -29.5 48t-86.5 66q-36 -2 -117 -3q1 8 1.5 14t0.5 11t-0.5 12.5
t-1.5 16.5l73 -4q-41 60 -41 128q0 46 15.5 85t42.5 67t63.5 44t79.5 16q37 0 67.5 -11.5t53 -32t35 -49t12.5 -62.5q0 -29 -8 -52.5t-22 -40t-32.5 -26t-40.5 -9.5q-39 0 -65 24.5t-26 58.5q0 59 68 72q-19 -10 -19 -26q0 -12 9 -20.5t22 -8.5q14 0 22.5 10.5t8.5 27.5
q0 30 -22.5 50.5t-60.5 20.5t-64 -26t-26 -66q0 -24 10.5 -44t29 -39.5t43.5 -41t53 -50.5q37 2 67 2.5t53 2.5q-1 -4 -1 -9v-10v-16t1 -19q-66 1 -96 3q7 -22 7 -48q0 -43 -21 -97l45.5 -34.5t41.5 -14.5q32 0 52 25t21 73zM204 126q-35 65 -68 65q-26 0 -43.5 -19
t-17.5 -48t15 -44.5t40 -15.5q47 0 74 62z" />
    <glyph glyph-name="t" unicode="t" horiz-adv-x="259" 
d="M228 322q31 -74 31 -148q0 -91 -30 -139t-82 -48q-56 0 -87.5 42.5t-31.5 120.5q0 47 12.5 91.5t23.5 90.5q16 73 18 162q-11 1 -21.5 1h-21.5h-22t-22 -1q55 45 97 111t74 154q0 -29 -0.5 -57.5t-0.5 -56.5t0.5 -54t0.5 -52q11 -1 20.5 -1h20.5h21t20 1q1 -6 1 -12v-11
v-11.5t-1 -10.5q-11 1 -21 1h-20h-20.5t-20.5 -1q-3 -78 -3 -169q0 -40 7 -59.5t26 -19.5q34 0 34 53q0 5 -0.5 11t-1.5 12z" />
    <glyph glyph-name="thorn" unicode="&#xfe;" horiz-adv-x="397" 
d="M167 417q16 73 45.5 110t63.5 37q21 0 40 -18.5t33.5 -53.5t23.5 -86t9 -116q0 -151 -31 -227t-86 -76q-37 0 -63 36.5t-37 107.5v-38q0 -112 14.5 -186t51.5 -115q-29 -4 -59 -5.5t-59 -1.5t-58.5 1.5t-59.5 5.5q32 83 52 209.5t20 294.5q0 123 -13 210t-42 141
q35 51 75.5 82.5t82.5 43.5q-3 -57 -4 -112t-1 -108v-69t2 -67zM272 326q0 145 -45 145q-20 0 -34.5 -39.5t-14.5 -115.5q0 -144 49 -144q17 0 31 39.5t14 114.5z" />
    <glyph glyph-name="three" unicode="3" horiz-adv-x="409" 
d="M282 444q60 -19 93.5 -74t33.5 -137q0 -55 -16 -100.5t-45 -77.5t-70 -50t-91 -18q-43 0 -79 15t-62.5 41.5t-41 63t-14.5 80.5q0 35 11 65t30 52t44.5 34.5t54.5 12.5q43 0 68.5 -22.5t25.5 -56.5q0 -54 -63 -66q19 12 19 30q0 15 -9.5 24.5t-26.5 9.5q-20 0 -32.5 -17
t-12.5 -46q0 -38 24.5 -63t59.5 -25q41 0 66 35t25 96q0 131 -76 131q-4 0 -9 -0.5t-13 -1.5q3 30 3 60q0 31 -3 61q6 -1 12 -1.5t12 -0.5q24 0 38 21.5t14 60.5q0 36 -17.5 56.5t-45.5 20.5q-26 0 -41.5 -15t-15.5 -38q0 -14 7.5 -23t17.5 -9q19 0 19 24q0 6 -3 14
q23 -17 23 -43q0 -29 -19 -48.5t-51 -19.5q-41 0 -67 29t-26 77q0 30 13.5 57t36.5 48t54 33t66 12q41 0 74.5 -11.5t57.5 -32.5t37 -50t13 -64q0 -56 -24 -92t-79 -61z" />
    <glyph glyph-name="threequarters" unicode="&#xbe;" horiz-adv-x="820" 
d="M178 576q37 -11 58.5 -41.5t21.5 -77.5q0 -62 -38.5 -99.5t-101.5 -37.5q-55 0 -89.5 31t-34.5 81q0 39 25.5 65.5t62.5 26.5q27 0 43 -12.5t16 -32.5q0 -30 -40 -37q12 7 12 17q0 19 -22 19q-13 0 -21 -9.5t-8 -25.5q0 -21 15.5 -35t37.5 -14q26 0 42 19.5t16 53.5
q0 73 -48 73h-5.5t-8.5 -1q1 8 1.5 17t0.5 17t-0.5 17t-1.5 17q5 -1 15 -1q15 0 24 12t9 34q0 20 -11.5 31.5t-28.5 11.5q-16 0 -26 -8.5t-10 -21.5q0 -8 5 -13t11 -5q12 0 12 14q0 2 -2 8q14 -10 14 -24q0 -17 -12 -28t-32 -11q-26 0 -42 16.5t-16 43.5q0 17 8.5 32
t23 26.5t34 18.5t41.5 7q52 0 83.5 -25t31.5 -64q0 -31 -15 -51t-50 -34zM545 750l-100.5 -379l-95.5 -393q-9 1 -18.5 1h-18.5h-17t-17 -1q57 195 107.5 386.5t95.5 385.5q8 0 16.5 -0.5t16.5 -0.5t15.5 0.5t15.5 0.5zM768 105v-12q0 -47 20 -93q-14 -2 -30 -2h-33h-32
t-29 2q27 48 27 105h-126q1 9 1 18v18v18.5t-1 18.5q32 57 56 115.5t44 119.5q15 1 27.5 1h23.5h23t30 -1q-2 -87 -2 -135v-59v-40q26 0 38.5 4.5t14.5 17.5q0 -12 -0.5 -24.5t-0.5 -25.5t0.5 -24t0.5 -22h-52zM692 356q-14 -45 -31 -89t-39 -88h66q2 42 2.5 86t1.5 91z" />
    <glyph glyph-name="threesuperior" unicode="&#xb3;" horiz-adv-x="270" 
d="M186 563q39 -11 61.5 -44t22.5 -82q0 -66 -40.5 -107t-106.5 -41q-57 0 -93.5 33.5t-36.5 86.5q0 21 7.5 39.5t20 31.5t29.5 20.5t36 7.5q28 0 45 -14t17 -34q0 -33 -42 -39q13 6 13 18q0 20 -24 20q-13 0 -21.5 -10.5t-8.5 -27.5q0 -23 16.5 -38t39.5 -15q26 0 43 21
t17 58q0 79 -50 79q-3 0 -6.5 -0.5t-8.5 -1.5q1 9 1.5 18t0.5 18t-0.5 18.5t-1.5 18.5q4 -1 8 -1h8q34 0 34 49q0 22 -11.5 34t-29.5 12q-17 0 -27.5 -9t-10.5 -23q0 -8 5 -13.5t12 -5.5q12 0 12 15q0 5 -2 8q15 -10 15 -26q0 -17 -12.5 -29t-33.5 -12q-26 0 -43.5 17.5
t-17.5 46.5q0 18 9 34.5t24 28.5t35.5 19.5t43.5 7.5q55 0 87.5 -26.5t32.5 -68.5q0 -33 -16 -55t-52 -37z" />
    <glyph glyph-name="tilde" unicode="&#x2dc;" 
d="M390 772q-18 -156 -94 -156q-15 0 -27.5 4.5t-24 10t-22.5 10t-23 4.5q-49 0 -73 -58q8 78 32.5 117.5t60.5 39.5q15 0 28 -5t25.5 -11t24.5 -11t26 -5q51 0 67 60z" />
    <glyph glyph-name="trademark" unicode="&#x2122;" horiz-adv-x="409" 
d="M244 738l39 -100l36 100h57v-166h-39v125l-46 -125h-18l-47 125v-125h-40v166h58zM153 738v-33h-51v-133h-41v133h-51v33h143z" />
    <glyph glyph-name="two" unicode="2" horiz-adv-x="409" 
d="M360 306q44 -62 44 -133q0 -91 -35.5 -139t-98.5 -48q-31 0 -52 11t-44 31q-20 17 -33.5 29.5t-27.5 12.5q-13 0 -21 -8t-8 -21q0 -32 42 -41q-17 -1 -29 -1.5t-20 -0.5t-21 0.5t-33 1.5q-3 36 -3 71q0 47 6 86t19.5 72.5t35.5 63t53 59.5l42.5 40t36.5 41t25.5 49
t9.5 63q0 51 -22 79t-57 28q-29 0 -50 -21.5t-21 -51.5q0 -22 11 -34.5t28 -12.5q13 0 23 11.5t10 29.5q0 17 -11 29q29 -14 40 -32.5t11 -49.5q0 -42 -24.5 -68.5t-62.5 -26.5q-42 0 -71 36.5t-29 95.5q0 43 14 79t39 62t58.5 40.5t72.5 14.5q40 0 73 -14t56.5 -39
t36.5 -60.5t13 -78.5q0 -40 -10.5 -71.5t-30 -59t-47.5 -52t-64 -51.5q-48 -35 -78.5 -66t-35.5 -74q24 59 73 59q15 0 29 -6.5t28 -14.5t28.5 -14.5t29.5 -6.5q25 0 41.5 19t16.5 51q0 15 -6 32z" />
    <glyph glyph-name="twosuperior" unicode="&#xb2;" horiz-adv-x="270" 
d="M238 481q14 -20 21.5 -39t7.5 -41q0 -55 -23.5 -83.5t-65.5 -28.5q-20 0 -34 6.5t-29 18.5l-22 18t-18 7q-20 0 -20 -17q0 -19 28 -25q-11 -1 -19 -1h-13h-14t-22 1q-1 11 -1.5 21.5t-0.5 21.5q0 56 17 94.5t58 73.5l28.5 24.5t24 24.5t17 29t6.5 38q0 31 -14.5 47.5
t-37.5 16.5q-20 0 -33.5 -13t-13.5 -31q0 -28 25 -28q9 0 15.5 7t6.5 18q0 10 -7 17q19 -8 26.5 -19t7.5 -30q0 -26 -16.5 -41.5t-41.5 -15.5q-27 0 -46.5 22t-19.5 57q0 26 9.5 47.5t26 37.5t38.5 24.5t48 8.5q53 0 85.5 -31.5t32.5 -83.5q0 -24 -7 -43t-19.5 -35.5
t-31.5 -31.5t-43 -31q-32 -21 -51.5 -39.5t-23.5 -44.5q16 36 48 36q10 0 19 -4t18.5 -9t19 -9t19.5 -4q17 0 28 11.5t11 30.5q0 5 -1 10t-3 10z" />
    <glyph glyph-name="u" unicode="u" horiz-adv-x="400" 
d="M397 236q3 -29 3 -58q0 -91 -28 -141t-70 -50q-31 0 -50 35t-19 103q0 19 1.5 40.5t5.5 45.5q-13 -29 -18 -63.5t-16 -69.5q-28 -91 -100 -91q-45 0 -70.5 38.5t-25.5 108.5q0 24 4 47.5t13 47.5q16 44 32 80t16 71q0 15 -7 24t-16 9q-18 0 -22 -22q-3 15 -3 30
q0 64 28 103t68 39q42 0 65 -33t23 -96q0 -35 -11.5 -64t-27.5 -61l-28 -57.5t-12 -49.5q0 -20 8.5 -31t22.5 -11q16 0 32 15.5t29 44t21 68.5t8 89q0 100 -35 147q49 32 102 32q11 0 20.5 -1t18.5 -5q10 -18 14 -36.5t4 -39.5q0 -28 -5 -56.5t-11.5 -56.5t-11.5 -56.5
t-5 -56.5q0 -24 7.5 -37t18.5 -13q21 0 27 38z" />
    <glyph glyph-name="uacute" unicode="&#xfa;" horiz-adv-x="400" 
d="M397 236q3 -29 3 -58q0 -91 -28 -141t-70 -50q-31 0 -50 35t-19 103q0 19 1.5 40.5t5.5 45.5q-13 -29 -18 -63.5t-16 -69.5q-28 -91 -100 -91q-45 0 -70.5 38.5t-25.5 108.5q0 24 4 47.5t13 47.5q16 44 32 80t16 71q0 15 -7 24t-16 9q-18 0 -22 -22q-3 15 -3 30
q0 64 28 103t68 39q42 0 65 -33t23 -96q0 -35 -11.5 -64t-27.5 -61l-28 -57.5t-12 -49.5q0 -20 8.5 -31t22.5 -11q16 0 32 15.5t29 44t21 68.5t8 89q0 100 -35 147q49 32 102 32q11 0 20.5 -1t18.5 -5q10 -18 14 -36.5t4 -39.5q0 -28 -5 -56.5t-11.5 -56.5t-11.5 -56.5
t-5 -56.5q0 -24 7.5 -37t18.5 -13q21 0 27 38zM118 604q73 34 97 93q9 21 16 40.5t15.5 34t20.5 23.5t30 9q17 0 29 -12t12 -32t-14.5 -43t-42.5 -45t-69 -40t-94 -28z" />
    <glyph glyph-name="ucircumflex" unicode="&#xfb;" horiz-adv-x="400" 
d="M397 236q3 -29 3 -58q0 -91 -28 -141t-70 -50q-31 0 -50 35t-19 103q0 19 1.5 40.5t5.5 45.5q-13 -29 -18 -63.5t-16 -69.5q-28 -91 -100 -91q-45 0 -70.5 38.5t-25.5 108.5q0 24 4 47.5t13 47.5q16 44 32 80t16 71q0 15 -7 24t-16 9q-18 0 -22 -22q-3 15 -3 30
q0 64 28 103t68 39q42 0 65 -33t23 -96q0 -35 -11.5 -64t-27.5 -61l-28 -57.5t-12 -49.5q0 -20 8.5 -31t22.5 -11q16 0 32 15.5t29 44t21 68.5t8 89q0 100 -35 147q49 32 102 32q11 0 20.5 -1t18.5 -5q10 -18 14 -36.5t4 -39.5q0 -28 -5 -56.5t-11.5 -56.5t-11.5 -56.5
t-5 -56.5q0 -24 7.5 -37t18.5 -13q21 0 27 38zM376 606q-51 5 -92 22t-71 46q-66 -60 -163 -68q48 39 89 84t74 98q66 -105 163 -182z" />
    <glyph glyph-name="udieresis" unicode="&#xfc;" horiz-adv-x="400" 
d="M397 236q3 -29 3 -58q0 -91 -28 -141t-70 -50q-31 0 -50 35t-19 103q0 19 1.5 40.5t5.5 45.5q-13 -29 -18 -63.5t-16 -69.5q-28 -91 -100 -91q-45 0 -70.5 38.5t-25.5 108.5q0 24 4 47.5t13 47.5q16 44 32 80t16 71q0 15 -7 24t-16 9q-18 0 -22 -22q-3 15 -3 30
q0 64 28 103t68 39q42 0 65 -33t23 -96q0 -35 -11.5 -64t-27.5 -61l-28 -57.5t-12 -49.5q0 -20 8.5 -31t22.5 -11q16 0 32 15.5t29 44t21 68.5t8 89q0 100 -35 147q49 32 102 32q11 0 20.5 -1t18.5 -5q10 -18 14 -36.5t4 -39.5q0 -28 -5 -56.5t-11.5 -56.5t-11.5 -56.5
t-5 -56.5q0 -24 7.5 -37t18.5 -13q21 0 27 38zM398 685q0 -32 -22.5 -54.5t-55.5 -22.5q-32 0 -54.5 22.5t-22.5 54.5q0 33 22.5 55.5t54.5 22.5q33 0 55.5 -22.5t22.5 -55.5zM188 685q0 -32 -22.5 -54.5t-54.5 -22.5q-33 0 -55.5 22.5t-22.5 54.5q0 33 22.5 55.5t55.5 22.5
q16 0 30 -6t24.5 -16.5t16.5 -25t6 -30.5z" />
    <glyph glyph-name="ugrave" unicode="&#xf9;" horiz-adv-x="400" 
d="M397 236q3 -29 3 -58q0 -91 -28 -141t-70 -50q-31 0 -50 35t-19 103q0 19 1.5 40.5t5.5 45.5q-13 -29 -18 -63.5t-16 -69.5q-28 -91 -100 -91q-45 0 -70.5 38.5t-25.5 108.5q0 24 4 47.5t13 47.5q16 44 32 80t16 71q0 15 -7 24t-16 9q-18 0 -22 -22q-3 15 -3 30
q0 64 28 103t68 39q42 0 65 -33t23 -96q0 -35 -11.5 -64t-27.5 -61l-28 -57.5t-12 -49.5q0 -20 8.5 -31t22.5 -11q16 0 32 15.5t29 44t21 68.5t8 89q0 100 -35 147q49 32 102 32q11 0 20.5 -1t18.5 -5q10 -18 14 -36.5t4 -39.5q0 -28 -5 -56.5t-11.5 -56.5t-11.5 -56.5
t-5 -56.5q0 -24 7.5 -37t18.5 -13q21 0 27 38zM304 607q-54 10 -95 28t-69 39.5t-42.5 45t-14.5 43.5q0 18 12.5 30.5t29.5 12.5q29 0 44.5 -23t29.5 -64q15 -42 40.5 -69.5t64.5 -42.5z" />
    <glyph glyph-name="underscore" unicode="_" 
d="M500 -236h-500v70h500v-70z" />
    <glyph glyph-name="v" unicode="v" horiz-adv-x="322" 
d="M245 314q-35 4 -58 40.5t-23 93.5q0 54 20 85t49 31q37 0 58 -60t21 -178q0 -80 -11.5 -143t-31 -106.5t-46 -66.5t-57.5 -23q-58 0 -92 51t-34 149q0 35 3 68.5t3 65.5q0 53 -10.5 81.5t-40.5 36.5q22 46 48 77t60 48q16 -6 24.5 -22t12 -41.5t4.5 -61t1 -81.5
q1 -92 12.5 -137t50.5 -45q13 0 26 10.5t23 29t16.5 44t6.5 55.5q0 70 -28 70q-11 0 -18 -9t-7 -26q0 -24 18 -36z" />
    <glyph glyph-name="w" unicode="w" horiz-adv-x="480" 
d="M404 313q-35 0 -54 28.5t-19 80.5q0 66 21 103.5t48 37.5q70 0 70 -226q0 -82 -11.5 -147t-30.5 -110t-43.5 -69t-51.5 -24q-42 0 -71 43.5t-41 130.5q-13 -87 -43 -130.5t-72 -43.5q-38 0 -63.5 41t-25.5 113q0 30 4.5 59.5t10.5 59t10.5 59t4.5 59.5q0 88 -52 104
q36 40 67.5 60t62.5 21q25 -20 35.5 -43t10.5 -55q0 -27 -6 -54.5t-12.5 -54.5l-12.5 -54t-6 -54q0 -25 9.5 -37.5t23.5 -12.5q21 0 33.5 37t12.5 112q0 123 -27 171q20 18 43 26t51 8q24 0 48 -8q-11 -48 -16.5 -92t-5.5 -84q0 -84 18 -127t53 -43q24 0 42 31.5t18 85.5
q0 33 -7 50.5t-17 17.5q-9 0 -15.5 -9t-6.5 -25q0 -13 3.5 -21t14.5 -15h-5v0z" />
    <glyph glyph-name="x" unicode="x" horiz-adv-x="363" 
d="M348 267q4 -18 5.5 -36.5t1.5 -36.5q0 -98 -31 -152.5t-76 -54.5q-66 0 -91 99q-35 -99 -82 -99q-29 0 -51 33t-22 92q0 62 19 95.5t45 33.5q27 0 38 -32h-3q-28 0 -28 -55q0 -26 10.5 -41.5t24.5 -15.5q12 0 24 13.5t12 36.5q0 17 -12.5 65.5l-33.5 129.5
q-6 23 -13.5 33.5t-20.5 10.5q-26 0 -27 -45q-4 23 -6 39.5t-2 28.5q0 33 7 61.5t19 49t27.5 32t32.5 11.5q35 0 58 -37.5t40 -115.5q29 146 82 146q26 0 42.5 -28.5t16.5 -82.5q0 -52 -19 -81.5t-42 -29.5q-18 0 -28 16h1q11 0 17.5 10.5t6.5 27.5t-7.5 26.5t-19.5 9.5
q-13 0 -25 -17.5t-12 -39.5q0 -11 6.5 -47t23.5 -90q15 -47 43 -47q41 0 49 84z" />
    <glyph glyph-name="y" unicode="y" horiz-adv-x="386" 
d="M396 561q-53 -167 -53 -307q0 -51 5.5 -102t5.5 -102q0 -231 -160 -231q-72 0 -114.5 45.5t-42.5 126.5v14q17 -40 40.5 -58.5t59.5 -18.5q54 0 78.5 49.5t24.5 150.5v31.5t-1 49.5q-18 -100 -51.5 -150.5t-79.5 -50.5q-42 0 -67.5 32.5t-25.5 89.5q0 36 15 72
q21 52 36 92.5t15 74.5q0 24 -7.5 37t-18.5 13q-19 0 -24 -29q-4 15 -4 30q0 65 27.5 103t65.5 38q42 0 66.5 -32.5t24.5 -93.5q0 -33 -10.5 -62.5t-24.5 -59.5l-24 -51.5t-11 -47.5q0 -36 27 -36q13 0 27.5 14t26 39.5t19 62.5t7.5 83q0 52 -16 103q69 68 164 81z" />
    <glyph glyph-name="yacute" unicode="&#xfd;" horiz-adv-x="386" 
d="M396 561q-53 -167 -53 -307q0 -51 5.5 -102t5.5 -102q0 -231 -160 -231q-72 0 -114.5 45.5t-42.5 126.5v14q17 -40 40.5 -58.5t59.5 -18.5q54 0 78.5 49.5t24.5 150.5v31.5t-1 49.5q-18 -100 -51.5 -150.5t-79.5 -50.5q-42 0 -67.5 32.5t-25.5 89.5q0 36 15 72
q21 52 36 92.5t15 74.5q0 24 -7.5 37t-18.5 13q-19 0 -24 -29q-4 15 -4 30q0 65 27.5 103t65.5 38q42 0 66.5 -32.5t24.5 -93.5q0 -33 -10.5 -62.5t-24.5 -59.5l-24 -51.5t-11 -47.5q0 -36 27 -36q13 0 27.5 14t26 39.5t19 62.5t7.5 83q0 52 -16 103q69 68 164 81zM135 604
q73 34 97 93q9 21 16 40.5t15.5 34t20.5 23.5t30 9q17 0 29 -12t12 -32t-14.5 -43t-42.5 -45t-69 -40t-94 -28z" />
    <glyph glyph-name="ydieresis" unicode="&#xff;" horiz-adv-x="386" 
d="M396 561q-53 -167 -53 -307q0 -51 5.5 -102t5.5 -102q0 -231 -160 -231q-72 0 -114.5 45.5t-42.5 126.5v14q17 -40 40.5 -58.5t59.5 -18.5q54 0 78.5 49.5t24.5 150.5v31.5t-1 49.5q-18 -100 -51.5 -150.5t-79.5 -50.5q-42 0 -67.5 32.5t-25.5 89.5q0 36 15 72
q21 52 36 92.5t15 74.5q0 24 -7.5 37t-18.5 13q-19 0 -24 -29q-4 15 -4 30q0 65 27.5 103t65.5 38q42 0 66.5 -32.5t24.5 -93.5q0 -33 -10.5 -62.5t-24.5 -59.5l-24 -51.5t-11 -47.5q0 -36 27 -36q13 0 27.5 14t26 39.5t19 62.5t7.5 83q0 52 -16 103q69 68 164 81zM415 685
q0 -32 -22.5 -54.5t-55.5 -22.5q-32 0 -54.5 22.5t-22.5 54.5q0 33 22.5 55.5t54.5 22.5q33 0 55.5 -22.5t22.5 -55.5zM205 685q0 -32 -22.5 -54.5t-54.5 -22.5q-33 0 -55.5 22.5t-22.5 54.5q0 33 22.5 55.5t55.5 22.5q16 0 30 -6t24.5 -16.5t16.5 -25t6 -30.5z" />
    <glyph glyph-name="yen" unicode="&#xa5;" horiz-adv-x="456" 
d="M466 728q-41 -49 -75.5 -129.5t-65.5 -193.5q61 0 103 3q-1 -8 -1 -15v-14v-14.5t1 -13.5q-22 1 -51 1.5t-66 0.5q-5 -19 -8.5 -37.5t-4.5 -37.5q73 1 130 3q-1 -7 -1 -14v-14v-14.5t1 -13.5q-24 1 -57 1.5t-75 0.5q2 -155 41 -227q-27 -4 -54.5 -5.5t-54.5 -1.5t-54 1.5
t-55 5.5q39 99 39 211v16q-43 0 -76 -0.5t-57 -1.5q2 7 2 13.5v13.5v14.5t-2 14.5q23 -1 56 -1.5t77 -0.5q-2 18 -4.5 36.5t-6.5 37.5q-39 0 -69 -0.5t-53 -1.5q2 7 2 13.5v13.5v15t-2 15q37 -2 108 -3q-24 89 -59.5 171.5t-83.5 160.5q31 3 61.5 4t61.5 1t61.5 -1t61.5 -4
q-16 -22 -22.5 -48t-6.5 -59q0 -49 16.5 -108t48.5 -130q20 66 31 115.5t11 84.5q0 49 -26 49q-12 0 -19.5 -7t-7.5 -18q0 -16 12 -29q-43 14 -43 66q0 42 36 69t98 27q48 0 102 -21z" />
    <glyph glyph-name="z" unicode="z" horiz-adv-x="373" 
d="M331 234q42 -48 42 -108q0 -66 -32 -102.5t-83 -36.5q-36 0 -63.5 20t-50.5 62l-32.5 60t-30.5 22q-15 0 -25 -12.5t-10 -33.5t8 -36v4q0 18 9 30t21 12q14 0 24 -15.5t10 -41.5q0 -33 -13.5 -52t-34.5 -19q-22 0 -38 28t-16 76q0 69 27.5 121t86.5 94q31 22 66 42t72 44
q48 31 65 77q-28 -38 -66 -38q-15 0 -28.5 4t-27 9t-26 9t-24.5 4q-19 0 -30 -10.5t-11 -28.5q0 -15 9.5 -25t22.5 -10q18 0 27 21q-8 -84 -77 -84q-20 0 -37.5 9t-30.5 24.5t-21 36.5t-8 45q0 28 9.5 51.5t26 40.5t38.5 26.5t47 9.5q30 0 52 -11.5t46 -29.5l37.5 -29
t38.5 -13q43 0 43 66v8q15 -22 15 -54q0 -41 -7.5 -71.5t-23.5 -54t-41 -41.5t-61 -32l-56 -21.5t-47 -22t-36.5 -30.5t-22.5 -48q23 79 75 79q21 0 33.5 -13l28.5 -30q18 -20 34.5 -31.5t37.5 -11.5q51 0 59 62z" />
    <glyph glyph-name="zcaron" unicode="&#x17e;" horiz-adv-x="373" 
d="M331 234q42 -48 42 -108q0 -66 -32 -102.5t-83 -36.5q-36 0 -63.5 20t-50.5 62l-32.5 60t-30.5 22q-15 0 -25 -12.5t-10 -33.5t8 -36v4q0 18 9 30t21 12q14 0 24 -15.5t10 -41.5q0 -33 -13.5 -52t-34.5 -19q-22 0 -38 28t-16 76q0 69 27.5 121t86.5 94q31 22 66 42t72 44
q48 31 65 77q-28 -38 -66 -38q-15 0 -28.5 4t-27 9t-26 9t-24.5 4q-19 0 -30 -10.5t-11 -28.5q0 -15 9.5 -25t22.5 -10q18 0 27 21q-8 -84 -77 -84q-20 0 -37.5 9t-30.5 24.5t-21 36.5t-8 45q0 28 9.5 51.5t26 40.5t38.5 26.5t47 9.5q30 0 52 -11.5t46 -29.5l37.5 -29
t38.5 -13q43 0 43 66v8q15 -22 15 -54q0 -41 -7.5 -71.5t-23.5 -54t-41 -41.5t-61 -32l-56 -21.5t-47 -22t-36.5 -30.5t-22.5 -48q23 79 75 79q21 0 33.5 -13l28.5 -30q18 -20 34.5 -31.5t37.5 -11.5q51 0 59 62zM364 747q-66 -57 -119 -123q-11 2 -22 2h-22h-21.5t-21.5 -2
q-27 33 -56.5 63.5t-62.5 59.5q100 -12 163 -69q68 61 162 69z" />
    <glyph glyph-name="zero" unicode="0" horiz-adv-x="424" 
d="M259 497q3 -9 3 -19q0 -19 -10.5 -30.5t-25.5 -11.5q-25 0 -39.5 27t-14.5 78q0 36 8.5 66.5t23 52t34 33.5t40.5 12q59 0 95 -87.5t36 -256.5q0 -184 -52 -279.5t-143 -95.5q-96 0 -147.5 94.5t-51.5 280.5q0 93 15 166.5t41 124.5t62 78t78 27q36 0 59 -36q-18 9 -30 9
q-98 0 -98 -302q0 -148 17 -221t58 -73q35 0 51 56t16 171q0 88 -8 131.5t-29 43.5q-10 0 -16.5 -8.5t-6.5 -22.5q0 -28 20 -28q13 0 15 20z" />
    <glyph glyph-name="afii10017" unicode="&#x410;" horiz-adv-x="476" 
d="M464 0q-24 -4 -50 -5t-54 -1q-58 0 -118 6q15 42 23 82.5t8 79.5q0 79 -39 79q-15 0 -25.5 -12t-10.5 -30q0 -17 8 -26.5t19 -9.5q15 0 21 16q1 -7 1.5 -12t0.5 -8q0 -26 -14 -42t-34 -16q-37 0 -52 46q-1 -8 -1 -15v-12q0 -65 37 -120q-20 -3 -42.5 -4t-45.5 -1
q-25 0 -46.5 1.5t-40.5 3.5q54 131 88.5 314.5t57.5 423.5q28 2 51 3t42 1q23 0 44.5 -1t42.5 -3q14 -234 45.5 -417t83.5 -321zM252 341l-17 107l-20 129q-12 -62 -22.5 -122.5l-21.5 -120.5q14 30 42 30q23 0 39 -23z" />
    <glyph glyph-name="afii10018" unicode="&#x411;" horiz-adv-x="463" 
d="M78 389q0 220 -47 349q51 2 97 3.5t88 1.5q43 0 90 -1.5t98 -3.5q1 -28 1 -51v-42q0 -35 -1 -83t-3 -109q-17 114 -47.5 169.5t-69.5 55.5q-38 0 -65 -55t-29 -167l-1 -46q37 72 105 72q64 0 103 -61.5t39 -176.5q0 -130 -61 -190t-190 -60q-34 0 -75 3.5t-89 9.5
q14 28 24.5 70.5t18 93t11 106.5t3.5 112zM259 279q19 -25 19 -55q0 -28 -14.5 -45t-33.5 -17q-26 0 -42 27q-1 -8 -1 -13v-10q0 -45 13.5 -68t36.5 -23q31 0 49 39t18 117q0 66 -12 98t-43 32q-19 0 -31.5 -16.5t-12.5 -43.5q0 -26 9 -40.5t23 -14.5q22 0 22 28v5z" />
    <glyph glyph-name="afii10019" unicode="&#x412;" horiz-adv-x="480" 
d="M312 412q70 -17 110 -72t40 -134q0 -218 -284 -218q-38 0 -77 3.5t-81 10.5q32 64 44 160t12 230q0 94 -11.5 178t-37.5 162q57 7 104.5 10.5t86.5 3.5q216 0 216 -167q0 -60 -29.5 -99.5t-92.5 -67.5zM206 455q8 -2 13 -2h9q70 0 70 115q0 45 -14.5 69t-38.5 24
q-45 0 -45 -81q0 -22 6 -125zM243 153q9 6 9 18q0 10 -6.5 16.5t-15.5 6.5q-14 0 -24 -11.5t-10 -28.5q0 -21 15.5 -35.5t38.5 -14.5q36 0 57.5 33.5t21.5 97.5q0 55 -24.5 88t-59.5 33q-22 0 -37 -7v-63q16 12 34 12q24 0 40.5 -19t16.5 -51q0 -33 -15.5 -53.5t-40.5 -21.5
z" />
    <glyph glyph-name="afii10020" unicode="&#x413;" horiz-adv-x="449" 
d="M345 530q-4 11 -15 11q-9 0 -15.5 -8.5t-6.5 -22.5t8 -23t20 -9q11 0 19 15t8 44q0 52 -19 78.5t-51 26.5q-50 0 -70.5 -58t-20.5 -177q0 -118 13.5 -218t56.5 -187q-35 -2 -67 -3.5t-61 -1.5t-59 1.5t-63 3.5q28 75 42.5 168.5t14.5 208.5q0 221 -59 361q96 3 187 3
q99 0 204 -3q9 -61 14 -112.5t5 -96.5q0 -87 -27.5 -134t-72.5 -47q-42 0 -69.5 32t-27.5 85t18.5 80.5t52.5 27.5q19 0 30 -10.5t11 -29.5v-5z" />
    <glyph glyph-name="afii10021" unicode="&#x414;" horiz-adv-x="563" 
d="M182 2q-23 0 -51.5 -1t-54 -11t-44 -33t-21.5 -67l2 190q25 -11 45 3.5t35 43.5t26.5 67t21.5 75q11 36 20.5 70.5t17 65t11 56.5t2.5 44q-2 20 -8.5 31.5t-16 17t-20.5 6.5t-20 1q-15 0 -23 -14t-6 -31q2 -23 19 -37q-26 6 -43 28t-20 55q-2 30 8 54.5t28.5 41
t44.5 23.5t56 2q42 -13 68 -49q-8 29 -18.5 56l-21.5 55q30 2 56.5 3.5t50.5 1.5q27 0 48 -1.5l47 -3.5q-13 -84 -9.5 -170t13.5 -177q4 -26 6.5 -62t7 -74t11.5 -74t19 -62.5t30 -40t45 -5.5l2 -190q-3 44 -20.5 67t-42.5 33t-53 11t-50 1h-198zM306 393q-4 32 -8.5 62.5
t-10.5 60.5q-1 -5 -1.5 -9.5t-1.5 -9.5q-20 -82 -49.5 -187t-53.5 -229q42 0 80.5 -0.5t76.5 -0.5l-12 120z" />
    <glyph glyph-name="afii10022" unicode="&#x415;" horiz-adv-x="445" 
d="M412 322q3 -99 3 -163q0 -42 -1 -81.5t-3 -77.5q-43 -2 -92 -3.5t-104 -1.5q-54 0 -101.5 1t-93.5 4q58 144 58 389q0 220 -47 349q51 2 97 3.5t88 1.5q43 0 90 -1.5t98 -3.5q1 -28 1 -51v-42q0 -35 -1 -83t-3 -109q-17 114 -47.5 169.5t-69.5 55.5q-79 0 -84 -224
q25 67 80 67q43 0 71 -39.5t28 -106.5q0 -66 -23.5 -103.5t-58.5 -37.5q-26 0 -42.5 19.5t-16.5 52.5v5q6 -22 24 -22q11 0 19 11.5t8 31.5t-9.5 31.5t-24.5 11.5q-55 0 -55 -132q0 -78 23.5 -119.5t61.5 -41.5q97 0 127 240z" />
    <glyph glyph-name="afii10024" unicode="&#x416;" horiz-adv-x="749" 
d="M375 1q-61 0 -121 6q35 48 46.5 104t11.5 126q0 90 -24 140t-54 50q-34 0 -34 -50q0 -28 7.5 -56t16.5 -56t16.5 -56.5t7.5 -58.5q0 -75 -29.5 -116.5t-77.5 -41.5q-57 0 -89 49t-32 140q0 65 23 134v-10q0 -52 28 -52q29 0 29 58q0 18 -1 34t-1 30q0 143 86 143
q52 0 91 -58q-13 75 -42 112.5t-67 37.5q-27 0 -44 -18t-17 -49q0 -15 4 -26q-29 28 -42 58t-13 68q0 54 26.5 84.5t68.5 30.5q55 0 99 -68.5t67 -205.5v14q0 67 -11.5 128.5t-33.5 118.5q57 6 103 6t103 -6q-22 -57 -33.5 -118.5t-11.5 -128.5v-14q23 137 67 205.5t99 68.5
q42 0 68.5 -30.5t26.5 -84.5q0 -38 -13 -68t-42 -58q4 11 4 26q0 31 -17 49t-44 18q-38 0 -67 -37.5t-42 -112.5q39 58 91 58q86 0 86 -143q0 -14 -1 -30t-1 -34q0 -58 29 -58q28 0 28 52v10q23 -69 23 -134q0 -91 -32 -140t-89 -49q-48 0 -77.5 41.5t-29.5 116.5
q0 30 7.5 58.5t16.5 56.5t16.5 56t7.5 56q0 50 -34 50q-30 0 -54 -50t-24 -140q0 -70 11.5 -126t46.5 -104q-60 -6 -121 -6h4z" />
    <glyph glyph-name="afii10025" unicode="&#x417;" horiz-adv-x="444" 
d="M290 449q60 -19 98.5 -76.5t38.5 -139.5q0 -55 -16 -100.5t-45 -77.5t-70 -50t-91 -18q-43 0 -79 15t-62.5 41.5t-41 63t-14.5 80.5q0 35 11 65t30 52t44.5 34.5t54.5 12.5q43 0 68.5 -22.5t25.5 -56.5q0 -54 -63 -66q19 12 19 30q0 15 -9.5 24.5t-26.5 9.5
q-20 0 -32.5 -17t-12.5 -46q0 -38 24.5 -63t59.5 -25q42 0 66.5 35t24.5 96q0 131 -76 131q-4 0 -9 -0.5t-13 -1.5q3 30 3 60q27 11 56.5 27t55.5 39t46 53.5t29 71.5q-32 -50 -77 -50q-18 0 -32 5.5t-27 11.5l-25 11.5t-25 5.5q-22 0 -35.5 -14t-13.5 -38q0 -20 11.5 -33
t26.5 -13q24 0 31 28v-4q0 -48 -23.5 -73t-65.5 -25q-23 0 -44 10.5t-36.5 29.5t-24.5 45t-9 58q0 37 11 68t30.5 53.5t45 35t54.5 12.5q22 0 40 -6t34 -16.5t31 -24l32 -28.5q18 -17 26.5 -26t25.5 -9q23 0 36.5 20t13.5 62q0 4 -0.5 7.5t-0.5 7.5q17 -26 28.5 -54t4.5 -57
q-9 -39 -23 -67t-32 -49t-38.5 -36.5t-43.5 -28.5z" />
    <glyph glyph-name="afii10026" unicode="&#x418;" horiz-adv-x="512" 
d="M494 7q-24 -2 -50.5 -3.5t-57.5 -1.5q-29 0 -55 1t-51 4q27 94 39.5 182.5t12.5 190.5q0 25 -0.5 41t-2.5 39q-2 -13 -6.5 -25.5l-9.5 -26.5q-14 -32 -33 -69.5t-35.5 -75.5t-27 -74t-7.5 -64q3 -20 6.5 -36t8 -30l9 -28.5t10.5 -30.5q-25 -2 -53 -3.5t-60 -1.5
q-30 0 -57.5 1t-53.5 4q28 94 41 188.5t13 197.5q0 96 -12 182t-38 170q30 2 56.5 3.5t50.5 1.5q27 0 53.5 -1.5t52.5 -3.5q-23 -86 -33 -174q9 16 25 24.5t33 9t33 -7t26 -23.5q0 4 -1 6q-11 88 -36 170q28 2 53.5 3.5t48.5 1.5q26 0 51.5 -1.5t49.5 -3.5
q-20 -84 -30.5 -169.5t-10.5 -176.5q0 -118 11.5 -215t36.5 -175zM194 391q0 -29 0.5 -61.5t1.5 -58.5l21.5 49l21.5 50t17 45t9 35q5 20 1.5 31t-11.5 12q-20 5 -26 -21q0 -5 0.5 -11t5.5 -11q-11 6 -21.5 14.5t-16.5 25.5q-3 -50 -3 -99z" />
    <glyph glyph-name="afii10027" unicode="&#x419;" horiz-adv-x="512" 
d="M265 783q-21 -1 -41 5t-35 18t-24 28.5t-9 35.5q0 58 64 77q-14 -14 -14 -28q1 -21 19 -34.5t38 -10.5q24 -1 39.5 14.5t15.5 30.5q0 14 -14 28q64 -19 64 -77q0 -38 -29 -61.5t-74 -25.5zM494 7q-24 -2 -50.5 -3.5t-57.5 -1.5q-29 0 -55 1t-51 4q27 94 39.5 182.5
t12.5 190.5q0 25 -0.5 41t-2.5 39q-2 -13 -6.5 -25.5l-9.5 -26.5q-14 -32 -33 -69.5t-35.5 -75.5t-27 -74t-7.5 -64q3 -20 6.5 -36t8 -30l9 -28.5t10.5 -30.5q-25 -2 -53 -3.5t-60 -1.5q-30 0 -57.5 1t-53.5 4q28 94 41 188.5t13 197.5q0 96 -12 182t-38 170q30 2 56.5 3.5
t50.5 1.5q27 0 53.5 -1.5t52.5 -3.5q-23 -86 -33 -174q9 16 25 24.5t33 9t33 -7t26 -23.5q0 4 -1 6q-11 88 -36 170q28 2 53.5 3.5t48.5 1.5q26 0 51.5 -1.5t49.5 -3.5q-20 -84 -30.5 -169.5t-10.5 -176.5q0 -118 11.5 -215t36.5 -175zM194 391q0 -29 0.5 -61.5t1.5 -58.5
l21.5 49l21.5 50t17 45t9 35q5 20 1.5 31t-11.5 12q-20 5 -26 -21q0 -5 0.5 -11t5.5 -11q-11 6 -21.5 14.5t-16.5 25.5q-3 -50 -3 -99z" />
    <glyph glyph-name="afii10028" unicode="&#x41a;" horiz-adv-x="520" 
d="M478 308q23 -67 23 -134q0 -91 -32.5 -140t-88.5 -49q-48 0 -77.5 42t-29.5 116q0 30 7.5 58.5t16.5 56.5t16.5 56t7.5 56q0 50 -34 50q-15 0 -29 -13t-25 -37t-17.5 -59.5t-6.5 -80.5q0 -70 11.5 -126t46.5 -104q-60 -6 -121 -6q-63 0 -126 6q35 93 52 185.5t17 191.5
q0 87 -13.5 176t-39.5 185q58 6 112 6q46 0 103 -6q-22 -56 -33.5 -118t-11.5 -129v-14q23 136 67 205t99 69q42 0 68.5 -31t26.5 -84q0 -38 -13 -68t-42 -58q4 12 4 26q0 31 -17 49t-44 18q-38 0 -67 -37.5t-42 -112.5q39 58 91 58q86 0 86 -143q0 -14 -1 -30t-1 -34
q0 -58 29 -58q28 0 28 52v10z" />
    <glyph glyph-name="afii10029" unicode="&#x41b;" horiz-adv-x="505" 
d="M142 218q2 -39 18.5 -58.5t33.5 -19.5q26 0 25 34q0 20 -16 36q23 -6 37.5 -27.5t16.5 -53.5q3 -57 -29.5 -95t-102.5 -38q-11 0 -28.5 7.5t-34.5 23t-30 40.5t-16 61t9.5 73t32.5 73.5t44.5 71.5l45.5 66.5t34 58.5t11 49q-2 20 -8 32.5t-13.5 19.5t-16 9.5t-14.5 2.5
q-10 0 -19.5 -16.5t-7.5 -33.5q2 -21 14 -37q-17 6 -29.5 28t-17.5 54q-2 30 8 52.5t27.5 37.5t39 20.5t41.5 0.5q39 -8 62 -38l-14 45.5t-15 45.5q30 2 56.5 3.5t50.5 1.5q27 0 53.5 -1.5t52.5 -3.5q-33 -168 -23 -347q7 -118 24.5 -215.5t48.5 -175.5q-25 -2 -53 -3.5
t-60 -1.5q-30 0 -57.5 1t-53.5 4q22 94 29.5 188.5t2.5 197.5q-3 40 -7.5 78.5t-11.5 75.5q-1 -8 -2 -15t-3 -15q-7 -27 -26.5 -57.5l-41 -66.5t-41 -78.5t-26.5 -94.5z" />
    <glyph glyph-name="afii10030" unicode="&#x41c;" horiz-adv-x="634" 
d="M614 0q-26 -2 -54.5 -3.5t-60.5 -1.5q-33 0 -63.5 1t-59.5 4q31 69 47.5 157.5t16.5 196.5q0 40 -3 80.5t-10 82.5l-66 -268t-58 -260q-71 270 -150 543q-3 -60 -3 -120q0 -305 74 -412q-32 -2 -59.5 -3.5t-50.5 -1.5q-27 0 -51.5 1t-47.5 4q29 63 49.5 171.5t20.5 255.5
q0 100 -13 176.5t-41 133.5q28 2 56.5 3t57.5 1q27 0 52.5 -1t51.5 -3q16 -91 35 -179t42 -176l43.5 172l43.5 183q23 2 47.5 3t49.5 1q23 0 46 -1t45 -3q-47 -102 -47 -330q0 -256 60 -407z" />
    <glyph glyph-name="afii10031" unicode="&#x41d;" horiz-adv-x="509" 
d="M489 0q-50 -6 -99 -6t-97 6q31 93 31 186v20q-19 -20 -41 -20q-28 0 -45.5 23t-17.5 63t32 69q-7 -13 -7 -28q0 -16 7 -26.5t16 -10.5q10 0 16.5 11.5t6.5 31.5q0 23 -9.5 36.5t-22.5 13.5q-31 0 -48.5 -38.5t-17.5 -113.5q0 -124 38 -217q-51 -6 -100 -6q-41 0 -107 6
q49 192 49 391q0 109 -12 195t-41 152q61 6 115 6q49 0 111 -6q-54 -90 -54 -232q0 -25 3 -49q18 54 67 54q41 0 63 -44q1 14 1 22v11q0 125 -40 238q25 3 49.5 4t49.5 1q24 0 49.5 -1.5t54.5 -3.5q-25 -97 -37.5 -192.5t-12.5 -192.5q0 -93 12 -180t38 -173z" />
    <glyph glyph-name="afii10032" unicode="&#x41e;" horiz-adv-x="463" 
d="M286 480q-6 -41 -40 -41q-26 0 -42.5 27t-16.5 78q0 36 9.5 65.5t25.5 51t37 33.5t44 12q63 0 101.5 -85t38.5 -249q0 -91 -16 -162.5t-44 -121t-66.5 -76t-83.5 -26.5q-48 0 -87.5 25t-67.5 73t-43 118.5t-15 160.5q0 91 16.5 164.5t44.5 125t66 79t80 27.5q40 0 65 -32
q-17 7 -31 7q-108 0 -108 -297q0 -151 17.5 -225.5t65.5 -74.5q40 0 58 56t18 170q0 88 -9 132t-33 44q-12 0 -20 -9t-8 -22q0 -30 24 -30q13 0 17 16q3 -11 3 -14z" />
    <glyph glyph-name="afii10033" unicode="&#x41f;" horiz-adv-x="512" 
d="M231 652q-11 -42 -18 -71t-11.5 -56t-6 -58t-1.5 -76q0 -118 12 -215.5t38 -175.5q-25 -2 -53 -3.5t-60 -1.5q-30 0 -57.5 1t-53.5 4q28 94 41 188.5t13 197.5q0 96 -12 184t-38 172q30 2 56.5 3.5t50.5 1.5q27 0 55.5 0.5t54.5 -1.5q14 1 34 1.5t41 0.5h39.5h30.5
q26 0 51.5 -1.5t49.5 -3.5q-20 -84 -30.5 -169.5t-10.5 -176.5q0 -118 11.5 -215t36.5 -175q-24 -2 -50.5 -3.5t-57.5 -1.5q-29 0 -55 1t-51 4q27 94 39.5 188t12.5 197q0 24 -3 58.5t-9 70.5t-14.5 68.5t-20 53.5t-25 25.5t-29.5 -16.5z" />
    <glyph glyph-name="afii10034" unicode="&#x420;" horiz-adv-x="459" 
d="M21 729q48 6 89 9.5t75 3.5q129 0 190 -60t61 -190q0 -114 -39 -176t-103 -62q-68 0 -105 72v-14q0 -101 11.5 -178.5t39.5 -133.5q-24 -2 -50.5 -3.5t-57.5 -1.5q-30 0 -58 1t-54 4q55 157 55 395q0 112 -13 194.5t-41 139.5zM259 462q0 28 -22 28q-14 0 -23 -14.5
t-9 -40.5q0 -27 12.5 -43.5t31.5 -16.5q31 0 43 32t12 98q0 77 -18 116.5t-49 39.5q-23 0 -36.5 -23t-13.5 -68v-10t1 -13q16 27 42 27q19 0 33.5 -17t14.5 -45q0 -29 -19 -55v5z" />
    <glyph glyph-name="afii10035" unicode="&#x421;" horiz-adv-x="417" 
d="M399 327q1 -14 1.5 -27.5t0.5 -27.5q0 -141 -47 -214t-128 -73q-43 0 -81.5 26t-67.5 75t-46 120.5t-17 163.5q0 103 27 186t73 137q54 63 113 63q13 0 25 -3.5t24 -7.5l23 -7.5t22 -3.5q25 0 43 22q14 -40 20.5 -83t6.5 -91q0 -119 -31 -181t-75 -62q-41 0 -69.5 37
t-28.5 100q0 31 6.5 56.5t16.5 42.5t23 26.5t26 9.5q33 0 40 -38q-6 9 -15 9q-11 0 -18.5 -13.5t-7.5 -38.5q0 -24 10 -38t23 -14q39 0 39 98q0 57 -19.5 87t-51.5 30q-19 0 -38.5 -17t-35.5 -48.5t-26.5 -77t-10.5 -102.5q0 -62 10.5 -110t28.5 -81t43 -50.5t54 -17.5
q41 0 70.5 34.5t44.5 103.5z" />
    <glyph glyph-name="afii10036" unicode="&#x422;" horiz-adv-x="468" 
d="M434 738q9 -69 14 -121.5t5 -91.5q0 -85 -22.5 -129t-61.5 -44q-28 0 -48 22.5t-20 60.5q0 34 12.5 52t32.5 18q24 0 27 -29l-8 6q-10 -4 -13.5 -8.5t-3.5 -14.5q0 -9 5.5 -15t13.5 -6q24 0 24 70q0 60 -13 92t-34 32q-30 0 -42 -50t-12 -150q0 -62 2.5 -119.5t10 -111
t21.5 -103.5t37 -98q-65 -6 -130 -6q-63 0 -124 6q41 87 56 191.5t15 232.5q0 208 -54 208q-21 0 -34.5 -32t-13.5 -92q0 -70 24 -70q19 0 19 23q0 14 -16 21l-8 -6q3 29 26 29q21 0 33 -18t12 -52q0 -37 -20 -60t-48 -23q-39 0 -61 44t-22 129q0 39 5 91.5t14 121.5
q54 2 102.5 3.5t96.5 1.5t97.5 -1.5t103.5 -3.5z" />
    <glyph glyph-name="afii10037" unicode="&#x423;" horiz-adv-x="480" 
d="M229 -2q-44 1 -76.5 14t-54 31.5t-32.5 40t-11 40.5q-5 34 4 59.5t26 42.5t40 25.5t46 9.5q44 3 70 -21t27 -66q-1 -35 -17 -57t-39 -26q7 6 6 16q1 13 -7.5 20.5t-19.5 6.5q-13 0 -24 -13t-12 -31q0 -18 10.5 -31t27 -19.5t36.5 -5.5t40 12q24 10 35.5 46.5t14.5 83
t1 94.5t-5 82q-8 -24 -22.5 -38.5t-32 -22.5t-35.5 -11t-32 -3q-21 0 -38.5 12t-29.5 34t-19 51.5t-7 65.5q0 4 -1 18t-4.5 29t-9.5 26.5t-16 11.5q-7 0 -12.5 -8.5t-9 -21.5t-5 -28t-1.5 -28v-10q-11 34 -20.5 67t-10.5 67q0 91 31.5 140t88.5 49q48 0 78 -41.5t30 -116.5
q0 -21 -6 -46t-13.5 -51.5l-14 -51.5t-7 -46t7.5 -35.5t29 -18.5q23 -5 39.5 19.5t25.5 65.5t11 91t-4 96t-19.5 81.5t-35.5 47.5q60 6 121 6q32 0 59.5 -1.5t59.5 -4.5q-29 -40 -41 -78t-15.5 -79t-2 -87.5t-0.5 -104.5q-2 -48 -1 -95.5t-2 -90.5t-12 -80.5t-31 -65.5
t-59.5 -46t-96.5 -21z" />
    <glyph glyph-name="afii10038" unicode="&#x424;" horiz-adv-x="634" 
d="M314 0q-28 0 -55.5 1.5t-54.5 3.5q26 54 38 109.5t13 116.5q-32 -65 -105 -65q-61 0 -99 61t-38 176q0 52 13 94t36 71.5t54.5 45.5t67.5 16q40 0 67 -24q-4 70 -40 135q26 3 52 4t53 1t49 -1t48 -4q-36 -65 -40 -135q27 24 67 24q36 0 67.5 -16t54.5 -45.5t36 -71.5
t13 -94q0 -115 -38 -176t-99 -61q-73 0 -105 65q1 -61 13 -116.5t38 -109.5q-27 -2 -50.5 -3.5t-51.5 -1.5h-4zM438 361q0 24 -21 24q-14 0 -23.5 -14t-9.5 -40q0 -27 12.5 -42.5t31.5 -15.5q27 0 43.5 37t16.5 109q0 66 -20.5 103t-45.5 37q-24 0 -40 -24t-16 -72
q0 -5 0.5 -9t0.5 -9q16 27 43 27q20 0 34 -16.5t14 -45.5t-20 -55v6zM186 355q-20 26 -20 55t14 45.5t34 16.5q26 0 43 -27q0 5 0.5 9t0.5 9q0 48 -16 72t-40 24q-25 0 -45.5 -37t-20.5 -103q0 -72 16.5 -109t43.5 -37q19 0 31.5 15.5t12.5 42.5q0 26 -9.5 40t-23.5 14
q-21 0 -21 -24v-6z" />
    <glyph glyph-name="afii10039" unicode="&#x425;" horiz-adv-x="486" 
d="M491 0q-26 -2 -44.5 -3t-32.5 -1q-68 0 -117.5 1t-80.5 3q17 19 23.5 39.5t6.5 46.5q0 41 -13 91.5t-40 110.5q-47 -76 -47 -159q0 -36 8 -67.5t26 -61.5q-23 -3 -46.5 -3.5t-49.5 -0.5q-25 0 -47 1t-42 3q41 66 69.5 125t46.5 108t26.5 87t8.5 62q0 60 -33 149.5
t-103 206.5l62.5 4t63.5 2q31 0 61 -2l59 -4q-21 -57 -21 -111q0 -45 11.5 -83t33.5 -66q49 56 49 114q0 19 -7.5 29t-18.5 10t-18 -8t-7 -19q0 -17 14 -28q-23 9 -33 24t-10 39q0 46 37.5 75.5t99.5 29.5q23 0 45.5 -3.5t47.5 -10.5q-150 -228 -150 -364q0 -156 162 -366z
" />
    <glyph glyph-name="afii10040" unicode="&#x426;" horiz-adv-x="598" 
d="M485 75q7 -4 14 1t10 14t1.5 20t-10.5 20q-2 2 -4 2q15 4 30.5 10t28.5 7.5t21 -3.5t7 -21q-2 -42 -22.5 -68.5t-44.5 -48.5t-46 -45.5t-27 -59.5q-2 -14 6 -26t19 -17.5t24 -1.5t22 22q3 8 -3 17t-21 14q31 13 49 6q13 -3 22.5 -12t14.5 -20t6 -23.5t-2 -22.5
q-5 -20 -19.5 -34.5t-33.5 -23t-41 -11t-42 1.5q-42 9 -67 34t-26.5 58.5t23.5 70t82 67.5h-11q-30 0 -89.5 -3t-141.5 -3q-41 0 -86.5 0.5t-103.5 5.5q26 84 38 172t12 184q0 103 -13 197.5t-41 188.5q26 3 53.5 4t57.5 1q32 0 60 -1.5t53 -3.5q-26 -78 -38 -175.5
t-12 -215.5q0 -45 1.5 -76t6 -58t11.5 -56t18 -71q13 -17 25 -17q18 0 32.5 31.5t24 75.5t14.5 91t5 79q0 103 -12.5 197t-39.5 188q25 3 51 4t55 1q31 0 57.5 -1.5t50.5 -3.5q-13 -39 -23.5 -82.5t-14.5 -92.5q-3 -39 -6.5 -103.5t-3.5 -135.5q0 -35 2 -78.5t7 -81t12 -63
t18 -25.5z" />
    <glyph glyph-name="afii10041" unicode="&#x427;" horiz-adv-x="507" 
d="M311 339q-10 -24 -26.5 -44.5t-35.5 -36t-37.5 -24.5t-31.5 -9q-87 0 -87 143q0 14 1 30t1 34q0 58 -29 58q-28 0 -28 -52v-10q-23 69 -23 134q0 91 32 140t89 49q48 0 77.5 -41.5t29.5 -116.5q0 -30 -7.5 -58.5t-16 -56.5t-16 -56t-7.5 -56q0 -50 34 -50q30 0 54 50
t24 140q0 70 -12 126t-47 104q60 6 122 6q63 0 126 -6q-35 -94 -52 -185.5t-17 -191.5q0 -88 13.5 -176t39.5 -185q-59 -6 -112 -6q-46 0 -103 6q22 57 33.5 118.5t11.5 128.5v94z" />
    <glyph glyph-name="afii10042" unicode="&#x428;" horiz-adv-x="766" 
d="M635 5q-15 0 -49.5 -1t-74 -2t-76.5 -1.5t-58 0.5q-15 0 -49 -0.5t-73 -0.5t-75.5 0.5t-57.5 1.5q-24 1 -50.5 2t-56.5 3q26 84 38 172t12 184q0 103 -13 197.5t-41 188.5q26 3 53.5 4t57.5 1q32 0 60 -1.5t53 -3.5q-26 -78 -38 -175.5t-12 -215.5q0 -45 1.5 -76t6 -58
t11.5 -56t18 -71q11 -14 23 -16t23 12t19.5 37.5t15 53.5t11 61.5t7 60.5t2.5 51q0 103 -12.5 197t-39.5 188q25 3 51 4t55 1q32 0 60 -1.5t53 -3.5q-26 -78 -38 -175.5t-12 -215.5q0 -45 1.5 -76t6 -58t11.5 -56t18 -71q11 -14 23 -16t23 12t19.5 37.5t15 53.5t11 61.5
t7 60.5t2.5 51q0 103 -12.5 197t-39.5 188q25 3 51 4t55 1q31 0 57.5 -1.5t50.5 -3.5q-13 -39 -23.5 -82.5t-14.5 -92.5l-5 -84t-5 -110q0 -96 12 -184t38 -172q-30 -2 -56.5 -3t-50.5 -2z" />
    <glyph glyph-name="afii10043" unicode="&#x429;" horiz-adv-x="834" 
d="M715 4q-14 0 -37 -0.5t-51.5 -1t-60.5 -1.5l-64 -2h-29h-28t-30.5 0.5t-37.5 1.5q-15 0 -49 -0.5t-73 -0.5t-75.5 0.5t-57.5 1.5q-24 1 -50.5 2t-56.5 3q26 84 38 172t12 184q0 103 -13 197.5t-41 188.5q26 3 53.5 4t57.5 1q32 0 60 -1.5t53 -3.5q-26 -78 -38 -175.5
t-12 -215.5q0 -45 1.5 -76t6 -58t11.5 -56t18 -71q11 -14 23 -16t23 12t19.5 37.5t15 53.5t11 61.5t7 60.5t2.5 51q0 103 -12.5 197t-39.5 188q25 3 51 4t55 1q32 0 60 -1.5t53 -3.5q-26 -78 -38 -175.5t-12 -215.5q0 -45 1.5 -76t6 -58t11.5 -56t18 -71q11 -14 23 -16
t23 12t19.5 37.5t15 53.5t11 61.5t7 60.5t2.5 51q0 103 -12.5 197t-39.5 188q25 3 51 4t55 1q31 0 57.5 -1.5t50.5 -3.5q-13 -39 -23.5 -82.5t-14.5 -92.5q-2 -25 -3.5 -72t-1.5 -103t1.5 -113.5t6 -104.5t12.5 -77t20 -29q7 -4 12 1t6.5 14t-1.5 20t-12 20q-2 2 -4 2
q15 4 29.5 10t26 7.5t18.5 -3.5t7 -21q-1 -31 -10 -52.5t-22.5 -38t-29.5 -30t-30.5 -28t-25.5 -32t-14 -41.5q-2 -14 6 -26t19 -17.5t24 -1.5t22 22q3 8 -3 17t-21 14q31 13 49 6q13 -3 22.5 -12t14.5 -20t6 -23.5t-2 -22.5q-5 -20 -20 -34.5t-35.5 -23t-43 -11t-42.5 1.5
q-39 7 -62.5 31.5t-23.5 59t27.5 75.5t90.5 80z" />
    <glyph glyph-name="afii10044" unicode="&#x42a;" horiz-adv-x="573" 
d="M379 279q19 -25 19 -55q0 -28 -14.5 -45t-33.5 -17q-26 0 -42 27q-1 -8 -1 -13v-10q0 -45 13.5 -68t36.5 -23q31 0 49 39t18 117q0 66 -12 98t-43 32q-19 0 -31.5 -16.5t-12.5 -43.5q0 -26 9 -40.5t23 -14.5q22 0 22 28v5zM47 744h196q31 0 62 -0.5t55 -2.5
q-28 -57 -39.5 -136t-11.5 -181v-14q37 72 105 72q64 0 103 -61.5t39 -176.5q0 -130 -61 -190t-190 -60q-34 0 -75 3.5t-89 9.5q28 57 41 139.5t13 194.5q0 60 0.5 106t-5 79t-19 54t-41.5 30q8 -9 16.5 -26.5t13.5 -39.5t5.5 -45.5t-7.5 -44t-25.5 -36t-47.5 -20.5
q-15 -2 -28 3.5t-22.5 16.5t-15.5 27.5t-6 36.5q0 37 15 56t38 19q25 0 28 -31l-9 6q-17 -8 -17 -23q0 -12 8 -18t19 -6q21 13 22.5 39t-8 51t-27 42.5t-35.5 14.5v112z" />
    <glyph glyph-name="afii10045" unicode="&#x42b;" horiz-adv-x="678" 
d="M20 7q48 -6 89 -9.5t75 -3.5q129 0 190 60t61 190q0 114 -39 176t-103 62q-68 0 -105 -72v14q0 101 11.5 178.5t39.5 133.5q-24 2 -50.5 3.5t-57.5 1.5q-30 0 -58 -1t-54 -4q55 -157 55 -395q0 -112 -13 -194.5t-41 -139.5zM258 274q0 -28 -22 -28q-14 0 -23 14.5
t-9 40.5q0 27 12.5 43.5t31.5 16.5q31 0 43 -32t12 -98q0 -77 -18 -116.5t-49 -39.5q-23 0 -36.5 23t-13.5 68v10t1 13q16 -27 42 -27q19 0 33.5 17t14.5 45q0 29 -19 55v-5zM661 6q-25 -2 -53 -3.5t-60 -1.5q-30 0 -57.5 1t-53.5 4q28 94 41 189t13 197q0 95 -12 182
t-38 170q30 2 56.5 3.5t50.5 1.5q27 0 53.5 -1.5t52.5 -3.5q-43 -166 -43 -347q0 -118 12 -215.5t38 -175.5z" />
    <glyph glyph-name="afii10046" unicode="&#x42c;" horiz-adv-x="456" 
d="M20 7q28 57 41 139.5t13 194.5q0 238 -55 395q26 3 54 4t58 1q31 0 57.5 -1.5t50.5 -3.5q-28 -56 -39.5 -133.5t-11.5 -178.5v-14q37 72 105 72q64 0 103 -62t39 -176q0 -130 -61 -190t-190 -60q-34 0 -75 3.5t-89 9.5zM258 279q19 -26 19 -55q0 -28 -14.5 -45t-33.5 -17
q-26 0 -42 27q-1 -8 -1 -13v-10q0 -45 13.5 -68t36.5 -23q31 0 49 39.5t18 116.5q0 66 -12 98t-43 32q-19 0 -31.5 -16.5t-12.5 -43.5q0 -26 9 -40.5t23 -14.5q22 0 22 28v5z" />
    <glyph glyph-name="afii10047" unicode="&#x42d;" horiz-adv-x="405" 
d="M385 389q0 -95 -14.5 -162t-39.5 -112t-59.5 -70.5t-74.5 -37t-84 -11.5t-88 6q-2 42 -3 80t-1 75.5t0.5 77.5t2.5 87q15 -121 48.5 -180.5t82.5 -59.5q19 0 36.5 10.5t31 31t21.5 50.5t8 69q0 132 -55 132q-15 0 -24.5 -11.5t-9.5 -31.5t8 -31.5t19 -11.5q18 0 24 22v-5
q0 -33 -16.5 -52.5t-42.5 -19.5q-35 0 -58.5 37.5t-23.5 103.5q0 67 28 106.5t71 39.5q55 0 80 -67q-2 112 -30 163.5t-66 51.5q-39 0 -71.5 -51.5t-49.5 -164.5q-1 45 -1.5 81l-1 69t-0.5 64.5v66.5q14 -13 28.5 -12.5t31 6.5l35 13t39.5 7q64 -13 106 -45.5t67 -79.5
t35.5 -107t10.5 -127z" />
    <glyph glyph-name="afii10048" unicode="&#x42e;" horiz-adv-x="724" 
d="M299 224q-17 -18 -32.5 -19.5t-27.5 8t-19.5 29.5t-7.5 46q0 38 27 68q-6 -14 -6 -28q0 -15 5.5 -25.5t13.5 -10.5t14 11t6 31q0 23 -8 36t-19 13q-26 0 -39 -46t-13 -120q0 -123 38 -217q-51 -6 -100 -6q-41 0 -107 6q49 190 49 391q0 109 -12 195t-41 152q61 6 115 6
q49 0 111 -6q-54 -90 -54 -232q0 -25 3 -49q4 22 16.5 33.5t27.5 13.5t30 -6t25 -25q8 70 27 125t46 93.5t60 59t69 20.5q39 0 65 -32q-15 7 -31 7q-108 0 -108 -297q0 -152 17.5 -226t65.5 -74q40 0 58 55.5t18 170.5q0 88 -9 132t-33 44q-12 0 -20 -9t-8 -22q0 -30 24 -30
q13 0 17 16q3 -11 3 -14q-6 -41 -40 -41q-26 0 -42.5 27t-16.5 78q0 36 9.5 65.5t25.5 51t37 33.5t44 12q63 0 101.5 -84.5t38.5 -249.5q0 -91 -16 -162.5t-44 -121t-66.5 -76t-83.5 -26.5q-75 0 -127.5 58.5t-73.5 170.5q-1 -1 -1 -1.5t-1 -1.5z" />
    <glyph glyph-name="afii10049" unicode="&#x42f;" horiz-adv-x="482" 
d="M56 326q-1 -7 -1.5 -12t-0.5 -8q0 -20 8 -32.5t19 -12.5q15 0 21.5 10.5t10.5 30.5q5 26 11 46.5t32 35.5q-113 34 -113 165q0 100 63 147.5t191 47.5q66 0 177 -12q-32 -58 -46 -141t-14 -195t11.5 -209.5t50.5 -186.5q-48 -6 -100 -6q-64 0 -121 6q24 42 34 91t10 109
q0 58 -14.5 87.5t-36.5 29.5q-31 0 -31 -66q0 -27 2.5 -52.5t2.5 -48.5q0 -164 -99 -164q-49 0 -76.5 50t-27.5 147q0 70 37 143zM221 477q-17 23 -17 46q0 28 14 43.5t34 15.5q26 0 45 -25q3 15 3 30q0 35 -14 54t-37 19q-32 0 -51.5 -35t-19.5 -100q0 -60 15 -90.5
t41 -30.5q17 0 30 14t13 37t-10 36t-24 13q-22 0 -22 -22v-5z" />
    <glyph glyph-name="afii10065" unicode="&#x430;" horiz-adv-x="393" 
d="M360 260q12 -27 16.5 -55.5t4.5 -60.5q0 -75 -25 -116t-65 -41q-33 0 -53 31t-24 92q-24 -123 -101 -123q-43 0 -73 41.5t-30 111.5q0 34 6.5 60t21 45t36.5 32.5t54 23.5q25 8 43.5 17.5t30.5 24.5t17.5 36.5t5.5 52.5q0 51 -19 79.5t-48 28.5q-22 0 -38 -18t-16 -47
q0 -16 7 -25t18 -9q9 0 15 9t6 26q0 16 -9 28q23 -6 38 -29t15 -53q0 -43 -20 -67t-52 -24q-33 0 -55 26t-22 68q0 30 10.5 55t29.5 44t43.5 29.5t53.5 10.5q72 0 115.5 -52t43.5 -142q0 -33 -5 -65t-5 -63q0 -26 16 -26q14 0 14 30v6.5t-1 7.5zM232 356q-8 -37 -23.5 -54.5
t-41.5 -32.5q-8 -5 -16.5 -8.5t-16 -8t-12 -11t-4.5 -17.5q0 -38 38 -38q76 0 76 160v10z" />
    <glyph glyph-name="afii10066" unicode="&#x431;" horiz-adv-x="344" 
d="M161 173q13 -4 24.5 6t20.5 31.5t13.5 53.5t3.5 73q0 28 -3.5 56.5t-10 51t-15 36.5t-17.5 14q-25 0 -25 -28q0 -24 29 -30q-4 -1 -7 -1.5t-8 -0.5q-26 0 -43 15.5t-17 40.5q0 33 22 53.5t57 20.5q26 0 52 -17t46.5 -50t33.5 -81t13 -111q1 -75 -10 -138t-33.5 -106.5
t-56 -63.5t-76.5 -9q-44 11 -73 52t-45.5 100.5t-21.5 130.5t0 142q3 41 9.5 93t16.5 105.5t23.5 104.5t29.5 89q17 39 37 56.5t41 23t43 6t43 5.5t40 21t35 53q15 -51 17 -89t-5.5 -65t-22.5 -44.5t-33 -26.5q-22 -11 -46.5 -12.5t-48.5 -3.5t-45 -9.5t-36 -31.5
q-12 -19 -23 -61.5t-17.5 -96.5t-7.5 -113t7.5 -110.5t28.5 -88.5t54 -47z" />
    <glyph glyph-name="afii10067" unicode="&#x432;" horiz-adv-x="400" 
d="M386 238q7 -30 3 -65t-18 -66.5t-36.5 -57.5t-53.5 -39q-37 -15 -78.5 -20.5t-105.5 -3.5l-46 2t-47 4q24 73 37 144.5t13 130.5q0 91 -36 178l30.5 36.5t29 30.5t35 25.5t48.5 20.5q94 14 142.5 -14.5t48.5 -79.5q1 -16 -2 -32t-13.5 -32t-29.5 -30t-48 -25
q23 -3 43.5 -12.5t37.5 -24t29.5 -32.5t16.5 -38zM191 522q-13 -1 -21 -22t-12.5 -53.5t-6 -73t-1.5 -81.5t2 -78.5t4 -63.5q1 -21 7 -38.5t16 -26.5t22.5 -9t26.5 11q9 7 14.5 21.5t9.5 32.5t5.5 37t1.5 36q0 8 -1 20.5t-4 23.5t-9.5 18.5t-17.5 6.5q-5 0 -11 -6.5t-7 -15
t5.5 -15.5t24.5 -7q-19 -14 -34 -16t-26 4t-17 18.5t-7 27.5t7 30.5t23 25.5q7 5 15.5 8.5t17.5 5.5q18 18 22 47t-1 57t-18 50t-30 25z" />
    <glyph glyph-name="afii10068" unicode="&#x433;" horiz-adv-x="356" 
d="M20 288q-14 19 -16 48t4 60t18.5 60t26.5 49q14 22 36.5 37.5t55.5 23.5q49 11 83.5 -4t50.5 -45t11 -70.5t-34 -81.5l-26 -39t-23.5 -38.5t-16 -39.5t-3.5 -40q5 -22 18 -35.5t30 -18.5t35 -0.5t32.5 19t23 39.5t5.5 62l12 -5q4 -47 0.5 -98t-22 -93t-55 -68t-97.5 -21
q-42 4 -71.5 36t-35.5 84h2q-2 30 13.5 64.5t35 70t35 70t13.5 65.5q-1 21 -10.5 36t-23.5 22.5t-31.5 6t-35.5 -13.5q-14 -11 -20 -29.5t-6 -35.5t5 -29t19 -10q6 0 12.5 9t7.5 19.5t-6.5 19.5t-28.5 9q39 19 61.5 10.5t29.5 -29.5t0 -48t-28 -44q-25 -20 -48.5 -13.5
t-37.5 29.5z" />
    <glyph glyph-name="afii10069" unicode="&#x434;" horiz-adv-x="346" 
d="M183 207q34 17 55.5 65t31 110t7 129.5t-18 123.5t-43 92.5t-67.5 35.5q-23 0 -44.5 -13t-35.5 -34.5t-17.5 -51.5t10.5 -64l-5 -3q-18 21 -27 51.5t-9 65t8 69t23.5 62t37.5 45t50 17.5q48 0 81 -39t54.5 -99.5t33.5 -135t16.5 -145t4 -129.5t-2.5 -89
q-5 -58 -15.5 -107.5t-29.5 -87t-46 -61t-63 -27.5q-37 -7 -66 19.5t-49 72t-31 102t-11 109.5q2 61 17 112.5t37.5 88t49 56t52.5 17.5q35 -3 55 -25t17 -56q-3 -25 -21.5 -39.5t-44.5 -12.5q-4 0 -7 1t-8 2q30 4 33 29q1 13 -5.5 21.5t-17.5 8.5q-23 0 -37.5 -22.5
t-20.5 -56.5t-4.5 -72.5t10.5 -70t25 -51t38 -13.5z" />
    <glyph glyph-name="afii10070" unicode="&#x435;" horiz-adv-x="317" 
d="M308 295q9 -45 9 -86q0 -50 -10.5 -91t-29.5 -70t-44 -45t-55 -16q-36 0 -66 18.5t-51.5 54t-33.5 86t-12 115.5q0 69 13.5 124.5t36.5 95.5t53.5 61.5t65.5 21.5q25 0 46.5 -12t37.5 -33.5t25 -52t9 -66.5q0 -75 -24 -115.5t-63 -40.5q-67 0 -91 92q-3 -23 -3 -44
q0 -60 23 -91t63 -31q77 0 101 125zM221 449q0 44 -10.5 66.5t-28.5 22.5q-20 0 -33.5 -23t-13.5 -65q0 -43 11.5 -65.5t31.5 -22.5q19 0 31 22.5t12 64.5z" />
    <glyph glyph-name="afii10072" unicode="&#x436;" horiz-adv-x="641" 
d="M401 -4q-42 -6 -83 -6q-45 0 -91 6q24 72 36.5 141t12.5 129v10t-1 10l-28 -1q1 -56 -9 -110t-29 -96t-45 -68t-56 -26q-42 0 -68 55.5t-26 161.5q0 44 10 78q19 -108 101 -108q42 0 66.5 39.5t24.5 102.5q0 43 -10.5 68t-37.5 25q-44 0 -44 -47q0 -38 42 -48l10 3
q-26 -44 -69 -44q-45 0 -72 37.5t-27 103.5q0 72 27.5 111t72.5 39q38 0 63.5 -27t40.5 -69q11 -30 19 -64t13 -69h27q-7 59 -30 113q64 81 157 121q-12 -59 -19 -117t-10 -116l23 1q5 35 14.5 69t20.5 64q15 42 42 69t65 27q45 0 72.5 -39t27.5 -111q0 -66 -27 -103.5
t-72 -37.5q-43 0 -69 44l10 -3q42 10 42 48q0 47 -44 47q-27 0 -44 -25t-17 -68q0 -31 8.5 -57t22.5 -45t33 -29.5t40 -10.5q81 0 101 108q10 -34 10 -78q0 -106 -26 -161.5t-68 -55.5q-30 0 -57 26t-47 68.5t-31 96.5t-10 110l-21 -1v-20q0 -85 8.5 -154t24.5 -117z" />
    <glyph glyph-name="afii10073" unicode="&#x437;" horiz-adv-x="357" 
d="M146 324q26 3 43.5 18.5t27 37.5t11 46.5t-6 45.5t-23.5 34.5t-41 13.5q-22 0 -37 -14t-15 -31q0 -30 25 -30q23 0 23 23q0 10 -6 19q33 -19 33 -53q0 -33 -20 -53.5t-52 -20.5t-54 24t-22 62q0 24 10.5 46t29.5 38t44.5 25.5t54.5 9.5q42 3 74.5 -8.5t53 -32t28 -47.5
t0 -55t-31 -54t-64.5 -45q36 -9 59 -26t36 -38.5t18 -46t5 -48.5q0 -39 -13 -71.5t-36.5 -56t-56 -36.5t-71.5 -13q-36 0 -67 11.5t-53 31t-34.5 46t-12.5 57.5q0 48 28.5 78.5t70.5 30.5q52 0 61 -58q-8 6 -15 6q-9 0 -16.5 -9t-7.5 -23q0 -16 12.5 -28t30.5 -12
q24 0 36.5 24t11 54t-19 55.5t-53.5 28.5l2 44v0z" />
    <glyph glyph-name="afii10074" unicode="&#x438;" horiz-adv-x="415" 
d="M397 236q3 -29 3 -58q0 -91 -28 -141t-70 -50q-31 0 -50 35t-19 103q0 19 1.5 40.5t5.5 45.5q-13 -29 -18 -63.5t-16 -69.5q-28 -91 -100 -91q-45 0 -70.5 38.5t-25.5 108.5q0 24 4 47.5t13 47.5q16 44 32 80t16 71q0 15 -7 24t-16 9q-18 0 -22 -22q-3 15 -3 30
q0 64 28 103t68 39q42 0 65 -33t23 -96q0 -35 -11.5 -64t-27.5 -61l-28 -57.5t-12 -49.5q0 -20 8.5 -31t22.5 -11q16 0 32 15.5t29 44t21 68.5t8 89q0 100 -35 147q49 32 102 32q11 0 20.5 -1t18.5 -5q10 -18 14 -36.5t4 -39.5q0 -28 -5 -56.5t-11.5 -56.5t-11.5 -56.5
t-5 -56.5q0 -24 7.5 -37t18.5 -13q21 0 27 38z" />
    <glyph glyph-name="afii10075" unicode="&#x439;" horiz-adv-x="415" 
d="M397 236q3 -29 3 -58q0 -91 -28 -141t-70 -50q-31 0 -50 35t-19 103q0 19 1.5 40.5t5.5 45.5q-13 -29 -18 -63.5t-16 -69.5q-28 -91 -100 -91q-45 0 -70.5 38.5t-25.5 108.5q0 24 4 47.5t13 47.5q16 44 32 80t16 71q0 15 -7 24t-16 9q-18 0 -22 -22q-3 15 -3 30
q0 64 28 103t68 39q42 0 65 -33t23 -96q0 -35 -11.5 -64t-27.5 -61l-28 -57.5t-12 -49.5q0 -20 8.5 -31t22.5 -11q16 0 32 15.5t29 44t21 68.5t8 89q0 100 -35 147q49 32 102 32q11 0 20.5 -1t18.5 -5q10 -18 14 -36.5t4 -39.5q0 -28 -5 -56.5t-11.5 -56.5t-11.5 -56.5
t-5 -56.5q0 -24 7.5 -37t18.5 -13q21 0 27 38zM212 612q-21 -1 -41 5t-35 18t-24 28.5t-9 35.5q0 58 64 77q-14 -14 -14 -28q1 -21 19 -34.5t38 -10.5q24 -1 39.5 14.5t15.5 30.5q0 14 -14 28q64 -19 64 -77q0 -38 -29 -61.5t-74 -25.5z" />
    <glyph glyph-name="afii10076" unicode="&#x43a;" horiz-adv-x="423" 
d="M182 0q-42 -6 -83 -6q-45 0 -91 6q24 72 36.5 137.5t12.5 125.5q0 96 -35 180q64 81 157 121q-15 -76 -23 -149q-6 -65 -7 -132q13 0 24 -1q-2 17 -1 39q1 26 5.5 52t11 50.5t13.5 41.5q17 42 44.5 69t65.5 27q45 0 72.5 -39t27.5 -111q0 -66 -27 -103.5t-72 -37.5
q-43 0 -69 44l10 -3q42 10 42 48q0 47 -44 47q-14 0 -26.5 -11.5t-21.5 -30t-13 -42.5q-3 -22 0 -44l5 -2q20 -9 32 -29l16.5 -28.5t16.5 -23t21 -15.5t30 -6q32 0 54 29.5t30 75.5q10 -34 10 -78q0 -106 -26 -162t-68 -55q-32 1 -51.5 18.5t-29.5 44.5q-8 22 -10.5 50.5
t-5.5 57t-9 54t-20 40.5q-8 8 -19 9q-8 1 -18 1q0 -80 8 -144q9 -67 25 -115z" />
    <glyph glyph-name="afii10077" unicode="&#x43b;" horiz-adv-x="431" 
d="M272 369q-2 38 -10.5 62t-19 31.5t-19 -2t-10.5 -36.5q-2 -71 -2 -144t-8.5 -134.5t-31.5 -104.5t-71 -54q-14 -3 -28 2t-26 15.5t-21.5 24t-13.5 27.5q-6 22 -3.5 50t13.5 54.5t29.5 46.5t44.5 26q9 4 21 4l4 -8q-42 -12 -33 -45q3 -11 13.5 -15.5t18.5 -2.5q12 3 21 20
t15 41.5t9.5 54.5t5 58.5t2 53.5t0.5 40q0 4 -0.5 7.5t-0.5 5.5q-2 7 -8 10t-11 2q-9 0 -13.5 -8t-6.5 -20t-2 -27v-28l-8 6q-19 38 -10.5 73.5t33 62t59.5 41.5t70 13t64.5 -23.5t42.5 -68.5q7 -27 5 -55t-7 -56.5l-10.5 -57.5t-5.5 -57q0 -24 7.5 -37t18.5 -13q21 0 27 38
q3 -29 3 -58q0 -91 -28 -144t-70 -53q-31 0 -50 37.5t-19 106.5q0 9 3.5 39.5l7.5 67.5t7 73.5t2 57.5z" />
    <glyph glyph-name="afii10078" unicode="&#x43c;" horiz-adv-x="637" 
d="M336 -12q-16 1 -31 1h-27q-20 0 -36.5 -1.5t-14.5 -3.5q0 6 1.5 32.5t3 64t4 81t4 84t3 72.5t1.5 46q1 41 -4 65.5t-12.5 32t-14 -2.5t-8.5 -37q-2 -71 -2 -143.5t-9 -134t-31.5 -104t-68.5 -53.5q-14 -3 -27.5 2t-25 15.5t-20.5 24t-13 27.5q-6 22 -3.5 50.5t13 55
t28.5 46.5t43 26q9 4 21 4l3 -8q-40 -12 -32 -45q3 -11 13.5 -15.5t17.5 -2.5q12 3 21 20t14.5 41.5t9 54.5t5 59t2 54t0.5 40q0 4 -0.5 7.5t-0.5 5.5q-2 7 -8 10t-11 2q-8 0 -12.5 -8t-6.5 -20t-2 -27v-28l-8 6q-17 38 -12.5 73.5t23 62t47.5 42t61 14.5q44 -1 69 -25.5
t36.5 -63.5t12.5 -87.5t-2.5 -99t-9 -97.5t-6.5 -82l82 311q0 4 -0.5 7.5t-0.5 5.5q-5 12 -12 11q-9 0 -13 -8t-5.5 -20t-1 -27t0.5 -28l-9 6q-18 39 -12.5 74.5t25.5 62t49.5 41.5t59.5 13t55.5 -23.5t37.5 -68.5q7 -28 5 -56t-7 -56.5l-10.5 -57.5t-5.5 -58q0 -50 25 -50
q20 0 26 38q3 -29 3 -58q0 -91 -26.5 -144.5t-68.5 -53.5q-30 0 -48.5 34.5t-18.5 104.5q0 9 1 38.5t3.5 65.5l5 71.5t5.5 56.5q4 29 6 49t0 31q-5 20 -13.5 20.5t-17.5 -31.5q-1 0 -1 -3.5t-3 -17t-9.5 -40.5t-19.5 -75.5l-33.5 -121z" />
    <glyph glyph-name="afii10079" unicode="&#x43d;" horiz-adv-x="422" 
d="M6 527q25 16 48 24t49 8q11 0 18 -1t16 -5q18 -29 22 -88.5t1 -131.5l95 1q1 46 0 79t-4.5 56.5t-8.5 37.5t-12 23q50 32 102 32q11 0 20.5 -1t18.5 -5q10 -18 14 -36.5t4 -39.5q0 -29 -5 -58t-11.5 -58t-11.5 -58.5t-5 -57.5q0 -24 7.5 -37t18.5 -13q21 0 27 38
q3 -29 3 -58q0 -91 -28 -141t-70 -50q-31 0 -50 34.5t-19 103.5q0 19 1 40.5t5 45.5q1 21 1.5 39t1.5 35h-96q0 -59 -0.5 -102.5t-2.5 -77.5t-5 -60.5t-7 -52.5q-9 -4 -13.5 -5t-15.5 -1q-52 0 -102 32q7 3 13 36t9 82t3 108t-3 114.5t-10 101t-18 67.5z" />
    <glyph glyph-name="afii10080" unicode="&#x43e;" horiz-adv-x="338" 
d="M201 417q-4 -1 -7 -1.5t-7 -0.5q-24 0 -39.5 16t-15.5 41q0 34 20.5 54.5t52.5 20.5q24 0 45 -19t37.5 -55t26 -87t9.5 -115q0 -141 -41.5 -212.5t-116.5 -71.5q-32 0 -59.5 18.5t-47.5 54t-31.5 86t-11.5 113.5q0 153 53 235t147 84q-120 -21 -120 -207q0 -78 22 -119.5
t53 -41.5q29 0 46 38t17 110q0 118 -36 118q-10 0 -16.5 -7.5t-6.5 -20.5q0 -25 27 -31z" />
    <glyph glyph-name="afii10081" unicode="&#x43f;" horiz-adv-x="412" 
d="M388 228q14 -45 14 -86q0 -72 -27 -113.5t-69 -41.5q-48 0 -78.5 45.5t-30.5 125.5q0 48 15 84.5t33 71.5t33.5 70.5t15.5 80.5q0 27 -11 41t-28 14t-33.5 -19t-29.5 -54t-21.5 -84.5t-8.5 -111.5q0 -151 42 -251q-20 -2 -43 -3.5t-49 -1.5q-25 0 -47.5 1t-44.5 4
q45 135 45 250q0 102 -41 188q38 52 74.5 83t75.5 42q-13 -58 -13 -105v-15l1 -18q15 69 44.5 104t69.5 35q48 0 77 -43.5t29 -122.5q0 -22 -4.5 -44t-10 -44t-10 -44t-4.5 -44q0 -30 18 -30q17 0 17 31v5z" />
    <glyph glyph-name="afii10082" unicode="&#x440;" horiz-adv-x="392" 
d="M163 416q36 148 109 148q21 0 40.5 -18.5t33.5 -53.5t22.5 -86t8.5 -116q0 -151 -30.5 -227t-86.5 -76q-74 0 -100 149v-29q4 -118 21 -196.5t49 -118.5q-27 -2 -54.5 -3t-56.5 -1q-32 0 -63 1t-61 3q32 76 49 174t17 216q0 88 -11.5 151t-37.5 104q70 104 154 126
q-3 -74 -3 -147zM268 326q0 71 -13 108t-32 37q-21 0 -35 -39.5t-14 -116.5q0 -71 14.5 -108.5t34.5 -37.5q19 0 32 40t13 117z" />
    <glyph glyph-name="afii10083" unicode="&#x441;" horiz-adv-x="315" 
d="M294 300q3 -33 3 -56q0 -60 -10.5 -107.5t-28.5 -80.5t-42.5 -51t-52.5 -18q-69 0 -110 71.5t-41 205.5q0 69 13 124.5t36 94t54 59.5t67 21q48 0 79 -44t31 -119q0 -60 -21 -94.5t-51 -34.5q-32 0 -55 30.5t-23 81.5q0 42 13.5 71t36.5 41q-7 -11 -7 -26q0 -17 7 -26.5
t18 -9.5q9 0 16 12t7 33q0 27 -14 43t-33 16q-15 0 -29.5 -12t-26.5 -33.5t-19 -51t-7 -64.5q0 -81 27.5 -126.5t70.5 -45.5q66 0 92 96z" />
    <glyph glyph-name="afii10084" unicode="&#x442;" horiz-adv-x="607" 
d="M581 222q15 -41 15 -83q0 -73 -28.5 -114t-67.5 -41q-45 0 -74.5 39.5t-29.5 111.5q0 39 12 74t26 70t26.5 73t12.5 78q0 22 -9.5 34t-23.5 12q-17 0 -32 -17.5t-26 -49.5t-18 -78.5t-7 -104.5q0 -63 11 -120.5t36 -112.5q-22 -3 -44.5 -4t-47.5 -1q-26 0 -49 1.5
t-43 3.5q20 72 30.5 158t10.5 182q0 119 -37 119q-23 0 -41.5 -64t-18.5 -179q0 -137 36 -216q-20 -2 -42.5 -3.5t-48.5 -1.5q-23 0 -44.5 1t-41.5 4q19 66 28.5 129t9.5 126q0 60 -10.5 108.5t-30.5 80.5q42 48 78.5 79t73.5 48q-3 -28 -3.5 -52.5t-0.5 -47.5v-59
q20 79 48.5 119t60.5 40q38 0 60.5 -38.5t24.5 -116.5q20 78 52.5 116.5t72.5 38.5q42 0 65.5 -37.5t23.5 -109.5q0 -26 -5 -51.5t-10.5 -50l-10.5 -47t-5 -42.5q0 -42 20 -42q17 0 17 26q0 9 -1 12z" />
    <glyph glyph-name="afii10085" unicode="&#x443;" horiz-adv-x="386" 
d="M396 561q-53 -167 -53 -307q0 -51 5.5 -102t5.5 -102q0 -231 -160 -231q-72 0 -114.5 45.5t-42.5 126.5v14q17 -40 40.5 -58.5t59.5 -18.5q54 0 78.5 49.5t24.5 150.5v31.5t-1 49.5q-18 -100 -51.5 -150.5t-79.5 -50.5q-42 0 -67.5 32.5t-25.5 89.5q0 36 15 72
q21 52 36 92.5t15 74.5q0 24 -7.5 37t-18.5 13q-19 0 -24 -29q-4 15 -4 30q0 65 27.5 103t65.5 38q42 0 66.5 -32.5t24.5 -93.5q0 -33 -10.5 -62.5t-24.5 -59.5l-24 -51.5t-11 -47.5q0 -36 27 -36q13 0 27.5 14t26 39.5t19 62.5t7.5 83q0 52 -16 103q69 68 164 81z" />
    <glyph glyph-name="afii10086" unicode="&#x444;" horiz-adv-x="561" 
d="M437 326q0 145 -45 145q-20 0 -34.5 -39.5t-14.5 -115.5q0 -144 49 -144q17 0 31 39.5t14 114.5zM121 326q0 -75 14 -114.5t31 -39.5q49 0 49 144q0 76 -14.5 115.5t-34.5 39.5q-45 0 -45 -145zM228 417q-5 84 2.5 163t27.5 143t52 106.5t76 53.5q29 7 51.5 0.5
t38.5 -22.5t26 -40t14 -52q9 -57 -12.5 -95t-60.5 -41q-34 -3 -56.5 15.5t-28.5 53.5q-7 62 63 95q-10 -14 -12.5 -25t-0.5 -21q4 -30 33 -28q15 2 22.5 17.5t2.5 41.5q-6 33 -23.5 50.5t-42.5 15.5t-40.5 -21.5t-26.5 -56.5q-5 -18 -8 -57.5t-3.5 -89t2 -104t8.5 -102.5
q16 73 45.5 110t63.5 37q21 0 40 -18.5t33.5 -53.5t23.5 -86t9 -116q0 -152 -31 -227.5t-86 -75.5q-37 0 -63 36t-37 108v-38q0 -112 14.5 -185.5t51.5 -115.5q-29 -4 -58 -5.5t-58 -1.5t-59 1.5t-59 5.5q37 42 51.5 115.5t14.5 185.5v38q-11 -72 -37 -108t-63 -36
q-55 0 -86 75.5t-31 227.5q0 65 9 116t23.5 86t33.5 53.5t40 18.5q34 0 64.5 -37t46.5 -110z" />
    <glyph glyph-name="afii10087" unicode="&#x445;" horiz-adv-x="378" 
d="M356 267q4 -18 5.5 -36.5t1.5 -36.5q0 -98 -31 -152.5t-76 -54.5q-66 0 -91 99q-35 -99 -82 -99q-29 0 -51 33t-22 92q0 62 19 95.5t45 33.5q27 0 38 -32h-3q-28 0 -28 -55q0 -26 10.5 -41.5t24.5 -15.5q12 0 24 13.5t12 36.5q0 17 -12.5 65.5l-33.5 129.5
q-6 23 -13.5 33.5t-20.5 10.5q-26 0 -27 -45q-4 23 -6 39.5t-2 28.5q0 33 7 61.5t19 49t27.5 32t32.5 11.5q35 0 58 -37.5t40 -115.5q29 146 82 146q26 0 42.5 -28.5t16.5 -82.5q0 -52 -19 -81.5t-42 -29.5q-18 0 -28 16h1q11 0 17.5 10.5t6.5 27.5t-7.5 26.5t-19.5 9.5
q-13 0 -25 -17.5t-12 -39.5q0 -11 6.5 -47t23.5 -90q15 -47 43 -47q41 0 49 84z" />
    <glyph glyph-name="afii10088" unicode="&#x446;" horiz-adv-x="433" 
d="M365 -15q-34 -8 -58.5 0.5t-41 29t-24.5 50t-8 62.5q0 19 1.5 40.5t5.5 45.5q-13 -29 -18 -63.5t-16 -69.5q-28 -91 -100 -91q-45 0 -70.5 38.5t-25.5 108.5q0 36 10 69.5t22.5 64.5t22.5 59t10 53q0 15 -7 24t-16 9q-18 0 -22 -22q-3 15 -3 30q0 64 28 103t68 39
q42 0 65 -33t23 -96q0 -32 -12.5 -64t-27 -62l-27 -57t-12.5 -49q0 -42 31 -42q16 0 32 15.5t29 44t21 68.5t8 89q0 100 -35 147q50 32 102 32q11 0 20.5 -1t18.5 -5q10 -18 14 -36.5t4 -39.5q0 -28 -5 -56.5t-11.5 -56.5t-11.5 -56.5t-5 -56.5q0 -24 7.5 -37t18.5 -13
t21.5 9t5.5 32q16 -40 21.5 -77.5t4 -70t-8.5 -59t-16 -42.5q-1 -25 1 -61t-3 -69t-23.5 -56.5t-59.5 -23.5q-27 -2 -46 10.5t-30 33t-12.5 45t7.5 45.5t29 35.5t53 15.5h6q-14 -8 -17 -14.5t-2 -20.5q1 -16 7 -26.5t17 -8.5q17 -2 25 6t11.5 21.5t3.5 30v32.5v-2z" />
    <glyph glyph-name="afii10089" unicode="&#x447;" horiz-adv-x="424" 
d="M262 352q-13 -27 -24.5 -64t-28 -70t-41.5 -54t-64 -17q-30 3 -49.5 24t-25.5 57q-2 21 3 37.5t11.5 34t12 36.5t5.5 44q0 15 -7 24t-16 9q-18 0 -22 -22q-3 15 -3 30q0 64 28 103t68 39q21 0 37 -6.5t24.5 -27.5t7 -61.5t-16.5 -109.5q-2 -10 -2 -24.5t2.5 -27.5t7 -22
t11.5 -8q18 2 32 19.5t23 43t13 55.5t3.5 56.5t-6 47t-15.5 26.5q50 32 102 32q11 0 20.5 -1t18.5 -5q10 -18 14 -36.5t4 -39.5q0 -28 -5 -56.5t-11.5 -56.5t-11.5 -56.5t-5 -56.5q0 -24 7.5 -37t18.5 -13q21 0 27 38q3 -29 3 -58q0 -91 -28 -141t-70 -50q-37 0 -53.5 35
t-19.5 88.5t4 118t17 123.5z" />
    <glyph glyph-name="afii10090" unicode="&#x448;" horiz-adv-x="610" 
d="M362 173q16 0 32 14t29 41t21 65.5t8 87.5q0 100 -35 147q50 32 102 32q11 0 20.5 -1t18.5 -5q10 -18 14 -36.5t4 -39.5q0 -28 -5 -56.5t-11.5 -56.5t-11.5 -56.5t-5 -56.5q0 -24 7.5 -37t18.5 -13q21 0 27 38q3 -29 3 -58q0 -91 -28 -141t-70 -50q-31 0 -50 34.5
t-19 103.5q0 19 1.5 40.5t5.5 45.5q-13 -29 -18 -63.5t-16 -69.5q-14 -46 -39 -70.5t-61 -24.5q-31 0 -50 34.5t-19 103.5q0 19 1.5 40.5t5.5 45.5l-2 1q-13 -29 -18 -63.5t-16 -69.5q-28 -91 -100 -91q-45 0 -70.5 38.5t-25.5 108.5q0 24 4 47.5t13 47.5q16 45 32 80.5
t16 70.5q0 15 -7 24t-16 9q-18 0 -22 -22q-3 15 -3 30q0 64 28 103t68 39q42 0 65 -33t23 -96q0 -35 -11.5 -64t-27.5 -61l-28 -57.5t-12 -49.5q0 -42 31 -42q16 0 33 16.5t30.5 46t22 70.5t8.5 90q3 98 -33 146q50 32 102 32q11 0 20.5 -1t18.5 -5q10 -18 13 -36.5t5 -39.5
q2 -22 -1.5 -53.5t-9.5 -65.5l-12.5 -67.5t-10 -60.5t-1.5 -43.5t13 -16.5z" />
    <glyph glyph-name="afii10091" unicode="&#x449;" horiz-adv-x="632" 
d="M432 129q0 19 1.5 40.5t5.5 45.5q-13 -29 -18 -63.5t-16 -69.5q-14 -46 -39 -70.5t-61 -24.5q-31 0 -50 34.5t-19 103.5q0 19 1.5 40.5t5.5 45.5l-2 1q-13 -29 -18 -63.5t-16 -69.5q-28 -91 -100 -91q-45 0 -70.5 38.5t-25.5 108.5q0 24 4 47.5t13 47.5q16 45 32 80.5
t16 70.5q0 15 -7 24t-16 9q-18 0 -22 -22q-3 15 -3 30q0 64 28 103t68 39q42 0 65 -33t23 -96q0 -35 -11.5 -64t-27.5 -61l-28 -57.5t-12 -49.5q0 -42 31 -42q16 0 33 16.5t30.5 46t22 70.5t8.5 90q3 98 -33 146q50 32 102 32q11 0 20.5 -1t18.5 -5q10 -18 13 -36.5t5 -39.5
q2 -22 -1.5 -53.5t-9.5 -65.5l-12.5 -67.5t-10 -60.5t-1.5 -43.5t13 -16.5q16 0 32 14t29 41t21 65.5t8 87.5q0 100 -35 147q50 32 102 32q11 0 20.5 -1t18.5 -5q10 -18 14 -36.5t4 -39.5q0 -28 -5 -56.5t-11.5 -56.5t-11.5 -56.5t-5 -56.5q0 -24 7.5 -37t18.5 -13t21.5 9
t5.5 32q16 -40 21.5 -77t4 -69t-8.5 -58t-16 -42q-1 -25 1 -61t-3 -69t-23.5 -56.5t-59.5 -23.5q-27 -2 -46 10.5t-30 33t-12.5 45t7.5 45.5t29 35.5t53 15.5h6q-14 -8 -17 -14.5t-2 -20.5q1 -16 7 -26.5t17 -8.5q17 -2 25 6t11.5 21.5t3.5 30v32.5v-2q-34 -8 -58.5 0
t-41 28t-24.5 49t-8 62z" />
    <glyph glyph-name="afii10092" unicode="&#x44a;" horiz-adv-x="393" 
d="M168 188q-6 27 0 50.5t22 41t39.5 26.5t50.5 8q32 -2 53 -18t32.5 -41t14 -55t-2 -60t-15 -55.5t-25.5 -41.5q-27 -29 -59 -43.5t-77 -14.5q-49 2 -83.5 22.5t-55 50.5t-26.5 67.5t3 74.5t32.5 69.5t62.5 54.5q22 12 46.5 28.5t46.5 36t39.5 42t26.5 48.5
q-25 -34 -57 -34q-13 0 -25 3.5t-23.5 8t-22.5 8t-21 3.5q-16 0 -25.5 -9t-9.5 -26q0 -14 8.5 -23t19.5 -9q15 0 23 19q-6 -76 -66 -76q-17 0 -32 8t-26.5 22t-18.5 33t-7 41q0 25 8 46.5t22.5 37t33.5 24t40 8.5q24 0 44.5 -11.5t38 -26t34 -26t33.5 -11.5q37 0 37 60v7
q14 -22 13 -49q-2 -43 -16.5 -75.5t-34.5 -58t-43 -46t-43 -41t-33.5 -42.5t-14.5 -49q-5 -31 11 -49.5t38.5 -20.5t46 14t34.5 54q4 37 -8.5 53.5t-29.5 15t-33 -20.5t-20 -53z" />
    <glyph glyph-name="afii10093" unicode="&#x44b;" horiz-adv-x="544" 
d="M152 324q13 37 33 58.5t42.5 28.5t45 0t40.5 -28q27 -31 39 -72.5t11.5 -85.5t-13 -86.5t-35.5 -76.5t-55 -54.5t-72 -20.5q-32 0 -59.5 15.5t-48 44.5t-32.5 70.5t-12 93.5q0 15 3 38.5t5.5 50.5t3 55.5t-3.5 54t-14 46t-29 30.5q20 17 37.5 29t34.5 21t34.5 16t37.5 14
q17 -18 21 -48.5t1.5 -65t-8.5 -69t-7 -59.5zM257 233q5 57 -9 82.5t-35 25.5q-17 0 -29 -12.5t-19 -33t-9 -47t1 -54.5q10 -26 26 -32.5t31.5 1t27.5 26t15 44.5zM532 0q-42 -6 -83 -6q-45 0 -91 6q24 72 36.5 137.5t12.5 125.5q0 96 -35 180q64 81 157 121
q-30 -152 -30 -300q0 -85 8.5 -150.5t24.5 -113.5z" />
    <glyph glyph-name="afii10094" unicode="&#x44c;" horiz-adv-x="376" 
d="M152 324q13 37 33 58.5t42.5 28.5t45 0t40.5 -28q27 -31 39 -72.5t11.5 -85.5t-13 -86.5t-35.5 -76.5t-55 -54.5t-72 -20.5q-32 0 -59.5 15.5t-48 44.5t-32.5 70.5t-12 93.5q0 15 3 38.5t5.5 50.5t3 55.5t-3.5 54t-14 46t-29 30.5q20 17 37.5 29t34.5 21t34.5 16t37.5 14
q17 -18 21 -48.5t1.5 -65t-8.5 -69t-7 -59.5zM257 233q5 57 -9 82.5t-35 25.5q-17 0 -29 -12.5t-19 -33t-9 -47t1 -54.5q10 -26 26 -32.5t31.5 1t27.5 26t15 44.5z" />
    <glyph glyph-name="afii10095" unicode="&#x44d;" horiz-adv-x="332" 
d="M155 490q6 -30 -1.5 -51.5t-23 -34t-35 -16t-36.5 2.5t-28.5 22t-10.5 42q2 57 37 83t89 26q37 0 68.5 -22.5t54.5 -62.5t35.5 -95.5t12.5 -122.5q0 -65 -12 -115.5t-33.5 -86t-51.5 -54t-66 -18.5q-30 0 -55 16t-44 45t-29.5 70t-10.5 91q0 41 9 86q24 -125 101 -125
q35 0 55.5 25t31.5 71q2 22 -7 33t-23 11q-8 0 -16.5 -3.5t-14 -12t-6 -22t8.5 -32.5q-24 0 -39.5 18.5t-15.5 51.5q0 35 18.5 55t46.5 20q18 0 34.5 -15.5t21.5 -32.5q1 38 -4 74t-14 64t-23 45t-31 17q-20 0 -32 -8t-16.5 -18.5t-2.5 -21t9.5 -15.5t20 -2.5t28.5 18.5z
" />
    <glyph glyph-name="afii10096" unicode="&#x44e;" horiz-adv-x="551" 
d="M6 527q25 16 48 24t49 8q11 0 18 -1t16 -5q18 -29 22 -87t1 -130h1h74q13 116 64 176.5t132 62.5q-120 -21 -120 -207q0 -78 22 -119.5t53 -41.5q29 0 46 38t17 110q0 118 -36 118q-10 0 -16.5 -7.5t-6.5 -20.5q0 -25 27 -31q-4 -1 -7 -1.5t-7 -0.5q-24 0 -39.5 16
t-15.5 41q0 34 20.5 54.5t52.5 20.5q24 0 45 -19t37.5 -55t26 -87t9.5 -115q0 -141 -41.5 -212.5t-116.5 -71.5q-32 0 -59.5 18t-47.5 52t-31.5 84t-11.5 113v29h-72h-2q-1 -82 -5 -153.5t-9 -134.5q-9 -4 -13.5 -5t-15.5 -1q-52 0 -102 32q7 3 12.5 36t9 82.5t4 108t-3 114
t-10.5 101t-18 67.5z" />
    <glyph glyph-name="afii10097" unicode="&#x44f;" horiz-adv-x="476" 
d="M232 286q-11 -5 -16 -22q-3 -17 -3.5 -43.5t-1.5 -55.5t-5.5 -59t-16 -55t-31.5 -42.5t-52 -22.5q-14 -2 -28 3.5t-26.5 15.5t-22 23t-13.5 27q-7 22 -5 49.5t12 52.5t28 44t42 25q7 4 21 4l4 -8q-42 -12 -31 -45q3 -11 16 -15.5t21 -2.5q18 4 28 16.5t15.5 29.5t7 35.5
t3.5 35.5q4 10 14 20q-49 5 -79 24t-43.5 45.5t-11 56t17.5 56t41.5 46.5t62.5 26q39 11 80 8.5t78.5 -16t68 -37.5t47.5 -57q-35 -88 -35 -180q0 -60 12.5 -131t36.5 -143q-23 -3 -48 -4l-48 -2l-44 2t-44 4q7 11 12 34.5t9 53.5t6.5 63.5t4.5 64t2.5 55.5t0.5 38
q-2 36 0.5 70t2.5 62.5t-6.5 49.5t-25.5 30q-88 4 -98 -81q-4 -36 4.5 -55t23.5 -29.5t33.5 -16t33.5 -15t23.5 -27.5t4.5 -52q-1 -11 -8.5 -20t-19.5 -15.5t-27.5 -9t-31.5 0.5q9 3 18 17.5t12 31t-2 29.5t-24 13z" />
    <glyph glyph-name="afii10023" unicode="&#x401;" horiz-adv-x="445" 
d="M412 322q3 -99 3 -163q0 -42 -1 -81.5t-3 -77.5q-43 -2 -92 -3.5t-104 -1.5q-53 0 -101 1t-94 4q58 145 58 389q0 222 -47 349q51 2 97 3.5t88 1.5q43 0 90 -1.5t98 -3.5q1 -28 1 -51v-42q0 -35 -1 -83t-3 -109q-17 113 -47.5 169t-69.5 56q-38 0 -60 -56t-24 -168
q25 67 80 67q43 0 71 -39.5t28 -106.5q0 -66 -23.5 -103.5t-58.5 -37.5q-26 0 -42.5 19.5t-16.5 52.5v5q6 -22 24 -22q11 0 19 11.5t8 31.5t-9.5 31.5t-24.5 11.5q-55 0 -55 -132q0 -78 23.5 -119.5t61.5 -41.5q97 0 127 240zM419 866q0 -32 -22.5 -54.5t-55.5 -22.5
q-32 0 -54.5 22.5t-22.5 54.5q0 33 22.5 55.5t54.5 22.5q33 0 55.5 -22.5t22.5 -55.5zM209 866q0 -32 -22.5 -54.5t-54.5 -22.5q-33 0 -55.5 22.5t-22.5 54.5q0 33 22.5 55.5t55.5 22.5q16 0 30 -6t24.5 -16.5t16.5 -25t6 -30.5z" />
    <glyph glyph-name="afii10071" unicode="&#x451;" horiz-adv-x="317" 
d="M308 295q9 -45 9 -86q0 -50 -10.5 -91t-29.5 -70t-44 -45t-55 -16q-36 0 -66 18.5t-51.5 54t-33.5 86t-12 115.5q0 69 13.5 124.5t36.5 95.5t53.5 61.5t65.5 21.5q25 0 46.5 -12t37.5 -33.5t25 -52t9 -66.5q0 -75 -24 -115.5t-63 -40.5q-67 0 -91 92q-3 -23 -3 -44
q0 -60 23 -91t63 -31q77 0 101 125zM221 449q0 44 -10.5 66.5t-28.5 22.5q-20 0 -33.5 -23t-13.5 -65q0 -43 11.5 -65.5t31.5 -22.5q19 0 31 22.5t12 64.5zM338 690q0 -34 -20.5 -58t-50.5 -24t-50.5 24t-20.5 58q0 35 20.5 59t50.5 24t50.5 -24t20.5 -59zM146 690
q0 -34 -20.5 -58t-50.5 -24t-50.5 24t-20.5 58q0 35 20.5 59t50.5 24q15 0 28 -6.5t22.5 -17.5t15 -26.5t5.5 -32.5z" />
    <glyph glyph-name="afii61352" unicode="&#x2116;" horiz-adv-x="749" 
d="M487 737q-58 -79 -58 -357q0 -196 24 -380q-29 -3 -61 -3q-42 0 -78 3l-86.5 243.5t-97.5 248.5q-3 -60 -3 -121q0 -118 13.5 -210t47.5 -161q-18 -2 -37.5 -3t-39.5 -1q-15 0 -39 1t-57 3q28 69 43 169t15 233q0 110 -11.5 193.5t-36.5 142.5q40 3 82 3q44 0 86 -3
l17 -55t12 -38q1 49 41 77t112 28q22 0 49.5 -3.5t62.5 -9.5zM369 274q9 115 9 254q0 115 -53 115q-17 0 -28.5 -12t-11.5 -30q0 -17 9.5 -27t22.5 -10q19 0 22 23q10 -13 10 -30q0 -24 -13 -37.5t-36 -13.5q-14 0 -30 11q43 -125 99 -243zM724 187q-48 3 -99 3t-103 -3
q2 11 2 22.5v23.5v23t-2 23q27 -2 52.5 -3t51.5 -1q25 0 49.5 1t48.5 3q-3 -23 -3 -46q0 -24 3 -46zM638 628q-44 0 -44 45q0 23 15 38t37 15q37 0 64 -54t27 -153q0 -105 -31.5 -159.5t-86.5 -54.5q-23 0 -43.5 13.5t-36 40t-24.5 64.5t-9 86q0 115 39.5 176t110.5 64
q-48 -10 -69 -49t-21 -113q0 -54 17 -84t39 -30q23 0 35.5 29.5t12.5 87.5q0 82 -26 82q-18 0 -18 -21q0 -19 19 -23h-7z" />
    <glyph glyph-name="afii10062" unicode="&#x40e;" horiz-adv-x="480" 
d="M229 -2q-44 1 -76.5 14t-54 31.5t-32.5 40t-11 40.5q-5 34 4 59.5t26 42.5t40 25.5t46 9.5q44 3 70 -21t27 -66q-1 -35 -17 -57t-39 -26q7 6 6 16q1 13 -7.5 20.5t-19.5 6.5q-13 0 -24 -13t-12 -31q0 -18 10.5 -31t27 -19.5t36.5 -5.5t40 12q24 10 35.5 46.5t14.5 83
t1 94.5t-5 82q-8 -24 -22.5 -38.5t-32 -22.5t-35.5 -11t-32 -3q-21 0 -38.5 12t-29.5 34t-19 51.5t-7 65.5q0 4 -1 18t-4.5 29t-9.5 26.5t-16 11.5q-7 0 -12.5 -8.5t-9 -21.5t-5 -28t-1.5 -28v-10q-11 34 -20.5 67t-10.5 67q0 91 31.5 140t88.5 49q48 0 78 -41.5t30 -116.5
q0 -21 -6 -46t-13.5 -51.5l-14 -51.5t-7 -46t7.5 -35.5t29 -18.5q23 -5 39.5 19.5t25.5 65.5t11 91t-4 96t-19.5 81.5t-35.5 47.5q60 6 121 6q32 0 59.5 -1.5t59.5 -4.5q-29 -40 -41 -78t-15.5 -79t-2 -87.5t-0.5 -104.5q-2 -48 -1 -95.5t-2 -90.5t-12 -80.5t-31 -65.5
t-59.5 -46t-96.5 -21zM265 783q-21 -1 -41 5t-35 18t-24 28.5t-9 35.5q0 58 64 77q-14 -14 -14 -28q1 -21 19 -34.5t38 -10.5q24 -1 39.5 14.5t15.5 30.5q0 14 -14 28q64 -19 64 -77q0 -38 -29 -61.5t-74 -25.5z" />
    <glyph glyph-name="afii10110" unicode="&#x45e;" horiz-adv-x="386" 
d="M396 561q-53 -167 -53 -307q0 -51 5.5 -102t5.5 -102q0 -231 -160 -231q-72 0 -114.5 45.5t-42.5 126.5v14q17 -40 40.5 -58.5t59.5 -18.5q54 0 78.5 49.5t24.5 150.5v31.5t-1 49.5q-18 -100 -51.5 -150.5t-79.5 -50.5q-42 0 -67.5 32.5t-25.5 89.5q0 36 15 72
q21 52 36 92.5t15 74.5q0 24 -7.5 37t-18.5 13q-19 0 -24 -29q-4 15 -4 30q0 65 27.5 103t65.5 38q42 0 66.5 -32.5t24.5 -93.5q0 -33 -10.5 -62.5t-24.5 -59.5l-24 -51.5t-11 -47.5q0 -36 27 -36q13 0 27.5 14t26 39.5t19 62.5t7.5 83q0 52 -16 103q69 68 164 81zM212 612
q-21 -1 -41 5t-35 18t-24 28.5t-9 35.5q0 58 64 77q-14 -14 -14 -28q1 -21 19 -34.5t38 -10.5q24 -1 39.5 14.5t15.5 30.5q0 14 -14 28q64 -19 64 -77q0 -38 -29 -61.5t-74 -25.5z" />
    <glyph glyph-name="afii10101" unicode="&#x454;" horiz-adv-x="332" 
d="M177 490q16 -16 28.5 -18.5t20 2.5t9.5 15.5t-2.5 21t-16.5 18.5t-32 8q-17 0 -31 -17t-23 -45t-14 -64t-4 -74q5 17 21.5 32.5t34.5 15.5q28 0 46.5 -20t18.5 -55q0 -33 -15.5 -51.5t-39.5 -18.5q9 19 8.5 32.5t-6 22t-14 12t-16.5 3.5q-14 0 -23 -11t-7 -33
q11 -46 31.5 -71t55.5 -25q77 0 101 125q9 -45 9 -86q0 -50 -10.5 -91t-29.5 -70t-44 -45t-55 -16q-36 0 -66 18.5t-51.5 54t-33.5 86t-12 115.5q0 67 12.5 122.5t35.5 95.5t54.5 62.5t68.5 22.5q54 0 89 -26t37 -83q1 -26 -10.5 -42t-28.5 -22t-36.5 -2.5t-35 16t-23 34
t-1.5 51.5z" />
    <glyph glyph-name="afii10053" unicode="&#x404;" horiz-adv-x="405" 
d="M21 389q0 67 10.5 127t35.5 107t67 79.5t106 45.5q21 0 39.5 -7l35 -13t31 -6.5t28.5 12.5v-66.5t-0.5 -64.5l-1 -69t-1.5 -81q-17 113 -49.5 164.5t-71.5 51.5q-38 0 -66 -51.5t-30 -163.5q25 67 80 67q43 0 71 -39.5t28 -106.5q0 -66 -23.5 -103.5t-58.5 -37.5
q-26 0 -42.5 19.5t-16.5 52.5v5q6 -22 24 -22q11 0 19 11.5t8 31.5t-9.5 31.5t-24.5 11.5q-55 0 -55 -132q0 -39 8 -69t21.5 -50.5t31 -31t36.5 -10.5q49 0 82.5 59.5t48.5 180.5q2 -47 2.5 -87t0.5 -77.5t-1 -75.5t-3 -80q-44 -6 -88 -6t-84 11.5t-74.5 37t-59.5 70.5
t-39.5 112t-14.5 162z" />
    <glyph glyph-name="uni0406" unicode="&#x406;" horiz-adv-x="264" 
d="M244 0q-25 -2 -53 -3.5t-60 -1.5q-30 0 -57.5 1t-53.5 4q28 94 41 189t13 197q0 95 -12 182t-38 170q30 2 56.5 3.5t50.5 1.5q27 0 53.5 -1.5t52.5 -3.5q-43 -166 -43 -347q0 -118 12 -215.5t38 -175.5z" />
    <glyph glyph-name="afii10056" unicode="&#x407;" horiz-adv-x="264" 
d="M244 0q-25 -2 -53 -3.5t-60 -1.5q-30 0 -57.5 1t-53.5 4q28 94 41 189t13 197q0 95 -12 182t-38 170q30 2 56.5 3.5t50.5 1.5q27 0 53.5 -1.5t52.5 -3.5q-43 -166 -43 -347q0 -118 12 -215.5t38 -175.5zM330 866q0 -32 -22.5 -54.5t-55.5 -22.5q-32 0 -54.5 22.5
t-22.5 54.5q0 33 22.5 55.5t54.5 22.5q33 0 55.5 -22.5t22.5 -55.5zM120 866q0 -32 -22.5 -54.5t-54.5 -22.5q-33 0 -55.5 22.5t-22.5 54.5q0 33 22.5 55.5t55.5 22.5q16 0 30 -6t24.5 -16.5t16.5 -25t6 -30.5z" />
    <glyph glyph-name="afii10103" unicode="&#x456;" horiz-adv-x="214" 
d="M184 686q0 -44 -22 -72t-52 -28q-26 0 -44 22.5t-18 59.5q0 19 7 36.5t18.5 30.5t26 20.5t30.5 7.5q23 0 38.5 -21t15.5 -56zM194 3q-42 -6 -83 -6q-45 0 -91 6q24 72 36.5 137.5t12.5 125.5q0 97 -35 180q64 81 157 121q-30 -152 -30 -300q0 -84 8.5 -150t24.5 -114z
" />
    </font>
</defs>
</svg>
